<?xml version="1.0" encoding="utf-8"?>
<!-- Generator: Adobe Illustrator 25.4.1, SVG Export Plug-In . SVG Version: 6.00 Build 0)  -->
<svg version="1.1" id="Layer_1" xmlns="http://www.w3.org/2000/svg" xmlns:xlink="http://www.w3.org/1999/xlink" x="0px" y="0px"
	 width="308" height="87" viewBox="0 0 308 87" style="enable-background:new 0 0 308 87;" xml:space="preserve">
<style type="text/css">
	.st0{fill-rule:evenodd;clip-rule:evenodd;fill:#CC2229;}
	.st1{fill-rule:evenodd;clip-rule:evenodd;fill:#FFFFFF;}
	.st2{fill-rule:evenodd;clip-rule:evenodd;fill:#D0D1D3;}
</style>
<g>
	<path class="st0" d="M246,58.4v11.4h-14.2V58.4H246z M200.3,60.9c7.7,0,14,1.4,14,3.1c0,1.7-6.3,3.1-14,3.1s-14-1.4-14-3.1
		C186.3,62.3,192.6,60.9,200.3,60.9z M204.1,58.4l-11.6-3.9h17.4l16,6.4c1.6,0.7,2.7,1.8,2.9,2.9c0.6,3.5-12.8,6.3-28.4,6.3
		s-28.4-2.8-28.4-6.3C171.9,60.3,183.4,57.6,204.1,58.4L204.1,58.4z M137.3,64.8c0,1.6,4.9,2.3,8.9,2.3s9.3-0.9,9.3-2.3v-6.4h13.4
		v6.4c0,4.4-13.3,5.3-22.8,5.3c-9.5,0-23-0.9-23-5.3v-6.4h14.2V64.8z M94.6,54.5l32.6,15.3H111l-5.7-2.7H73.7l-6,2.7H51.1l30.4-13.9
		l-4.6-1.5L94.6,54.5L94.6,54.5z M99.4,64.4H79.7l10-4.6L99.4,64.4L99.4,64.4z"/>
	<path class="st1" d="M244.2,42.7c4,0.1,7.7,0,11.7-0.3c2.2-0.2,4.4-0.4,6.5-0.7c2-0.3,4-0.7,5.8-1c1.8-0.4,3.5-0.9,5-1.4
		c1.5-0.5,2.8-1,4.1-1.6c1.5-0.7,2.6-1.5,3.5-2.3c0.6-0.7,1.1-1.3,1.4-2c0.1-0.5,0.2-1.1,0.1-1.6c-0.2-0.9-0.7-1.7-1.5-2.6
		c-0.6-0.5-1.2-1-1.9-1.4c-1.6-0.9-3.4-1.7-5.7-2.5c-1.6-0.5-3.2-0.9-5-1.3c-2.3-0.5-4.8-0.9-7.4-1.3c-2.1-0.3-4.4-0.5-6.6-0.6
		c-3.2-0.2-6.4-0.2-9.7-0.2c-5.4,0.1-10.9,0.6-15.5,1.5c-0.3,0.1-0.7,0.2-1,0.2c3.6,1.6,6,3.5,7.5,5.4c0.4,0.6,0.8,1.2,1,1.8
		c0.7,1.9,0,3.9-1.8,5.8c-1.5,1.5-3.9,3.1-7.1,4.4C232.5,42,238.4,42.6,244.2,42.7L244.2,42.7z M218.2,28.8c-0.6-0.5-1.3-1-2.1-1.4
		c-1.9,1.1-3.3,2.2-3.9,3.4c-0.3,0.7-0.5,1.4-0.3,2.1c0.3,1.5,1.9,3,4.3,4.3c1.5-0.9,2.7-1.8,3.3-2.8c1.2-1.7,0.8-3.5-0.9-5.2
		L218.2,28.8z M190.5,42.6c4.4-0.2,8.4-0.7,12.4-1.3l1.5-0.3c-0.8-0.3-1.6-0.7-2.3-1.1c-2.4-1.2-4.2-2.6-5.3-4
		c-0.7-0.8-1.1-1.6-1.4-2.5c-0.3-1.2-0.2-2.5,0.5-3.7c1.3-2.2,4.1-4.3,8.4-6.2c-1.8-0.4-3.7-0.7-5.7-0.9c-3.4-0.4-7.1-0.7-10.8-0.8
		c-7.7-0.2-15.3,0.4-21.9,1.6c4.6,2.1,7.5,4.5,8.7,6.9c0.3,0.7,0.4,1.4,0.4,2.2c-0.1,1.5-1,2.9-2.4,4.3c-1.6,1.5-3.9,2.9-6.8,4.2
		C173,42.5,182,43,190.5,42.6L190.5,42.6z M156.4,28.7c-0.6-0.5-1.4-1-2.3-1.4c-1.3,0.8-2.5,1.6-3.3,2.4c-0.7,0.9-1.2,1.7-1.2,2.6
		c0,0.6,0.2,1.1,0.5,1.7c0.8,1.1,2.1,2.2,4,3.3c1.2-0.7,2.2-1.4,2.9-2.1c0.6-0.7,1.1-1.5,1.2-2.2c0.1-1-0.1-2.1-0.9-3.1
		C157.2,29.4,156.8,29.1,156.4,28.7L156.4,28.7z M134.6,28.5c1.4-1.6,3.6-3.1,6.5-4.5l1.1-0.5l0.2-0.1c-4-0.7-8.3-1.2-13-1.5
		c-3.4-0.2-7-0.2-10.4-0.1c-4.8,0.2-9.3,0.6-13.4,1.4c-0.5,0.1-1,0.2-1.5,0.3c3.6,1.6,6,3.5,7.5,5.4c0.7,1,1.2,2,1.2,3
		c0,0.9-0.2,1.9-0.7,2.8c-0.4,0.6-0.8,1.2-1.4,1.8c-1.5,1.5-3.9,3.1-7.1,4.4c11.1,2.4,27.3,2.4,38.5,0.1c-4.3-1.9-7.2-4-8.5-6.3
		c-0.8-1.6-0.9-3.1-0.1-4.7C133.9,29.5,134.2,29,134.6,28.5L134.6,28.5z M94,28.6c-0.5-0.4-1.2-0.8-1.9-1.2
		c-1.9,1.1-3.2,2.2-3.9,3.4c-0.3,0.7-0.5,1.4-0.3,2.1c0.3,1.5,1.9,3,4.3,4.3c1.1-0.7,2.1-1.3,2.8-2.1C97,33,96.6,30.6,94,28.6z
		 M72.2,35.1c-0.8-1.2-1-2.5-0.8-3.8c0.6-2.8,3.7-5.5,9-7.8c-1.8-0.4-3.7-0.7-5.7-0.9c-3.5-0.4-7.1-0.7-10.8-0.8
		c-2.8-0.1-5.5,0-8.2,0.1c-1.7,0.1-3.4,0.2-5.1,0.4c-2.7,0.3-5.3,0.6-7.8,1c-1.9,0.4-3.7,0.8-5.4,1.2c-1.7,0.5-3.2,1-4.6,1.5
		c-1.7,0.7-3.1,1.4-4.2,2.2c-0.9,0.6-1.6,1.3-2.1,2l-0.3,0.5c-0.3,0.7-0.4,1.4-0.4,2.1c0.1,0.5,0.4,1,0.7,1.6c0.8,1,1.9,1.9,3.6,2.9
		c0.9,0.4,1.8,0.9,2.8,1.3c1.8,0.7,3.7,1.3,5.8,1.8c1.8,0.4,3.7,0.8,5.6,1.1c2.6,0.4,5.2,0.7,8,0.9c1.7,0.1,3.5,0.2,5.2,0.3
		c1.9,0,3.8,0.1,5.7,0c5.1-0.1,10.1-0.5,14.7-1.2l1.2-0.2l1.5-0.3c-1.4-0.6-2.6-1.2-3.7-1.9C74.6,37.9,73.1,36.5,72.2,35.1z
		 M278.1,44.6c-2,0.4-4.1,0.8-6.3,1.2c-2.3,0.3-4.6,0.6-6.9,0.9c-2.4,0.2-4.9,0.5-7.4,0.6l-2.5,0.1c-4.5,0.2-8.9,0.2-13.4,0.1
		c-5.4-0.2-10.6-0.6-15.5-1.2c-3.5-0.5-6.8-1-9.9-1.7c-3.5,0.7-7.1,1.3-11,1.8c-5.4,0.7-11.1,1.1-16.9,1.2c-4,0.1-8.1,0-12.1-0.2
		c-8-0.4-15.6-1.4-22.2-2.8c-2.8,0.6-5.8,1.1-9,1.6c-6.6,0.9-13.5,1.4-20.7,1.4c-4.8,0-9.5-0.1-14.1-0.5c-6.5-0.5-12.5-1.4-18-2.5
		c-2.9,0.6-5.8,1.1-9,1.6c-6.6,0.9-13.8,1.4-21.1,1.5c-3,0-6-0.1-9-0.2c-2.5-0.1-5.1-0.3-7.5-0.5c-2.4-0.2-4.8-0.5-7.1-0.8
		c-2.2-0.3-4.4-0.7-6.5-1.1c-2.7-0.6-5.3-1.2-7.7-1.9c-1.7-0.5-3.4-1.1-4.9-1.7c-1.4-0.6-2.8-1.2-4-1.9c-1.1-0.7-2.2-1.4-3.1-2
		c-0.8-0.7-1.5-1.4-2.1-2.2c-0.4-0.8-0.8-1.5-1-2.3L9,32.3l0.1-0.8l0.2-0.8l0.3-0.8l0.4-0.8l0.6-0.7l0.7-0.7l0.8-0.7l0.9-0.7
		l1.1-0.7l1.1-0.7l1.3-0.6l1.3-0.6l1.5-0.6l1.5-0.6c1.6-0.6,3.4-1.1,5.2-1.6c1.9-0.5,3.9-0.9,5.9-1.4c2.1-0.4,4.3-0.8,6.5-1.1
		c2.3-0.3,4.7-0.6,7.1-0.8c2.5-0.2,5-0.4,7.5-0.5c3.7-0.1,7.5-0.2,11.2-0.1c4.8,0.1,9.4,0.4,13.9,0.8c4.3,0.5,8.5,1.1,12.3,1.9
		l0.9,0.2L92,20c7.4-1.6,16.3-2.7,25.6-3c5.5-0.2,11.1-0.1,16.5,0.3c4.9,0.3,9.5,0.8,13.9,1.5c2.1,0.3,4.1,0.7,6.1,1.1
		c3.3-0.7,7-1.3,10.8-1.8c7.3-0.9,15.5-1.3,23.4-1.2c2.5,0.1,5.1,0.2,7.6,0.3c5.9,0.4,11.6,1.1,16.8,2c1.1,0.2,2.3,0.4,3.3,0.7
		c5.1-1.1,10.9-2,17-2.5c4.6-0.4,9.3-0.6,14.1-0.6l2.7,0l2.7,0.1l2.7,0.1c2.6,0.1,5.1,0.3,7.7,0.5c2.4,0.2,4.8,0.5,7.1,0.8
		c2.2,0.3,4.4,0.7,6.5,1.1c2,0.4,4,0.9,5.8,1.4c1.8,0.5,3.5,1,5.1,1.6c1.5,0.6,2.9,1.2,4.3,1.8l1.2,0.6l1.1,0.7l1,0.7L296,27
		l0.8,0.7l0.7,0.7c0.6,0.8,1,1.5,1.3,2.3c0.2,0.8,0.3,1.6,0.2,2.4c-0.2,0.8-0.5,1.5-1,2.3l-0.6,0.7l-0.7,0.7l-0.8,0.7
		c-0.9,0.7-2,1.4-3.1,2c-1.7,0.9-3.5,1.7-5.6,2.4c-1.6,0.6-3.3,1.1-5.2,1.6l-1.9,0.5L278.1,44.6L278.1,44.6z"/>
	<path class="st2" d="M92.9,40.9c-7.7-2.3-12-5.2-12-8.6c0-3.3,4.1-6.2,11.2-8.4c6.9,2.2,11.1,5.2,11.1,8.4c0,2.3-1.5,4.2-5.1,6
		c5.3-5,3.8-8.5-2.7-11.4c1.2,0.5,4.4,3.3,3.8,5.4c0,2.3-2.4,4.5-6.5,6.3L92.9,40.9L92.9,40.9z M297.4,32.3
		c0,8.2-22.6,14.9-50.3,14.9c-11.6,0-22.3-1.2-31-3.2c-8.8,2-19.5,3.2-31.2,3.2c-11.5,0-22.2-1.2-31-3.1c-8.8,1.9-19.4,3.1-30.8,3.1
		c-11.6,0-22.3-1.2-31-3.2c-8.7,2-19.5,3.2-31.2,3.2c-27.7,0-50.3-6.7-50.3-14.9S33.3,17.4,61,17.4c11.7,0,22.4,1.2,31.1,3.2
		c8.7-2,19.5-3.2,31.1-3.2c11.7,0,22.3,1.2,30.9,3.1c8.8-2,19.7-3.1,30.8-3.1c11.7,0,22.4,1.2,31.1,3.2c8.7-2,19.5-3.2,31.1-3.2
		C275.9,17.4,297.4,24.1,297.4,32.3L297.4,32.3z M247.2,18.9c-8.5,0-16.3,0.7-23.1,2c11.1-2.6,28.8-3.2,49.2-1.1
		c-7.3-1.3-16.8-2.2-26.1-2.2c-11.8,0-22.7,1.3-31.2,3.3l0.1,1.7c-8.1-2.3-19.1-3.7-31.2-3.7c-8.2,0-16.2,0.7-23.1,2
		c11-2.6,28.8-3.2,49.1-1.1c-7.3-1.3-16.8-2.2-26.1-2.2c-11.7,0-22.3,1.2-30.8,3.2v1.8c-8.1-2.3-18.9-3.7-30.9-3.7
		c-8.2,0-16.2,0.7-23.1,2c11-2.6,28.8-3.2,49.2-1.1c-7.3-1.3-16.8-2.2-26.1-2.2c-11.7,0-22.7,1.3-31.2,3.3l0.1,1.7
		C84,20.4,73,18.9,61,18.9c-8.2,0-16.2,0.7-23.1,2c11.1-2.6,28.8-3.2,49.2-1.1c-7.3-1.3-16.8-2.2-26.1-2.2
		c-27.2,0-49.3,6.6-49.3,14.6c0,2.8,3.3,5.9,8.9,8.3C9.3,34,14.9,29,22.1,25.9c-2.8,1.8-6.4,4.3-6.2,6.4c0.7,7.3,20.3,13.3,45,13.3
		c12.6,0,23.2-1.3,31.5-3.8c8.3,2.6,17.9,3.8,30.7,3.8c11.7,0,22.9-1.4,31.1-3.9c8,2.4,18.5,3.9,30.7,3.9c12.6,0,23.2-1.3,31.5-3.8
		c8.3,2.6,17.9,3.8,30.7,3.8c24.8,0,45-6,45-13.3C292.1,25,271.8,18.9,247.2,18.9L247.2,18.9z M148.2,40.9c-6.9,1.8-15.8,2.8-25,2.8
		c-9,0-13.1-0.5-16.9-1.1c11,2.5,35.5,1.6,41.8,0c-6.8,1.5-15.4,2.3-24.9,2.3c-11.6,0-21.4-1.3-29.1-3.5c7.9-2.4,11.9-5.4,11.9-9
		c0-3.5-4.7-6.7-12.2-9.1c5.8-1.7,17.2-3.4,29.4-3.4c11.1,0,21.5,1.5,29.1,3.6h-5.6c-7.1,2.5-11,5.4-11,8.9c0,2.8,3.3,5.9,8.8,8.3
		c-11.3-6.6-5.6-11.6,1.6-14.7c-2.8,1.8-6.3,4.3-6.1,6.4c0.3,3.3,5.2,6.3,12,8.6L148.2,40.9L148.2,40.9z M154.1,40.6
		c-7.1-2.2-11.3-5.1-11.3-8.4s4.3-6.3,11.4-8.5c7.2,2.2,11.3,5.2,11.3,8.5c0,2.3-1.5,4.2-5.1,6c5.3-5,3.8-8.5-2.7-11.4
		c1.2,0.5,4.4,3.3,3.8,5.4c0,2.4-2.5,4.6-6.9,6.5L154.1,40.6L154.1,40.6z M156.3,41.3c7.5-2.4,11.9-5.5,11.9-9
		c0-3.5-4.3-6.5-11.9-8.9c7.6-2.2,17.3-3.6,28.7-3.6c11,0,21.3,1.2,28.8,3.3l-4.8,0c-7.2,2.6-11.1,5.9-11.1,9.2
		c0,2.8,3.3,5.9,8.9,8.3c-11.3-6.6-5.6-11.6,1.6-14.7c-2.8,1.8-6.3,4.3-6.2,6.4c0.3,3.5,4.2,6.4,11.8,8.8l-4.4-0.1
		c-6.7,1.7-15.3,2.7-24.7,2.7c-9,0-12.7-0.6-16.9-1.1c11,2.5,35.5,1.6,41.8,0c-6.8,1.5-15.4,2.3-24.9,2.3
		C172.8,44.8,164.1,43.4,156.3,41.3L156.3,41.3z M163.5,41.2c6,1.3,13.5,2,21.4,2c7.9,0,15.7-0.8,21.8-2.1c-6-2.5-9.9-5.6-9.9-8.9
		c0-3.3,3.6-6.3,9.7-8.8c-6.2-1.4-13.9-2.1-21.7-2.1c-7.9,0-15.2,0.7-21.3,2c5.8,2.4,9.7,5.7,9.7,8.9
		C173.4,35.5,169.5,38.7,163.5,41.2L163.5,41.2z M154.2,38.2c3.8-1.8,5.8-3.8,5.8-5.9c0-2.2-2.1-4.3-6-5.9c-3.7,1.8-6.1,3.8-6.1,5.9
		C148,34.4,150.7,36.5,154.2,38.2z M144.5,41.1c-6.1-2.5-9.9-5.6-9.9-8.9c0-3.2,3.5-6.3,10-8.9c-6-1.2-13.7-2.1-21.5-2.1
		c-9.4-0.2-19.6,1.4-21.1,2.2c5.6,2.4,9.1,5.6,9.1,8.8c0,3.3-3.6,6.3-9.7,8.8c6,1.4,13.5,2.2,21.7,2.2
		C131.1,43.2,138.5,42.5,144.5,41.1L144.5,41.1z M90,41.1l-4.4-0.1C79,42.6,70.3,43.6,61,43.6c-9,0-11.7-0.7-16.9-1.1
		c11,2.5,35.5,1.6,41.8,0C79,44,70.4,44.8,61,44.8c-23.2,0-42.2-5.6-42.2-12.5s19-12.5,42.2-12.5c11,0,21.3,1.2,28.8,3.3l-4.9,0
		c-6.9,2.5-11.1,5.7-11.1,9.2c0,2.8,3.3,5.9,8.9,8.3C71.4,34,77.1,29,84.3,25.9c-2.8,1.8-6.3,4.3-6.1,6.4
		C78.4,35.8,82.3,38.7,90,41.1L90,41.1z M92.2,38.1c3.7-1.7,5.7-3.7,5.7-5.8c0-2.1-2.1-4.1-5.7-5.8c-3.6,1.7-5.9,3.7-5.9,5.8
		C86.2,34.4,88.7,36.4,92.2,38.1L92.2,38.1z M82.8,41.2c-6-2.5-9.9-5.6-9.9-8.9c0-3.3,3.6-6.3,9.7-8.8c-6.2-1.4-13.8-2.1-21.6-2.1
		c-20.3,0-36.9,4.9-36.9,10.9c0,6,16.6,10.9,36.9,10.9C68.9,43.2,76.7,42.4,82.8,41.2L82.8,41.2z M216.9,40.9
		c-7.7-2.3-12-5.2-12-8.6c0-3.3,4.1-6.2,11.1-8.4c6.9,2.2,11.1,5.2,11.1,8.4c0,2.3-1.5,4.2-5.1,6c5.3-5,3.8-8.5-2.7-11.4
		c1.2,0.5,4.4,3.3,3.8,5.4c0,2.3-2.4,4.5-6.5,6.3L216.9,40.9L216.9,40.9z M218,41.3c7.9-2.4,11.9-5.4,11.9-9c0-3.5-4.7-6.7-12.2-9.1
		c5.8-1.7,17.2-3.4,29.4-3.4c23.2,0,42.2,5.6,42.2,12.5c0,2.3-1.5,4.2-5,6c5.3-5,3.8-8.5-2.7-11.4c1.2,0.5,4.4,3.3,3.8,5.4
		c0,6.2-17.2,11.3-38.2,11.3c-9,0-13.1-0.5-16.9-1.1c11,2.5,35.5,1.6,41.8,0c-6.8,1.5-15.4,2.3-24.8,2.3
		C235.5,44.8,225.7,43.5,218,41.3z M225.5,41.1c6,1.4,13.6,2.2,21.7,2.2c20.3,0,36.9-4.9,36.9-10.9c0-6-16.6-10.9-36.9-10.9
		c-9.4-0.2-19.6,1.4-21.1,2.2c5.6,2.4,9.1,5.6,9.1,8.8C235.2,35.5,231.6,38.6,225.5,41.1L225.5,41.1z M216.2,38.1
		c3.6-1.7,5.7-3.7,5.7-5.8c0-2.1-2.1-4.1-5.7-5.8c-3.6,1.7-5.9,3.7-5.9,5.8C210.2,34.4,212.7,36.4,216.2,38.1z"/>
</g>
</svg>
