<?xml version="1.0" encoding="utf-8"?>
<!-- Generator: Adobe Illustrator 25.4.1, SVG Export Plug-In . SVG Version: 6.00 Build 0)  -->
<svg version="1.1" id="Layer_1" xmlns="http://www.w3.org/2000/svg" xmlns:xlink="http://www.w3.org/1999/xlink" x="0px" y="0px"
	 width="308" height="87" viewBox="0 0 308 87" style="enable-background:new 0 0 308 87;" xml:space="preserve">
<style type="text/css">
	.st0{fill:#C9C9CA;}
	.st1{fill:url(#SVGID_1_);}
	.st2{fill:url(#SVGID_00000027605076911734046770000012833299804498920346_);}
	.st3{fill:url(#SVGID_00000039108923671371233690000007719852462564885951_);}
	.st4{fill:url(#SVGID_00000000922216188716299510000003863570402657988275_);}
	.st5{fill:url(#SVGID_00000017499850036565276820000002725708507959526330_);}
	.st6{fill:url(#SVGID_00000052097396617896050560000002206247468210201233_);}
	.st7{fill:url(#SVGID_00000158747333677449588840000010790414698481421494_);}
	.st8{fill:url(#SVGID_00000035525488428020115730000002813073187945594772_);}
	.st9{fill:url(#SVGID_00000154412990912816476450000013964343474957956005_);}
	.st10{fill:url(#SVGID_00000180363935144918385170000005586773388137372584_);}
	.st11{fill:url(#SVGID_00000071524177567197000590000017890197333423391389_);}
	.st12{fill:url(#SVGID_00000013176915527130683750000002882992680424179887_);}
	.st13{fill:url(#SVGID_00000038410007845006147150000001596970839904761253_);}
	.st14{fill:url(#SVGID_00000138561885401267268920000005563449209641030067_);}
	.st15{fill:url(#SVGID_00000078729122841214668750000003560710165006189712_);}
	.st16{fill:url(#SVGID_00000020365278054274116700000007778587385104099742_);}
	.st17{fill:url(#SVGID_00000116914555097609967340000003978001129491337132_);}
	.st18{fill:url(#SVGID_00000123399444450256470530000012203823015993046415_);}
	.st19{fill:url(#SVGID_00000183210604724404244480000014686142491857040051_);}
	.st20{fill:url(#SVGID_00000168091823713757864840000004853700497577708191_);}
	.st21{fill:url(#SVGID_00000174588991506379512770000005718447986997950887_);}
	.st22{fill:url(#SVGID_00000052819310373407381720000002775449425257747082_);}
	.st23{fill:url(#SVGID_00000107572383497647373730000007709951180502810270_);}
	.st24{fill:#4B4B4B;}
	.st25{fill:url(#SVGID_00000152962341804058739610000006442124371732946578_);}
	.st26{fill:url(#SVGID_00000037674596793192360720000002197578583865662633_);}
	.st27{fill:#FFFFFF;}
</style>
<g>
	<path class="st0" d="M154,8.9C78.5,8.9,18,24.3,18,43.5c0,19.1,61,34.6,136,34.6c75,0,136-15.5,136-34.6C290,24.4,229,8.9,154,8.9
		 M289.2,40.8c0,0.2,0.1,0.3,0.1,0.5C289.3,41.2,289.2,41,289.2,40.8"/>
	
		<radialGradient id="SVGID_1_" cx="-4830.2485" cy="-555.3611" r="288.56" gradientTransform="matrix(2.0313 0 0 -0.6995 9964.8154 -265.4311)" gradientUnits="userSpaceOnUse">
		<stop  offset="0" style="stop-color:#00082E"/>
		<stop  offset="0.155" style="stop-color:#000A30"/>
		<stop  offset="0.242" style="stop-color:#010F39"/>
		<stop  offset="0.312" style="stop-color:#011946"/>
		<stop  offset="0.373" style="stop-color:#02275A"/>
		<stop  offset="0.414" style="stop-color:#03346C"/>
		<stop  offset="0.439" style="stop-color:#0B4F87"/>
		<stop  offset="0.48" style="stop-color:#1676AF"/>
		<stop  offset="0.513" style="stop-color:#1C8EC7"/>
		<stop  offset="0.533" style="stop-color:#1F97D0"/>
		<stop  offset="1" style="stop-color:#1F97D0"/>
	</radialGradient>
	<path class="st1" d="M154,10.3c-74,0-134,14.8-134,33.2C20,61.8,80,76.7,154,76.7c74,0,133.9-14.8,133.9-33.2
		C287.9,25.1,228,10.3,154,10.3"/>
	
		<linearGradient id="SVGID_00000183216256920002308930000013173607753825972394_" gradientUnits="userSpaceOnUse" x1="-5275.5723" y1="-303.5227" x2="-5275.3311" y2="-303.5227" gradientTransform="matrix(0 -291.4034 291.4034 0 88601.3438 -1537240.875)">
		<stop  offset="0" style="stop-color:#00082E"/>
		<stop  offset="0.321" style="stop-color:#010A30"/>
		<stop  offset="0.501" style="stop-color:#030F39"/>
		<stop  offset="0.647" style="stop-color:#071846"/>
		<stop  offset="0.773" style="stop-color:#0D245A"/>
		<stop  offset="0.809" style="stop-color:#0F2961"/>
		<stop  offset="0.839" style="stop-color:#0B386E"/>
		<stop  offset="0.896" style="stop-color:#054E83"/>
		<stop  offset="0.951" style="stop-color:#015B90"/>
		<stop  offset="1" style="stop-color:#006094"/>
	</linearGradient>
	<path style="fill:url(#SVGID_00000183216256920002308930000013173607753825972394_);" d="M154.6,17.3c62.9,0,114.9,10.4,122.8,23.9
		v0C272.1,27,218.9,15.8,154,15.8c-68.4,0-123.9,12.4-123.9,27.7c0,1.2,0.4,2.5,1.1,3.7c-0.3-0.8-0.5-1.6-0.5-2.4
		C30.8,29.6,86.2,17.3,154.6,17.3L154.6,17.3z"/>
	
		<linearGradient id="SVGID_00000072278167216761556290000007333323742358304435_" gradientUnits="userSpaceOnUse" x1="-5275.5737" y1="477.5321" x2="-5275.3325" y2="477.5321" gradientTransform="matrix(1.784331e-14 -291.4034 -291.4034 -1.784331e-14 139309.9531 -1537241.5)">
		<stop  offset="0" style="stop-color:#00082E"/>
		<stop  offset="0.321" style="stop-color:#010A30"/>
		<stop  offset="0.501" style="stop-color:#030F39"/>
		<stop  offset="0.647" style="stop-color:#071846"/>
		<stop  offset="0.773" style="stop-color:#0D245A"/>
		<stop  offset="0.809" style="stop-color:#0F2961"/>
		<stop  offset="0.839" style="stop-color:#0B386E"/>
		<stop  offset="0.896" style="stop-color:#054E83"/>
		<stop  offset="0.951" style="stop-color:#015B90"/>
		<stop  offset="1" style="stop-color:#006094"/>
	</linearGradient>
	<path style="fill:url(#SVGID_00000072278167216761556290000007333323742358304435_);" d="M281.5,40c0.5,1.1,0.8,2.3,0.8,3.5
		c0,16.7-57.5,30.3-128.4,30.3C90.9,73.8,38.4,63,27.7,48.9C35.8,63.6,89.5,75,154.5,75h0.8c70.7,0,128-13.5,128-30
		C283.3,43.3,282.7,41.6,281.5,40L281.5,40z"/>
	
		<linearGradient id="SVGID_00000117645586996756629170000000995310733120060544_" gradientUnits="userSpaceOnUse" x1="-5284.1304" y1="-301.7254" x2="-5283.8892" y2="-301.7254" gradientTransform="matrix(0 -204.871 204.871 0 61992.0039 -1082498.125)">
		<stop  offset="0" style="stop-color:#00082E"/>
		<stop  offset="0.321" style="stop-color:#010A30"/>
		<stop  offset="0.501" style="stop-color:#030F39"/>
		<stop  offset="0.647" style="stop-color:#071846"/>
		<stop  offset="0.773" style="stop-color:#0D245A"/>
		<stop  offset="0.809" style="stop-color:#0F2961"/>
		<stop  offset="0.839" style="stop-color:#0B386E"/>
		<stop  offset="0.896" style="stop-color:#054E83"/>
		<stop  offset="0.951" style="stop-color:#015B90"/>
		<stop  offset="1" style="stop-color:#006094"/>
	</linearGradient>
	<path style="fill:url(#SVGID_00000117645586996756629170000000995310733120060544_);" d="M178.7,48.2c-0.3-0.5-0.3-1-0.2-1.6
		c0.1-0.2-0.3-0.4-0.6-0.2c-2.9,2-3.1,4.7-1.2,5.8c0.7,0.4,1.4,0.6,2.3,0.7C177.7,51.9,177.2,49.8,178.7,48.2z"/>
	
		<linearGradient id="SVGID_00000059272487816085825320000003556939667428105887_" gradientUnits="userSpaceOnUse" x1="-5284.1948" y1="-301.9824" x2="-5283.9546" y2="-301.9824" gradientTransform="matrix(0 -204.404 204.404 0 61934.3594 -1080043.875)">
		<stop  offset="0" style="stop-color:#00082E"/>
		<stop  offset="0.321" style="stop-color:#010A30"/>
		<stop  offset="0.501" style="stop-color:#030F39"/>
		<stop  offset="0.647" style="stop-color:#071846"/>
		<stop  offset="0.773" style="stop-color:#0D245A"/>
		<stop  offset="0.809" style="stop-color:#0F2961"/>
		<stop  offset="0.839" style="stop-color:#0B386E"/>
		<stop  offset="0.896" style="stop-color:#054E83"/>
		<stop  offset="0.951" style="stop-color:#015B90"/>
		<stop  offset="1" style="stop-color:#006094"/>
	</linearGradient>
	<path style="fill:url(#SVGID_00000059272487816085825320000003556939667428105887_);" d="M207.8,52.1L207.8,52.1
		c0.2-0.2,0.3-0.4,0.5-0.6c0.1-0.2,0.1-0.2,0-0.2c-0.3-0.1-0.6-0.2-0.6-0.4c0,0,0-0.1,0-0.1l0,0C207.6,51.1,207.7,51.6,207.8,52.1
		L207.8,52.1z"/>
	
		<linearGradient id="SVGID_00000070830965043069327620000015686064084421844892_" gradientUnits="userSpaceOnUse" x1="-5284.1943" y1="-302.0218" x2="-5283.9556" y2="-302.0218" gradientTransform="matrix(0 -204.4023 204.4023 0 61946.3555 -1080034.875)">
		<stop  offset="0" style="stop-color:#00082E"/>
		<stop  offset="0.321" style="stop-color:#010A30"/>
		<stop  offset="0.501" style="stop-color:#030F39"/>
		<stop  offset="0.647" style="stop-color:#071846"/>
		<stop  offset="0.773" style="stop-color:#0D245A"/>
		<stop  offset="0.809" style="stop-color:#0F2961"/>
		<stop  offset="0.839" style="stop-color:#0B386E"/>
		<stop  offset="0.896" style="stop-color:#054E83"/>
		<stop  offset="0.951" style="stop-color:#015B90"/>
		<stop  offset="1" style="stop-color:#006094"/>
	</linearGradient>
	<path style="fill:url(#SVGID_00000070830965043069327620000015686064084421844892_);" d="M211.1,44.1c1,0.6,1.5,1.4,1.7,2.1
		c0,0.3,0.4,0.4,0.7,0.1c0.1-0.1,0.2-0.2,0.3-0.3c-0.1-0.1-0.2-0.2-0.3-0.2C212.7,45.2,211.9,44.6,211.1,44.1L211.1,44.1z"/>
	
		<linearGradient id="SVGID_00000018929670320477018200000004488382832385296515_" gradientUnits="userSpaceOnUse" x1="-5284.1772" y1="-301.6712" x2="-5283.9351" y2="-301.6712" gradientTransform="matrix(0 -204.5335 204.5335 0 61874.1406 -1080724.25)">
		<stop  offset="0" style="stop-color:#00082E"/>
		<stop  offset="0.321" style="stop-color:#010A30"/>
		<stop  offset="0.501" style="stop-color:#030F39"/>
		<stop  offset="0.647" style="stop-color:#071846"/>
		<stop  offset="0.773" style="stop-color:#0D245A"/>
		<stop  offset="0.809" style="stop-color:#0F2961"/>
		<stop  offset="0.839" style="stop-color:#0B386E"/>
		<stop  offset="0.896" style="stop-color:#054E83"/>
		<stop  offset="0.951" style="stop-color:#015B90"/>
		<stop  offset="1" style="stop-color:#006094"/>
	</linearGradient>
	<path style="fill:url(#SVGID_00000018929670320477018200000004488382832385296515_);" d="M171.3,42.8c0.8,0.7,1.1,1.7,1.1,3
		c0,0.3,0.4,0.3,0.6,0.1c0.1-0.1,0.3-0.2,0.4-0.4v0C172.7,44.4,171.9,43.3,171.3,42.8L171.3,42.8z"/>
	
		<linearGradient id="SVGID_00000073708982139610355660000005840219190577573538_" gradientUnits="userSpaceOnUse" x1="-5284.1572" y1="-301.9304" x2="-5283.9165" y2="-301.9304" gradientTransform="matrix(0 -204.6733 204.6733 0 61998.2305 -1081459.25)">
		<stop  offset="0" style="stop-color:#00082E"/>
		<stop  offset="0.321" style="stop-color:#010A30"/>
		<stop  offset="0.501" style="stop-color:#030F39"/>
		<stop  offset="0.647" style="stop-color:#071846"/>
		<stop  offset="0.773" style="stop-color:#0D245A"/>
		<stop  offset="0.809" style="stop-color:#0F2961"/>
		<stop  offset="0.839" style="stop-color:#0B386E"/>
		<stop  offset="0.896" style="stop-color:#054E83"/>
		<stop  offset="0.951" style="stop-color:#015B90"/>
		<stop  offset="1" style="stop-color:#006094"/>
	</linearGradient>
	<path style="fill:url(#SVGID_00000073708982139610355660000005840219190577573538_);" d="M207.1,46.3c-2.4-0.8-6,0.6-9.3,3.4
		c-2.7,2.2-4.1,4.5-4.2,6.7c0,0.8,0.4,1.8,1.4,2.1c0.3,0.1,0.7,0.2,1,0.2c-0.1-0.3-0.2-0.6-0.2-0.9c0-2.3,1-4.6,3.7-6.8
		c3.2-2.7,6.7-4.1,9-3.3C208.5,47.1,208.1,46.6,207.1,46.3L207.1,46.3z"/>
	
		<linearGradient id="SVGID_00000181804470452987267300000006071268768354578598_" gradientUnits="userSpaceOnUse" x1="-5284.2222" y1="-301.3582" x2="-5283.9814" y2="-301.3582" gradientTransform="matrix(0 -204.2081 204.2081 0 61678.0312 -1079014.125)">
		<stop  offset="0" style="stop-color:#00082E"/>
		<stop  offset="0.321" style="stop-color:#010A30"/>
		<stop  offset="0.501" style="stop-color:#030F39"/>
		<stop  offset="0.647" style="stop-color:#071846"/>
		<stop  offset="0.773" style="stop-color:#0D245A"/>
		<stop  offset="0.809" style="stop-color:#0F2961"/>
		<stop  offset="0.839" style="stop-color:#0B386E"/>
		<stop  offset="0.896" style="stop-color:#054E83"/>
		<stop  offset="0.951" style="stop-color:#015B90"/>
		<stop  offset="1" style="stop-color:#006094"/>
	</linearGradient>
	<path style="fill:url(#SVGID_00000181804470452987267300000006071268768354578598_);" d="M136.2,50.8c2.5-2.3,5.3-3.2,8.5-4.1
		c0.4-0.1,0.5-0.3,0.4-0.5c-0.1-0.4-0.6-1.5-0.7-1.8c0.1,0.2,0,0.4-0.4,0.5c-3.6,0.9-7.3,2.4-9.8,4.7c-2.9,2.6-3.6,5.7-1.7,7.5
		c0.5,0.4,1,0.7,1.6,0.9C133,55.9,133.7,53,136.2,50.8L136.2,50.8z"/>
	
		<linearGradient id="SVGID_00000071538386258194819480000007790637710023317140_" gradientUnits="userSpaceOnUse" x1="-5284.189" y1="-301.6451" x2="-5283.9478" y2="-301.6451" gradientTransform="matrix(0 -204.4506 204.4506 0 61841.1836 -1080288.875)">
		<stop  offset="0" style="stop-color:#00082E"/>
		<stop  offset="0.321" style="stop-color:#010A30"/>
		<stop  offset="0.501" style="stop-color:#030F39"/>
		<stop  offset="0.647" style="stop-color:#071846"/>
		<stop  offset="0.773" style="stop-color:#0D245A"/>
		<stop  offset="0.809" style="stop-color:#0F2961"/>
		<stop  offset="0.839" style="stop-color:#0B386E"/>
		<stop  offset="0.896" style="stop-color:#054E83"/>
		<stop  offset="0.951" style="stop-color:#015B90"/>
		<stop  offset="1" style="stop-color:#006094"/>
	</linearGradient>
	<path style="fill:url(#SVGID_00000071538386258194819480000007790637710023317140_);" d="M154.5,64.4c2.5,0,5.5,0,7.5,0
		c0.3,0,0.5-0.1,0.7-0.3c3.1-3.2,6.3-6.8,9.5-10c0.7,1.6,1,2.4,2.3,3.2c1.3,0.8,2.5,1,4.3,1c1.6,0,3.2-0.4,5.1-1
		c0.6-0.2,1.2-0.4,1.8-0.7c0-0.6,0.1-1.2,0.2-1.8c0-0.1-0.1-0.5-0.6-0.2c-1,0.5-2.2,0.9-3.4,1.2c-1.7,0.4-2.5,0.6-4.1,0.6
		c-2,0-3.8-0.6-5.1-1.9c-0.7-0.7-1-1.8-1.1-2.7c0-0.1-0.2-0.2-0.4,0c-3.4,3.5-6.6,6.9-9.9,10.5c-0.2,0.2-0.3,0.3-0.7,0.3
		c-2.1,0-4.4,0-6.6,0c-0.2,0-0.4-0.1-0.5-0.2c0.2,0.5,0.5,1.5,0.6,1.8C154.1,64.3,154.2,64.4,154.5,64.4L154.5,64.4z"/>
	
		<linearGradient id="SVGID_00000033356814437993435580000017954137104041907371_" gradientUnits="userSpaceOnUse" x1="-5283.9478" y1="-302.0371" x2="-5283.707" y2="-302.0371" gradientTransform="matrix(0 -206.183 206.183 0 62482.9922 -1089393.125)">
		<stop  offset="0" style="stop-color:#00082E"/>
		<stop  offset="0.321" style="stop-color:#010A30"/>
		<stop  offset="0.501" style="stop-color:#030F39"/>
		<stop  offset="0.647" style="stop-color:#071846"/>
		<stop  offset="0.773" style="stop-color:#0D245A"/>
		<stop  offset="0.809" style="stop-color:#0F2961"/>
		<stop  offset="0.839" style="stop-color:#0B386E"/>
		<stop  offset="0.896" style="stop-color:#054E83"/>
		<stop  offset="0.951" style="stop-color:#015B90"/>
		<stop  offset="1" style="stop-color:#006094"/>
	</linearGradient>
	<path style="fill:url(#SVGID_00000033356814437993435580000017954137104041907371_);" d="M187.4,62.5c0.6,0.7,1.8,1.6,2.6,1.8
		c4.4,1.5,10.7-0.2,14.8-2.8c0,0,0,0,0.1-0.1c0.2,0.5,0.4,1,0.4,1.1c0.3,0.6,0.7,1.2,1.1,1.5c2.8,2.1,8.6,1.2,14.8-2.1
		c3.4-1.8,6-3.6,9.1-6c0.1-0.1,0.1-0.3,0-0.5c-0.2-0.5-0.5-1.5-0.6-2c0,0.1,0,0.2-0.1,0.2c-3.2,2.7-6.8,5.2-10.3,7
		c-5.3,2.8-10.6,3.5-13.3,1.7c-1-0.7-1.5-1.6-1.6-2.4c0-0.4-0.4-0.5-0.7-0.3c-3.1,2.1-8.6,4.4-13.6,2.8c-2.6-0.9-3.9-2.5-4.4-4.2
		c0,0,0,0,0,0.1C186.1,59.5,186.5,61.4,187.4,62.5L187.4,62.5z"/>
	
		<linearGradient id="SVGID_00000145755316961908900870000003665445986489210257_" gradientUnits="userSpaceOnUse" x1="-5284.0176" y1="-301.8042" x2="-5283.7769" y2="-301.8042" gradientTransform="matrix(0 -205.6651 205.6651 0 62254.0156 -1086670.875)">
		<stop  offset="0" style="stop-color:#00082E"/>
		<stop  offset="0.321" style="stop-color:#010A30"/>
		<stop  offset="0.501" style="stop-color:#030F39"/>
		<stop  offset="0.647" style="stop-color:#071846"/>
		<stop  offset="0.773" style="stop-color:#0D245A"/>
		<stop  offset="0.809" style="stop-color:#0F2961"/>
		<stop  offset="0.839" style="stop-color:#0B386E"/>
		<stop  offset="0.896" style="stop-color:#054E83"/>
		<stop  offset="0.951" style="stop-color:#015B90"/>
		<stop  offset="1" style="stop-color:#006094"/>
	</linearGradient>
	<path style="fill:url(#SVGID_00000145755316961908900870000003665445986489210257_);" d="M185.2,51c1.6-0.6,3.1-1.9,2.9-3.9
		c-0.1-1-0.5-2.1-1.2-2.9c0.5,0.6,0.7,1.4,0.5,2.1c-0.3,1.3-1.4,2.5-3.2,3.1c-1.5,0.5-3.3,0.4-4.6-0.3c-0.4-0.2-0.7-0.5-0.9-0.8
		c0.3,1,0.6,1.7,1,2.1C180.9,51.6,183,51.9,185.2,51z"/>
	
		<linearGradient id="SVGID_00000021835919843844409370000014885213779631753651_" gradientUnits="userSpaceOnUse" x1="-5284.2148" y1="-302.1109" x2="-5283.9736" y2="-302.1109" gradientTransform="matrix(0 -204.2608 204.2608 0 61932.4531 -1079290.75)">
		<stop  offset="0" style="stop-color:#00082E"/>
		<stop  offset="0.321" style="stop-color:#010A30"/>
		<stop  offset="0.501" style="stop-color:#030F39"/>
		<stop  offset="0.647" style="stop-color:#071846"/>
		<stop  offset="0.773" style="stop-color:#0D245A"/>
		<stop  offset="0.809" style="stop-color:#0F2961"/>
		<stop  offset="0.839" style="stop-color:#0B386E"/>
		<stop  offset="0.896" style="stop-color:#054E83"/>
		<stop  offset="0.951" style="stop-color:#015B90"/>
		<stop  offset="1" style="stop-color:#006094"/>
	</linearGradient>
	<path style="fill:url(#SVGID_00000021835919843844409370000014885213779631753651_);" d="M233.9,33.6c-1,1.2-21,21.8-22.2,23.9
		c-0.4,0.7-0.4,1.2,0,1.6c0.4,0.4,1,0.5,1.7,0.5c0.1-0.3,0.2-0.6,0.4-0.9c1.3-2.1,19.9-21.4,20.9-22.6c0.1-0.1,0.1-0.2,0-0.3
		c-0.1-0.2-0.7-2.2-0.7-2.4C234,33.5,234,33.5,233.9,33.6L233.9,33.6z"/>
	
		<linearGradient id="SVGID_00000098183312335225230320000007460149881376865947_" gradientUnits="userSpaceOnUse" x1="-5284.1836" y1="-301.498" x2="-5283.9424" y2="-301.498" gradientTransform="matrix(0 -204.4895 204.4895 0 61806.0508 -1080493)">
		<stop  offset="0" style="stop-color:#00082E"/>
		<stop  offset="0.321" style="stop-color:#010A30"/>
		<stop  offset="0.501" style="stop-color:#030F39"/>
		<stop  offset="0.647" style="stop-color:#071846"/>
		<stop  offset="0.773" style="stop-color:#0D245A"/>
		<stop  offset="0.809" style="stop-color:#0F2961"/>
		<stop  offset="0.839" style="stop-color:#0B386E"/>
		<stop  offset="0.896" style="stop-color:#054E83"/>
		<stop  offset="0.951" style="stop-color:#015B90"/>
		<stop  offset="1" style="stop-color:#006094"/>
	</linearGradient>
	<path style="fill:url(#SVGID_00000098183312335225230320000007460149881376865947_);" d="M151.2,43.2c0.1,0,0.1,0.1,0.2,0.1
		c1.2,1.2,1.9,2.9,1.9,4.7c0.1,0.4,0.3,0.4,0.6,0.2c0.2-0.2,0.5-0.3,0.7-0.5c-0.4-0.9-0.9-1.8-1.5-2.6
		C152.9,44.7,152,43.7,151.2,43.2L151.2,43.2z"/>
	
		<linearGradient id="SVGID_00000034794766625181045260000016374632566158267306_" gradientUnits="userSpaceOnUse" x1="-5284.1938" y1="-301.3945" x2="-5283.9531" y2="-301.3945" gradientTransform="matrix(0 -204.4135 204.4135 0 61750.6367 -1080093.875)">
		<stop  offset="0" style="stop-color:#00082E"/>
		<stop  offset="0.321" style="stop-color:#010A30"/>
		<stop  offset="0.501" style="stop-color:#030F39"/>
		<stop  offset="0.647" style="stop-color:#071846"/>
		<stop  offset="0.773" style="stop-color:#0D245A"/>
		<stop  offset="0.809" style="stop-color:#0F2961"/>
		<stop  offset="0.839" style="stop-color:#0B386E"/>
		<stop  offset="0.896" style="stop-color:#054E83"/>
		<stop  offset="0.951" style="stop-color:#015B90"/>
		<stop  offset="1" style="stop-color:#006094"/>
	</linearGradient>
	<path style="fill:url(#SVGID_00000034794766625181045260000016374632566158267306_);" d="M119.1,62.4c0.4,0.1,0.7,0,0.9-0.1
		c1.2-0.4,3.6-1.7,4.6-2.5c0.3-0.2,0.6-0.1,0.7,0.1c0.4,0.9,1,1.6,1.7,2.4c0.8,0.8,2.3,1.7,4.3,2.1c2.6,0.5,5.3,0.6,9-0.4
		c2.9-0.8,6-2.3,8.3-4c2.8-2.1,3.8-3.4,4.9-4.3c1.8-1.5,4.7-4.3,8.7-6.6c1.4-0.8,2.9-1.3,3.9-1.1c0.6-1,0.3-1.6-0.3-1.8
		c-0.9-0.4-2.8,0.2-4.4,1c-4.3,2.2-7.9,5.6-9.7,7.2c-1.1,0.9-2.1,2.2-4.9,4.3c-4.4,3.3-10.3,5.1-16,3.8c-3.1-0.7-5.3-2.4-6.2-4.5
		c-0.2-0.4-0.5-0.5-0.8-0.2c-0.9,0.8-2.8,1.9-4.3,2.6c-0.2,0.1-0.6,0.3-1,0.1c-0.3-0.1-1.5-1.2-1.7-1.5c0,0,0-0.1-0.1-0.1v0
		c0.4,1.4,0.5,1.5,1,2.2C118.3,61.8,118.9,62.3,119.1,62.4z"/>
	
		<linearGradient id="SVGID_00000049901910299128541760000012414126095104910745_" gradientUnits="userSpaceOnUse" x1="-5284.2173" y1="-300.9022" x2="-5283.9756" y2="-300.9022" gradientTransform="matrix(0 -204.2444 204.2444 0 61544.293 -1079204.625)">
		<stop  offset="0" style="stop-color:#00082E"/>
		<stop  offset="0.321" style="stop-color:#010A30"/>
		<stop  offset="0.501" style="stop-color:#030F39"/>
		<stop  offset="0.647" style="stop-color:#071846"/>
		<stop  offset="0.773" style="stop-color:#0D245A"/>
		<stop  offset="0.809" style="stop-color:#0F2961"/>
		<stop  offset="0.839" style="stop-color:#0B386E"/>
		<stop  offset="0.896" style="stop-color:#054E83"/>
		<stop  offset="0.951" style="stop-color:#015B90"/>
		<stop  offset="1" style="stop-color:#006094"/>
	</linearGradient>
	<path style="fill:url(#SVGID_00000049901910299128541760000012414126095104910745_);" d="M84.9,50.1c1.4-2,3.4-2.9,5.4-3.7
		c0.9-0.4,1.2-0.7,0.7-1.7c-0.1-0.3-0.2-0.8-0.4-1.2c0.1,0.4-0.3,0.8-0.8,1c-2.4,0.8-5.3,2.3-6.8,4.2c-1.2,1.6-1.4,3.5,0.4,5.4
		c0.1,0.1,0.3,0.3,0.5,0.4h0C83.4,53,84,51.3,84.9,50.1L84.9,50.1z"/>
	
		<linearGradient id="SVGID_00000063635331578403677590000004473717958423603586_" gradientUnits="userSpaceOnUse" x1="-5283.9453" y1="-301.2574" x2="-5283.7041" y2="-301.2574" gradientTransform="matrix(0 -206.1787 206.1787 0 62232.0898 -1089369.625)">
		<stop  offset="0" style="stop-color:#00082E"/>
		<stop  offset="0.321" style="stop-color:#010A30"/>
		<stop  offset="0.501" style="stop-color:#030F39"/>
		<stop  offset="0.647" style="stop-color:#071846"/>
		<stop  offset="0.773" style="stop-color:#0D245A"/>
		<stop  offset="0.809" style="stop-color:#0F2961"/>
		<stop  offset="0.839" style="stop-color:#0B386E"/>
		<stop  offset="0.896" style="stop-color:#054E83"/>
		<stop  offset="0.951" style="stop-color:#015B90"/>
		<stop  offset="1" style="stop-color:#006094"/>
	</linearGradient>
	<path style="fill:url(#SVGID_00000063635331578403677590000004473717958423603586_);" d="M109.6,26.3c8.8-2,18.6-0.7,26.5,0.4
		c1.1-0.5,2.1-0.8,3-1.1c0.5-0.2-0.1-0.4-0.2-0.4c-10.2-1.3-20.7-3-30.8-0.4c-7,1.8-10.1,5.5-8.6,8c0.3,0.5,0.7,0.9,1.3,1.1
		C100.4,31.6,102.9,27.9,109.6,26.3L109.6,26.3z"/>
	
		<linearGradient id="SVGID_00000093883253687364514170000002231805957018119077_" gradientUnits="userSpaceOnUse" x1="-5284.2012" y1="-301.11" x2="-5283.96" y2="-301.11" gradientTransform="matrix(0 -204.3566 204.3566 0 61643.5781 -1079794.25)">
		<stop  offset="0" style="stop-color:#00082E"/>
		<stop  offset="0.321" style="stop-color:#010A30"/>
		<stop  offset="0.501" style="stop-color:#030F39"/>
		<stop  offset="0.647" style="stop-color:#071846"/>
		<stop  offset="0.773" style="stop-color:#0D245A"/>
		<stop  offset="0.809" style="stop-color:#0F2961"/>
		<stop  offset="0.839" style="stop-color:#0B386E"/>
		<stop  offset="0.896" style="stop-color:#054E83"/>
		<stop  offset="0.951" style="stop-color:#015B90"/>
		<stop  offset="1" style="stop-color:#006094"/>
	</linearGradient>
	<path style="fill:url(#SVGID_00000093883253687364514170000002231805957018119077_);" d="M81.1,62.4c2.9,1.4,5.7,1.8,9,1.9
		c6.7,0.1,12.9-1.8,19.4-6.3c6.3-4.3,11.7-10.3,17-16.3c0.2-0.2,0.4-0.3,1.3-0.4c3.3-0.3,6.3-0.4,9.3-0.6c0.9-0.1,1.6-0.1,1.9,0.1
		c1.1,0.7,2.3,1.4,3.1,1.7c0.5,0,1,0.1,1.3,0.3c0.3,0,0.7-0.2,0.9-0.3c0.4-0.3,0.4-0.6,0.3-0.8c-0.1-0.5-0.3-1.5-0.6-1.8
		c0.2,0.2,0.1,0.5-0.3,0.8c-0.2,0.2-0.6,0.4-1.1,0.3c-0.4,0-0.6-0.1-1.1-0.3c-1-0.4-2.2-1-3.1-1.7c-0.3-0.2-0.4-0.2-1.1-0.2
		c-3.2,0.1-8.1,0.4-11.4,0.7c-0.8,0.1-0.9,0.2-1.1,0.4c-5.3,6-11,12.4-17.3,16.7c-6.7,4.6-12.3,5.8-18.2,5.9
		c-6.8,0-12.9-2.6-14.4-7.2v0C75.8,57.9,78.2,61,81.1,62.4L81.1,62.4z"/>
	
		<linearGradient id="SVGID_00000128450937246422326000000000337609825746278785_" gradientUnits="userSpaceOnUse" x1="-5284.0918" y1="-301.1528" x2="-5283.8506" y2="-301.1528" gradientTransform="matrix(0 -205.1317 205.1317 0 61887.4766 -1083867.5)">
		<stop  offset="0" style="stop-color:#00082E"/>
		<stop  offset="0.321" style="stop-color:#010A30"/>
		<stop  offset="0.501" style="stop-color:#030F39"/>
		<stop  offset="0.647" style="stop-color:#071846"/>
		<stop  offset="0.773" style="stop-color:#0D245A"/>
		<stop  offset="0.809" style="stop-color:#0F2961"/>
		<stop  offset="0.839" style="stop-color:#0B386E"/>
		<stop  offset="0.896" style="stop-color:#054E83"/>
		<stop  offset="0.951" style="stop-color:#015B90"/>
		<stop  offset="1" style="stop-color:#006094"/>
	</linearGradient>
	<path style="fill:url(#SVGID_00000128450937246422326000000000337609825746278785_);" d="M106.3,42.3c-0.1-0.2-0.2-0.3-0.2-0.5
		c-0.1,0.8,0.4,1.9,0.8,2.3c0.4,0.4,1.5,0.6,2.4,0.2c2-1,3.9-1.6,5.9-1.9c0.5-0.5,1.1-1,1.8-1.6c0.1,0,0.1-0.1,0-0.1
		c0-0.1-0.1-0.1-0.2-0.1c-3,0.1-5.7,0.7-8.2,2C107.8,42.9,106.7,42.8,106.3,42.3z"/>
	
		<linearGradient id="SVGID_00000052789156209988707080000015902738023837218742_" gradientUnits="userSpaceOnUse" x1="-5284.2168" y1="-301.56" x2="-5283.9756" y2="-301.56" gradientTransform="matrix(0 -204.2487 204.2487 0 61754.1758 -1079227.25)">
		<stop  offset="0" style="stop-color:#00082E"/>
		<stop  offset="0.321" style="stop-color:#010A30"/>
		<stop  offset="0.501" style="stop-color:#030F39"/>
		<stop  offset="0.647" style="stop-color:#071846"/>
		<stop  offset="0.773" style="stop-color:#0D245A"/>
		<stop  offset="0.809" style="stop-color:#0F2961"/>
		<stop  offset="0.839" style="stop-color:#0B386E"/>
		<stop  offset="0.896" style="stop-color:#054E83"/>
		<stop  offset="0.951" style="stop-color:#015B90"/>
		<stop  offset="1" style="stop-color:#006094"/>
	</linearGradient>
	<path style="fill:url(#SVGID_00000052789156209988707080000015902738023837218742_);" d="M188.5,28.4c-4.2,1.6-8.6,2-13.3,2.1
		c-11.2,0.1-21.6-2.9-32.3-4.5c0,0.3,0.1,0.7-0.3,0.9c-6,3-11.3,6-15,10.3c-0.1,0.1-0.1,0.2,0.2,0.2c1,0,1.9-0.1,2.8-0.1
		c3.3-3.5,6.8-5.5,12.2-8.2c0.4-0.2,0.8-0.3,0.7-1.1c10.8,1.6,19,4.3,32.9,4.3c4.2,0,10-0.9,13.2-2.2c3.6-1.5,4.6-2.6,4.7-3.7
		c0-0.4-0.1-0.9-0.2-1.2c-0.1-0.4-0.2-0.9-0.4-1.3c0.1,0.2,0.1,0.3,0.1,0.5C193.7,25.7,192.2,27,188.5,28.4L188.5,28.4z"/>
	
		<linearGradient id="SVGID_00000088133434366426975260000007996601966656055684_" gradientUnits="userSpaceOnUse" x1="-5284.1514" y1="-301.4093" x2="-5283.9102" y2="-301.4093" gradientTransform="matrix(0 -204.7104 204.7104 0 61843.7266 -1081654)">
		<stop  offset="0" style="stop-color:#00082E"/>
		<stop  offset="0.321" style="stop-color:#010A30"/>
		<stop  offset="0.501" style="stop-color:#030F39"/>
		<stop  offset="0.647" style="stop-color:#071846"/>
		<stop  offset="0.773" style="stop-color:#0D245A"/>
		<stop  offset="0.809" style="stop-color:#0F2961"/>
		<stop  offset="0.839" style="stop-color:#0B386E"/>
		<stop  offset="0.896" style="stop-color:#054E83"/>
		<stop  offset="0.951" style="stop-color:#015B90"/>
		<stop  offset="1" style="stop-color:#006094"/>
	</linearGradient>
	<path style="fill:url(#SVGID_00000088133434366426975260000007996601966656055684_);" d="M141.8,33.3c-0.1,0.1-0.3,0.2-0.4,0.3
		c-1.1,0.7-1.4,1.7-1.2,2.5c0.1,0.3,0.3,0.4,0.5,0.3c0.2,0,0.4-0.1,0.6-0.1c0.1-0.4,0.3-0.8,0.9-1.2c0.4-0.3,1-0.4,1.5-0.3
		c0.4-0.6,0.5-1.2,0-1.5C143.2,33,142.5,33,141.8,33.3L141.8,33.3z"/>
	
		<linearGradient id="SVGID_00000005247554547349717970000011585957453888035508_" gradientUnits="userSpaceOnUse" x1="-5284.2129" y1="-301.4141" x2="-5283.9717" y2="-301.4141" gradientTransform="matrix(0 -204.2728 204.2728 0 61715.1367 -1079354.25)">
		<stop  offset="0" style="stop-color:#00082E"/>
		<stop  offset="0.321" style="stop-color:#010A30"/>
		<stop  offset="0.501" style="stop-color:#030F39"/>
		<stop  offset="0.647" style="stop-color:#071846"/>
		<stop  offset="0.773" style="stop-color:#0D245A"/>
		<stop  offset="0.809" style="stop-color:#0F2961"/>
		<stop  offset="0.839" style="stop-color:#0B386E"/>
		<stop  offset="0.896" style="stop-color:#054E83"/>
		<stop  offset="0.951" style="stop-color:#015B90"/>
		<stop  offset="1" style="stop-color:#006094"/>
	</linearGradient>
	<path style="fill:url(#SVGID_00000005247554547349717970000011585957453888035508_);" d="M146.1,35.9c-1,1.3-2.7,2-4.3,2.4
		c0,0-0.3,0.1-0.3,0.3c0,0.2,1.2,0.7,1.9,1.1c0.1,0,0.3-0.1,0.3-0.1c0.8-0.2,2.2-0.8,3-2c0.5-0.8,0.8-1.4,0.6-2.7
		c-0.2-0.9-0.4-1.7-0.8-2.2C147.2,33.7,146.9,34.9,146.1,35.9L146.1,35.9z"/>
	
		<linearGradient id="SVGID_00000028306081994815977810000011079061981547586450_" gradientUnits="userSpaceOnUse" x1="-5284.2065" y1="-301.0617" x2="-5283.9648" y2="-301.0617" gradientTransform="matrix(0 -204.3203 204.3203 0 61617.7773 -1079603.625)">
		<stop  offset="0" style="stop-color:#00082E"/>
		<stop  offset="0.321" style="stop-color:#010A30"/>
		<stop  offset="0.501" style="stop-color:#030F39"/>
		<stop  offset="0.647" style="stop-color:#071846"/>
		<stop  offset="0.773" style="stop-color:#0D245A"/>
		<stop  offset="0.809" style="stop-color:#0F2961"/>
		<stop  offset="0.839" style="stop-color:#0B386E"/>
		<stop  offset="0.896" style="stop-color:#054E83"/>
		<stop  offset="0.951" style="stop-color:#015B90"/>
		<stop  offset="1" style="stop-color:#006094"/>
	</linearGradient>
	<path style="fill:url(#SVGID_00000028306081994815977810000011079061981547586450_);" d="M116.1,31.2c-3,4.7-8.6,8.4-15.5,8.6
		c-3.8,0.1-6.8-1.1-8.3-3c1.1,1.4,3.1,2.6,4.8,3.4c1.5,0.6,3.3,1,5.4,0.9c7.2-0.2,12.6-4.2,14.4-7.5c0.5-0.9,0.1-1.9-0.1-2.5
		c-0.1-0.3-0.2-0.8-0.5-1.2h0C116.5,30,116.5,30.5,116.1,31.2L116.1,31.2z"/>
	<path class="st24" d="M154,8.9C78.5,8.9,18,24.3,18,43.5c0,19.1,61,34.6,136,34.6c75,0,136-15.5,136-34.6C290,24.4,229,8.9,154,8.9
		 M18.9,43.9c0-4,2.6-8.1,8.1-11.9C46.5,18.7,97.5,9.7,153.8,9.6C228.3,9.3,289,24.4,289.1,43.1c0,4-2.8,8-8.3,11.8
		c-19.5,13.3-70.3,22.4-126.6,22.5C79.7,77.7,19,62.6,18.9,43.9 M289.2,40.8c0,0.2,0.1,0.3,0.1,0.5C289.3,41.2,289.2,41,289.2,40.8"
		/>
	
		<linearGradient id="SVGID_00000127750445373339950580000006208967835130642071_" gradientUnits="userSpaceOnUse" x1="-5273.0366" y1="-308.5718" x2="-5272.7729" y2="-308.5718" gradientTransform="matrix(-88.4134 -329.9634 329.9634 -88.4134 -364272.9062 -1767091.625)">
		<stop  offset="0" style="stop-color:#A5A5A6"/>
		<stop  offset="0.35" style="stop-color:#D7D7D7"/>
		<stop  offset="0.65" style="stop-color:#D7D7D7"/>
		<stop  offset="1" style="stop-color:#A5A5A6"/>
	</linearGradient>
	<path style="fill:url(#SVGID_00000127750445373339950580000006208967835130642071_);" d="M18.4,43.5c0,0.9,0.2,1.8,0.4,2.7
		c-0.2-0.8-0.3-1.5-0.3-2.3c0-4.1,2.7-8.2,8.3-12.1c19.6-13.4,70.7-22.4,127-22.6c7.8,0,15.5,0.1,22.9,0.4
		c-7.6-0.3-15.1-0.5-22.7-0.5C78.8,9.2,18.4,24.5,18.4,43.5z"/>
	
		<linearGradient id="SVGID_00000067235172458516094520000000771211666145843852_" gradientUnits="userSpaceOnUse" x1="-4397.7856" y1="-428.9893" x2="-4400.5708" y2="-418.5959" gradientTransform="matrix(8.6315 0 0 -8.6315 38167.1133 -3652.5713)">
		<stop  offset="0" style="stop-color:#A5A5A6"/>
		<stop  offset="0.35" style="stop-color:#D7D7D7"/>
		<stop  offset="0.65" style="stop-color:#D7D7D7"/>
		<stop  offset="1" style="stop-color:#A5A5A6"/>
	</linearGradient>
	<path style="fill:url(#SVGID_00000067235172458516094520000000771211666145843852_);" d="M281.1,55.1
		c-19.5,13.3-70.6,22.4-126.9,22.6c-7.8,0-15.6-0.1-23.4-0.4c7.5,0.3,15.2,0.5,23.1,0.5c74.8,0,135.6-15.5,135.6-34.3
		c0-0.7-0.1-1.4-0.3-2.1c0.1,0.6,0.2,1.2,0.2,1.8C289.6,47.2,286.7,51.3,281.1,55.1"/>
	<path class="st27" d="M154,13.2c-70.9,0-128.4,13.6-128.4,30.3c0,16.7,57.5,30.3,128.4,30.3c70.9,0,128.4-13.6,128.4-30.3
		C282.3,26.8,224.9,13.2,154,13.2L154,13.2z M154,71.2c-68.4,0-123.9-12.4-123.9-27.7c0-15.3,55.4-27.7,123.9-27.7
		c68.4,0,123.9,12.4,123.9,27.7C277.8,58.8,222.4,71.2,154,71.2L154,71.2z"/>
	<path class="st27" d="M233.9,33.6c0.2-0.2,0-0.4-0.4-0.4c-2.1,0-4.7,0-6.9,0c-0.5,0-0.8,0-1,0.4c-0.8,1-10.4,10.8-12.2,12.7
		c-0.3,0.3-0.7,0.3-0.7-0.1c-0.2-1.1-1.6-2.4-3.9-3c-1.7-0.5-3.4-0.6-5.2-0.4c-3.2,0.3-6,1.4-8.5,2.7c-3.7,1.9-7,4.4-11.1,6.3
		c-2.3,1-5.4,1.9-7.5,0.6c-1.9-1.2-1.7-3.8,1.2-5.8c0.3-0.2,0.7,0,0.6,0.2c-0.3,0.9,0.1,1.8,1.1,2.5c1.3,0.8,3.1,0.9,4.6,0.3
		c1.8-0.6,2.9-1.8,3.2-3.1c0.5-2.1-1.9-3.9-4.8-4c-2.4-0.1-4.7,0.4-6.9,1.7c-1.1,0.6-1.8,1.1-2.7,2c-0.2,0.2-0.6,0.3-0.6-0.1
		c0.1-2.7-1.5-4.1-4.7-4.2c-2.5,0-5.2,0.9-7.3,2c-2.3,1.2-4.3,2.9-6.4,4.5c-0.3,0.2-0.5,0.2-0.6-0.2c-0.1-1.8-0.7-3.5-1.9-4.7
		c-0.4-0.4-1.3-0.6-2.1-0.3c-0.3,0.1-1.6,0.5-2.4,1c-0.4,0.2-0.6,0.6-0.4,1c1.2,2.6,0.9,5.6-0.7,8.1c-1.4,2.3-4.2,4.4-7.5,5.1
		c-2.2,0.5-4.4,0.2-5.8-1.1c-1.9-1.8-1.1-4.9,1.7-7.5c2.5-2.3,6.2-3.7,9.8-4.7c0.4-0.1,0.5-0.3,0.4-0.5c-0.2-0.4-0.5-1-0.6-1.2
		c-0.3-0.6-1.3-0.7-2.4-0.6c-2.6,0.2-5,0.8-7.4,1.7c-6.2,2.2-9.3,6.6-10.6,8.9c-0.7,1.1-1.2,1.8-1.9,2.4c-1,0.8-2.2,1.6-4.4,2.9
		c-0.2,0.1-0.3,0.4-0.2,0.6c0.2,0.3,1.4,1.4,1.7,1.5c0.4,0.1,0.8,0,1-0.1c1.6-0.7,3.4-1.9,4.3-2.6c0.3-0.3,0.7-0.2,0.8,0.2
		c0.9,2.1,3.1,3.8,6.2,4.5c5.7,1.3,11.5-0.6,16-3.8c2.8-2.1,3.8-3.4,4.9-4.3c1.8-1.5,5.4-5,9.7-7.2c1.6-0.8,3.4-1.4,4.4-1
		c0.8,0.3,1,1.1-0.2,2.6c-4.4,5.4-10.8,11.8-12,13.3c-0.2,0.3,0,0.5,0.4,0.5c2.3,0,4.6,0,6.6,0c0.3,0,0.5-0.1,0.7-0.3
		c3.4-3.6,6.5-7,9.9-10.5c0.2-0.2,0.4,0,0.4,0c0.1,0.8,0.4,1.9,1.1,2.7c1.3,1.4,3.1,1.9,5.1,1.9c1.6,0,2.4-0.2,4.1-0.6
		c1.2-0.3,2.4-0.7,3.4-1.2c0.5-0.2,0.6,0.2,0.6,0.2c-0.8,2.8,0.2,6.2,4.3,7.6c5,1.7,10.4-0.7,13.6-2.8c0.3-0.2,0.6-0.2,0.7,0.3
		c0.1,0.8,0.6,1.8,1.6,2.4c2.6,1.8,7.9,1.1,13.3-1.7c3.4-1.8,7-4.3,10.3-7c0.1-0.1,0.2-0.3,0-0.4c-0.5-0.3-1.2-0.7-1.7-1.1
		c-0.2-0.1-0.5-0.1-0.7,0c-3.3,2.1-6.3,4.6-10.6,6.6c-1.5,0.7-3.8,1.2-4.8,0.3c-0.4-0.4-0.4-0.9,0-1.6
		C213,55.4,232.9,34.8,233.9,33.6 M207.6,50.8c0,0.2,0.3,0.3,0.6,0.4c0.1,0,0.2,0.1,0,0.2c-0.8,1.2-1.6,1.9-2.7,3
		c-1,1-2.1,1.8-3.4,2.5c-2,1.1-4.8,2.4-7.1,1.5c-1-0.4-1.5-1.3-1.4-2.1c0.1-2.2,1.5-4.5,4.2-6.7c3.3-2.7,6.9-4.1,9.3-3.4
		c2.5,0.8,1.7,2.7,0.6,4.2C207.5,50.6,207.5,50.7,207.6,50.8"/>
	<path class="st27" d="M89.4,62.5c-7.4,0-14-3.1-14.7-8.5c-0.4-3,0.8-5.6,3.3-7.8c2.2-2,6-3.6,9.1-4c1-0.1,2.4,0,3,0.4
		c0.9,0.7,0.6,1.5-0.3,1.8c-2.4,0.8-5.3,2.3-6.8,4.2c-1.2,1.6-1.4,3.5,0.4,5.4c3,3.1,11.3,3.1,19-1.7c1.9-1.2,3.6-2.3,5.4-3.7
		c3.4-2.6,4.5-3.6,9.1-7.9c0.1,0,0.1-0.1,0-0.1c0-0.1-0.1-0.1-0.2-0.1c-3,0.1-5.7,0.7-8.2,2c-0.7,0.4-1.8,0.3-2.3-0.2
		c-0.5-0.5-0.1-1.2,0.7-1.6c4.1-1.9,8.6-2.3,13.2-2.8c0,0,0.3,0,0.6-0.2c1.9-1.6,3.3-3.1,5.3-4.8c2-1.7,4.6-3.2,6.6-4.4
		c2.8-1.6,4.6-2.2,6.4-2.8c0.5-0.2-0.1-0.4-0.2-0.4c-10.2-1.3-20.7-3-30.8-0.4c-7,1.8-10.1,5.5-8.6,8c1,1.8,4.5,2.1,7.7,1
		c2.8-0.9,5.2-2.4,6.9-4.2c1-1,3.1-0.3,1.9,1.5c-3,4.7-8.6,8.4-15.5,8.6c-5.8,0.1-9.6-2.8-9.6-6.4c0-7.1,11.7-11.8,23.9-12.5
		c14.7-0.8,28.7,1.8,43.4,3c11.2,0.9,22,0.9,33.2-0.8c1.3-0.2,2.3,0.4,2.2,1.3c-0.1,1.3-1.6,2.6-5.3,4c-4.2,1.6-8.6,2-13.3,2.1
		c-11.2,0.1-21.6-2.9-32.3-4.5c0,0.3,0.1,0.7-0.3,0.9c-6,3-11.3,6-15,10.3c-0.1,0.1-0.1,0.2,0.2,0.2c3.1-0.1,6-0.2,8.9-0.3
		c0.5,0,0.5-0.1,0.5-0.4c-0.3-1.5,0.4-3.1,2.3-4.3c1.9-1.2,4.4-1.3,6-0.5c1.8,1,1.7,2.7,0.7,4c-1,1.3-2.7,2-4.3,2.4
		c0,0-0.3,0.1-0.3,0.3c0.1,0.3,2.3,1.2,2.5,1.4c0.2,0.2,0.1,0.5-0.2,0.8c-0.2,0.2-0.6,0.4-1.1,0.3c-0.4,0-0.6-0.1-1.1-0.3
		c-1-0.4-2.2-1-3.1-1.7c-0.3-0.2-0.4-0.2-1.1-0.2c-3.2,0.1-8.1,0.4-11.4,0.7c-0.8,0.1-0.9,0.2-1.1,0.4c-5.3,6-11,12.4-17.3,16.7
		C100.9,61.3,95.3,62.5,89.4,62.5 M140.2,36.1c0.1,0.3,0.3,0.4,0.5,0.3c1-0.1,2.1-0.7,2.8-1.4c0.6-0.6,0.9-1.5,0.3-1.8
		c-0.5-0.3-1.4-0.2-2,0.2C140.4,34.2,140,35.3,140.2,36.1"/>
</g>
</svg>
