<?xml version="1.0" encoding="utf-8"?>
<!-- Generator: Adobe Illustrator 25.4.1, SVG Export Plug-In . SVG Version: 6.00 Build 0)  -->
<svg version="1.1" id="Layer_1" xmlns="http://www.w3.org/2000/svg" xmlns:xlink="http://www.w3.org/1999/xlink" x="0px" y="0px"
	 viewBox="0 0 499.6 311.8" enable-background="new 0 0 499.6 311.8" xml:space="preserve">
<path fill="#FFFFFF" d="M471.2,311.8H28.4C12.7,311.8,0,299.1,0,283.4v-255C0,12.7,12.7,0,28.4,0h442.8c15.7,0,28.4,12.7,28.4,28.4
	v254.9C499.6,299.1,486.9,311.8,471.2,311.8z"/>
<g>
	<rect x="17.6" y="132.3" fill="none" width="1.4" height="101.7"/>
	<rect x="17.4" y="208.4" fill="#FFFFFF" width="1.8" height="0.5"/>
	<rect x="17.4" y="182.8" fill="#FFFFFF" width="1.8" height="0.5"/>
</g>
<rect x="17.4" y="150.9" fill="#FFFFFF" width="1.8" height="0.4"/>
<g>
	<path fill="#FFFFFF" d="M16.2,273.4h3.5v0.8h-4.5l-0.1-7.2h1L16.2,273.4z"/>
	<path fill="#FFFFFF" d="M22.9,274.2c-0.8,0-1.4-0.2-1.8-0.7s-0.7-1.1-0.7-1.9v-0.2c0-0.8,0.2-1.4,0.6-1.9s1-0.8,1.6-0.8
		c0.7,0,1.3,0.2,1.6,0.7c0.4,0.4,0.5,1,0.6,1.8v0.5h-3.4l0,0c0,0.5,0.1,1,0.4,1.3c0.2,0.3,0.6,0.5,1.1,0.5c0.3,0,0.6-0.1,0.9-0.1
		c0.2-0.1,0.5-0.2,0.6-0.4l0.4,0.6c-0.2,0.2-0.4,0.3-0.8,0.5C23.7,274.1,23.3,274.2,22.9,274.2z M22.7,269.4c-0.3,0-0.6,0.1-0.8,0.4
		c-0.2,0.3-0.4,0.6-0.4,1l0,0h2.4v-0.1c0-0.4-0.1-0.7-0.3-1C23.4,269.6,23.1,269.4,22.7,269.4z"/>
	<path fill="#FFFFFF" d="M29.3,274.1c0-0.2-0.1-0.3-0.1-0.4s0-0.2,0-0.4c-0.2,0.3-0.4,0.5-0.7,0.7c-0.3,0.2-0.6,0.3-0.9,0.3
		c-0.6,0-1-0.1-1.3-0.4s-0.4-0.7-0.5-1.2c0-0.5,0.2-0.9,0.6-1.2c0.4-0.3,1-0.4,1.7-0.4h1.1v-0.5c0-0.3-0.1-0.6-0.3-0.7
		c-0.2-0.2-0.5-0.3-0.8-0.3s-0.6,0.1-0.8,0.2c-0.2,0.2-0.3,0.4-0.3,0.6h-0.9l0,0c0-0.4,0.2-0.7,0.5-1.1c0.4-0.3,0.9-0.5,1.5-0.5
		s1.1,0.1,1.5,0.4s0.6,0.7,0.6,1.3v2.6c0,0.2,0,0.4,0,0.6s0.1,0.4,0.1,0.5L29.3,274.1z M27.7,273.4c0.4,0,0.7-0.1,1-0.3
		c0.3-0.2,0.5-0.4,0.6-0.6v-0.9h-1.1c-0.4,0-0.7,0.1-0.9,0.3c-0.2,0.2-0.4,0.4-0.3,0.7c0,0.2,0.1,0.4,0.2,0.6
		C27.2,273.3,27.4,273.4,27.7,273.4z"/>
	<path fill="#FFFFFF" d="M34.1,269.5h-0.5c-0.3,0-0.5,0.1-0.7,0.2s-0.3,0.3-0.4,0.5v3.8h-1v-5.4h0.9l0.1,0.8
		c0.1-0.3,0.3-0.5,0.6-0.7c0.2-0.2,0.5-0.2,0.8-0.2c0.1,0,0.1,0,0.2,0c0.1,0,0.1,0,0.2,0L34.1,269.5z"/>
	<path fill="#FFFFFF" d="M36,268.6l0.1,0.8c0.2-0.3,0.4-0.5,0.7-0.7s0.6-0.2,0.9-0.2c0.6,0,1,0.2,1.3,0.5s0.5,0.9,0.5,1.6v3.4h-1
		v-3.4c0-0.5-0.1-0.8-0.3-1s-0.5-0.3-0.9-0.3c-0.3,0-0.6,0.1-0.8,0.2s-0.4,0.3-0.5,0.5v4h-1v-5.4H36z"/>
	<path fill="#FFFFFF" d="M44.3,268.6l0.1,0.7c0.2-0.3,0.4-0.5,0.7-0.6s0.6-0.2,0.9-0.2c0.4,0,0.7,0.1,0.9,0.2
		c0.3,0.2,0.5,0.4,0.6,0.7c0.2-0.3,0.4-0.6,0.7-0.7c0.3-0.2,0.6-0.3,1-0.3c0.5,0,1,0.2,1.3,0.5c0.3,0.4,0.5,0.9,0.5,1.7v3.2h-1v-3.2
		c0-0.5-0.1-0.9-0.3-1.1s-0.5-0.3-0.8-0.3s-0.6,0.1-0.8,0.4c-0.2,0.2-0.3,0.5-0.4,0.9l0,0v3.4h-1v-3.2c0-0.5-0.1-0.9-0.3-1.1
		s-0.5-0.3-0.8-0.3s-0.5,0.1-0.7,0.2s-0.3,0.3-0.4,0.5v4h-1v-5.4L44.3,268.6z"/>
	<path fill="#FFFFFF" d="M52.1,271.1c0-0.8,0.2-1.4,0.6-2c0.4-0.5,1-0.8,1.7-0.8s1.3,0.2,1.8,0.8c0.4,0.5,0.7,1.2,0.7,2v0.1
		c0,0.8-0.2,1.5-0.6,2c-0.4,0.5-1,0.8-1.7,0.8s-1.3-0.2-1.8-0.7c-0.4-0.5-0.7-1.2-0.7-2V271.1z M53.1,271.2c0,0.6,0.1,1,0.4,1.4
		c0.2,0.4,0.6,0.5,1.1,0.5s0.8-0.2,1.1-0.6c0.2-0.4,0.4-0.8,0.3-1.4V271c0-0.6-0.1-1-0.4-1.4c-0.2-0.4-0.6-0.6-1.1-0.5
		c-0.5,0-0.8,0.2-1.1,0.6c-0.2,0.4-0.4,0.8-0.3,1.4V271.2z"/>
	<path fill="#FFFFFF" d="M60.6,269.3h-0.5c-0.3,0-0.5,0.1-0.7,0.2s-0.3,0.3-0.4,0.5v3.8h-1v-5.4h0.9l0.1,0.8
		c0.1-0.3,0.3-0.5,0.6-0.7c0.2-0.2,0.5-0.2,0.8-0.2c0.1,0,0.1,0,0.2,0c0.1,0,0.1,0,0.2,0L60.6,269.3z"/>
	<path fill="#FFFFFF" d="M63.8,273.8c-0.8,0-1.4-0.2-1.8-0.7c-0.4-0.5-0.7-1.1-0.7-1.9V271c0-0.8,0.2-1.4,0.6-1.9
		c0.4-0.5,1-0.8,1.6-0.8c0.7,0,1.3,0.2,1.6,0.7c0.4,0.4,0.5,1,0.6,1.8v0.5h-3.4l0,0c0,0.5,0.1,1,0.4,1.3c0.2,0.3,0.6,0.5,1.1,0.5
		c0.3,0,0.6-0.1,0.9-0.1c0.2-0.1,0.5-0.2,0.6-0.4l0.4,0.6c-0.2,0.2-0.4,0.3-0.8,0.5C64.6,273.8,64.2,273.8,63.8,273.8z M63.6,269.1
		c-0.3,0-0.6,0.1-0.8,0.4s-0.4,0.6-0.4,1l0,0h2.4v-0.1c0-0.4-0.1-0.7-0.3-1C64.3,269.2,64,269.1,63.6,269.1z"/>
</g>
<g>
	<g>
		<path fill="#4487F2" d="M321.8,79.7l-9.8,4.9l-4.9,10.9l4.9,6l2.9,1.5l9.4-7.6l0.5-14.3L321.8,79.7z M316.9,94.4
			c-2,1-3.7,0.2-3.7-1.9c0-2,1.7-4.5,3.7-5.6c2-1,3.7-0.2,3.7,1.9S319,93.3,316.9,94.4z"/>
		<path fill="#70A5F2" d="M324.8,81.2l-9.8,4.9L310,97l4.9,6l9.8-4.9l4.9-10.9L324.8,81.2z M319.9,95.8c-2,1-3.7,0.2-3.7-1.9
			c0-2,1.7-4.5,3.7-5.6c2-1,3.7-0.2,3.7,1.9S321.9,94.8,319.9,95.8z"/>
		<polygon fill="#9DC9FC" points="312,84.6 314.9,86.1 324.8,81.2 321.8,79.7 		"/>
		<polygon fill="#346EE3" points="307.1,95.6 310,97 314.9,103.1 312,101.6 		"/>
	</g>
	<g>
		<g>
			<path fill="#EEF5FA" d="M238.8,231.8c0,0.2,0.2,0.3,0.4,0.2s0.4-0.4,0.4-0.7c0-0.2-0.2-0.3-0.4-0.2
				C239,231.2,238.8,231.5,238.8,231.8z"/>
			<path fill="#346EE3" d="M239.1,231.9c0.2-0.1,0.4-0.4,0.4-0.7c0-0.1,0-0.1,0-0.1c0.1,0,0.1,0.1,0.1,0.3s-0.2,0.5-0.4,0.7
				c-0.2,0.1-0.3,0.1-0.4-0.1C238.9,231.9,239,231.9,239.1,231.9z"/>
		</g>
		<g>
			<path fill="#EEF5FA" d="M238.8,233.2c0,0.2,0.2,0.3,0.4,0.2s0.4-0.4,0.4-0.7c0-0.2-0.2-0.3-0.4-0.2S238.8,232.9,238.8,233.2z"/>
			<path fill="#346EE3" d="M239.1,233.3c0.2-0.1,0.4-0.4,0.4-0.7c0-0.1,0-0.1,0-0.1c0.1,0,0.1,0.1,0.1,0.3s-0.2,0.5-0.4,0.7
				c-0.2,0.1-0.3,0.1-0.4-0.1C238.9,233.4,239,233.4,239.1,233.3z"/>
		</g>
		<g>
			<path fill="#EEF5FA" d="M238.8,234.6c0,0.2,0.2,0.3,0.4,0.2s0.4-0.4,0.4-0.7c0-0.2-0.2-0.3-0.4-0.2
				C239,234.1,238.8,234.4,238.8,234.6z"/>
			<path fill="#346EE3" d="M239.1,234.7c0.2-0.1,0.4-0.4,0.4-0.7c0-0.1,0-0.1,0-0.1c0.1,0,0.1,0.1,0.1,0.3s-0.2,0.5-0.4,0.7
				c-0.2,0.1-0.3,0.1-0.4-0.1C238.9,234.8,239,234.8,239.1,234.7z"/>
		</g>
	</g>
	<g>
		<g>
			<polygon fill="#F67B55" points="239.5,235.9 218.9,246.2 198.2,235.9 198.2,234.5 239.5,234.5 			"/>
			<polygon fill="#F6AD55" points="239.5,234.5 218.9,244.9 198.2,234.5 218.9,224.2 			"/>
		</g>
		<g>
			<path fill="#F1F2F2" d="M221.6,211.3h-5.4l-7.2,22.3c0,1.3,1,2.5,2.9,3.5c3.9,1.9,10.1,1.9,14,0c1.9-1,2.9-2.2,2.9-3.5
				L221.6,211.3z"/>
			<path fill="#F6AD55" d="M221.6,211.3h-5.4l-3.9,12.1c0.1,0.8,0.7,1.6,1.9,2.2c2.6,1.3,6.8,1.3,9.4,0c1.2-0.6,1.8-1.4,1.9-2.2
				L221.6,211.3z"/>
			<path fill="#F1F2F2" d="M223.2,216.2c-0.1,0.5-0.5,0.9-1.2,1.3c-1.7,0.9-4.5,0.9-6.2,0c-0.7-0.4-1.1-0.8-1.2-1.3l-2.3,7.2
				c0.1,0.8,0.7,1.6,1.9,2.2c2.6,1.3,6.8,1.3,9.4,0c1.2-0.6,1.8-1.4,1.9-2.2L223.2,216.2z"/>
			<path fill="#F6AD55" d="M224.3,219.7c-0.1,0.6-0.6,1.2-1.5,1.6c-2.1,1.1-5.6,1.1-7.8,0c-0.9-0.5-1.4-1-1.5-1.6l-1.2,3.7
				c0.1,0.8,0.7,1.6,1.9,2.2c2.6,1.3,6.8,1.3,9.4,0c1.2-0.6,1.8-1.4,1.9-2.2L224.3,219.7z"/>
			<path fill="#F6AD55" d="M226.6,226.8c0,1-0.8,1.9-2.3,2.6c-3,1.5-7.9,1.5-10.9,0c-1.5-0.7-2.2-1.7-2.3-2.6l-2.2,6.7
				c0,1.3,1,2.5,2.9,3.5c3.9,1.9,10.1,1.9,14,0c1.9-1,2.9-2.2,2.9-3.5L226.6,226.8z"/>
			<path fill="#F1F2F2" d="M227.8,230.6c-0.1,1.1-0.9,2.2-2.6,3c-3.5,1.7-9.2,1.7-12.7,0c-1.7-0.8-2.5-1.9-2.6-3l-1,3
				c0,1.3,1,2.5,2.9,3.5c3.9,1.9,10.1,1.9,14,0c1.9-1,2.9-2.2,2.9-3.5L227.8,230.6z"/>
			<path fill="#F1F2F2" d="M220.8,210.3c1.1,0.5,1.1,1.4,0,1.9s-2.8,0.5-3.8,0c-1.1-0.5-1.1-1.4,0-1.9
				C218,209.8,219.7,209.8,220.8,210.3z"/>
		</g>
	</g>
	<g>
		<g>
			<path fill="#2D61B3" d="M401.2,205.3v-5.9l-5.5,1.1c0,0-5.2,0.2-2.5-2.7v-3.2c-3.8,1.6-4.8,3.6-11.4,3.2l-0.3-2.2
				c-1.6-0.1-3.1-0.1-4.7,0c-0.5,3.3,0.9,1.6-5.2,2.8l-6.5-3.8v3.2c2.4,2.5,2.3,1.6,0,2.8s-3,0-8-1.2v6.3c-0.6-0.1-1.2-0.1-2.1-0.1
				c-0.1,0.8-0.2,5.7,0,6.5l2.1,0.1v3.8c0.7,0.7,1.4,1.4,2.4,2c2.6-0.6,3.4-0.9,3.8-0.9c0.6,0.1,1.8,0.5,1.8,0.5v3.2
				c1.3,0.5,2.7,0.9,4.1,1.2c1.7-1.2,2-1.6,2.4-1.7c0.6-0.1,1.3,0.3,4.9,0.6l0.3,2.2c1.6,0.1,3.1,0.1,4.7,0c0.2-1.4,0.1-1.9,0.4-2.1
				c0.4-0.2,1.4,0,4.9-0.7l2.5,1.8c1.4-0.3,2.8-0.7,4.1-1.2l0.1-2.8c1.2-0.6,1.3-0.9,1.8-0.9s1.3,0.3,3.8,0.9c0.9-0.6,1.7-1.3,2.4-2
				v-3.8c0.5,0,1.2,0,2.1-0.1v-6.5L401.2,205.3z M368.7,210.2c2.4-3.2,10.6-5.3,17.4-2.4c1.4,0.7,2.4,1.4,3,2.1
				C393.6,215,367.5,211.9,368.7,210.2z"/>
			<path fill="#244F99" d="M390.1,197.9l-5.5-0.2c-0.8,0-1.7,0-2.8,0v-0.1l-5.2-0.2c-0.2,0.6-0.8,0.1-5,1l-1.5-0.9l-4.2,5.5
				l2.9,10.8c2.4-3.2,10.6-5.3,17.4-2.4c1.4,0.7,2.4,1.4,3,2.1c0.1,0.1,0.1,0.2,0.2,0.2l4-8.7L390.1,197.9z"/>
			<polygon fill="#244F99" points="359.3,211.5 359.3,218 363.2,217.1 363.2,210.6 			"/>
			<polygon fill="#244F99" points="369,215.5 369,222 371.5,220.2 371.5,213.7 			"/>
			<polygon fill="#244F99" points="381.4,223 381.4,216.5 381.7,214.5 381.8,220.9 			"/>
			<polygon fill="#244F99" points="386.7,213.7 389.1,215.5 389.1,222 386.7,220.2 			"/>
			<polygon fill="#244F99" points="394.9,210.6 394.9,217.1 398.8,218 398.8,211.5 			"/>
			<polygon fill="#244F99" points="399,205.8 399,208.7 401.2,209.4 401.2,212.1 403.3,212.1 403.3,205.6 			"/>
			<polygon fill="#2D61B3" points="393.3,217.9 393.2,214.3 391.5,212.3 394.9,210.6 395.1,217.1 			"/>
			<polygon fill="#244F99" points="376.7,216.5 376.4,214.3 376.4,220.8 376.7,223 			"/>
			<polygon fill="#2D61B3" points="364.9,214.3 366.8,212.3 363.2,210.6 363.2,217.1 364.9,217.6 			"/>
			<polygon fill="#244F99" points="359.2,205.7 354.9,205.6 354.9,212.1 356.9,212.2 356.9,209.4 359.3,208.6 			"/>
		</g>
		<path fill="#F6AD55" d="M359.3,197.3c-0.9,0.6-1.7,1.3-2.4,2l3.6,1.2c-2.5,3.1,0.9,2.4-5.6,2.6c-0.1,0.8-0.2,1.6,0,2.4l4.3,0.2
			c0.9,3.3,3.1,1.8-2.3,3.7c0.7,0.7,1.4,1.4,2.4,2c5.8-1.4,2.3-1.2,7.5,0.9l-1.9,2c1.3,0.5,2.7,0.9,4.1,1.2c3.7-2.7,0.8-1.6,7.3-1.1
			l0.3,2.2c1.6,0.1,3.1,0.1,4.7,0c0.5-3.3-0.9-1.6,5.2-2.8l2.5,1.8c1.4-0.3,2.8-0.7,4.1-1.2c-2.4-2.5-2.3-1.6,0-2.8s0.6-1.2,5.6,0
			c0.9-0.6,1.7-1.3,2.4-2l-3.6-1.2c2.5-3.1-0.9-2.4,5.6-2.6c0.2-0.8,0.2-1.6,0-2.4l-4.3-0.2c-0.9-3.3-3.1-1.8,2.3-3.7
			c-0.6-0.7-1.4-1.4-2.4-2l-3.9,0.9c-4-2.6-4.5-0.9-1.7-3.8c-1.3-0.5-2.7-0.9-4.1-1.2c-3.7,2.7-0.7,1.6-7.3,1.1l-0.3-2.2
			c-1.6-0.1-3.1-0.1-4.7,0c-0.5,3.3,0.9,1.6-5.2,2.8l-2.5-1.8c-1.4,0.3-2.8,0.7-4.1,1.2c2.4,2.5,2.3,1.6,0,2.8
			C362.6,198.5,364.3,198.5,359.3,197.3z M386.1,200c11.2,5.6-3.7,12.8-14.1,8.5c0.1,0.1-1.6-0.8-1.4-0.7
			C362.3,202.7,375.9,195.7,386.1,200z"/>
	</g>
	<g>
		<g>
			<polygon fill="#4487F2" points="334.4,189.6 334.4,234.2 332.5,233.2 332.5,188.7 			"/>
			<polygon fill="#254799" points="334.4,189.6 334.4,234.2 336.4,233.2 336.4,188.6 			"/>
		</g>
		<g>
			<polygon fill="#4487F2" points="288.3,166.7 288.3,211.3 286.4,210.3 286.4,165.7 			"/>
			<polygon fill="#254799" points="288.3,166.7 288.3,211.3 290.3,210.3 290.3,165.7 			"/>
		</g>
	</g>
	<g>
		<g>
			<polygon fill="#4487F2" points="415.4,155.2 415.4,193.6 413.5,192.6 413.5,154.2 			"/>
			<polygon fill="#254799" points="415.4,155.2 415.4,193.6 417.4,192.6 417.4,154.2 			"/>
		</g>
		<g>
			<polygon fill="#4487F2" points="369.4,132.3 369.4,170.6 367.4,169.7 367.4,131.3 			"/>
			<polygon fill="#254799" points="369.4,132.3 369.4,170.6 371.3,169.7 371.3,131.3 			"/>
		</g>
	</g>
	<g>
		<g>
			<g>
				<path fill="#1F3B80" d="M224.2,162.8l-5.6-2.6c-3.1-1.4-7.3-1.1-11.9,1.2c-9.5,4.8-17.3,16.4-17.3,25.9c0,4.2,1.5,7.2,4,8.9
					l5.9,3l1-1.5c2-0.2,4.2-0.8,6.5-2c9.5-4.8,17.3-16.4,17.3-25.9c0-2.1-0.4-3.9-1.1-5.4L224.2,162.8z"/>
				<path fill="#9DC9FC" d="M224.6,174.8c0,7.1-5.8,15.8-12.9,19.4c-7.1,3.6-12.9,0.7-12.9-6.4c0-7.1,5.8-15.8,12.9-19.4
					C218.9,164.8,224.6,167.7,224.6,174.8z"/>
				<path fill="#254799" d="M211.7,163.7c-9.5,4.8-17.3,16.4-17.3,25.9s7.7,13.4,17.3,8.6c9.5-4.8,17.3-16.4,17.3-25.9
					S221.2,158.9,211.7,163.7z M211.6,193.2c-6.7,3.4-12.2,0.6-12.2-6.1c0-6.7,5.5-14.9,12.2-18.3c6.7-3.4,12.2-0.6,12.2,6.1
					C223.8,181.7,218.4,189.8,211.6,193.2z"/>
				<g>
					<path fill="#1F3B80" d="M209.2,183.3c-0.1-0.2-0.2-0.5-0.2-0.9c0,0,0,0,0-0.1l-5.7,1.6c-0.5,0.1-1,0.8-1,1.3c0,0.2,0,0.5,0,0.7
						c0,2.2,0.8,3.9,2.1,4.8c0.3,0.2,1-0.1,1.3-0.7l3.5-5.9C209.3,183.9,209.4,183.5,209.2,183.3z"/>
					<path fill="#1F3B80" d="M203.6,182.7l5.3-1.8c0.3-0.1,0.5-0.3,0.7-0.6c0.1-0.2,0.2-0.3,0.3-0.4c0.2-0.3,0.3-0.6,0.3-0.8
						l0.2-5.5c0-0.6-0.5-0.8-1-0.4c-2.9,2.1-5.4,5.4-6.5,8.6C202.8,182.4,203.1,182.9,203.6,182.7z"/>
					<path fill="#1F3B80" d="M211.9,183.3c-0.2,0.1-0.3,0.2-0.5,0.3s-0.4,0.2-0.6,0.2l-4.4,6.6c-0.4,0.6-0.3,1.2,0.1,1.3
						c1.4,0.2,3.1-0.1,5-1c1.3-0.7,2.6-1.6,3.7-2.6c0.5-0.5,0.7-1.2,0.3-1.5L211.9,183.3z"/>
					<path fill="#1F3B80" d="M220.6,174.6c-0.1-0.5-0.7-0.4-1.2,0l-5.5,5.2v0.1c0,0.4-0.1,0.8-0.3,1.2c-0.1,0.3-0.1,0.7,0,0.8
						l2.8,3.5c0.3,0.3,0.9,0.1,1.3-0.4c1.9-2.7,3.1-5.7,3.1-8.4C220.9,175.9,220.8,175.2,220.6,174.6z"/>
					<path fill="#1F3B80" d="M212.7,178.4L212.7,178.4c0.2,0,0.5-0.1,0.7-0.3l5.4-4.5c0.5-0.4,0.8-1.2,0.5-1.5
						c-1.4-1.3-3.6-1.7-6.1-0.9c-0.5,0.2-1,0.9-1,1.4l0.1,5.2C212.2,178.2,212.4,178.4,212.7,178.4z"/>
				</g>
				<path fill="#346EE3" d="M216.2,179c0,2.6-2.1,5.8-4.7,7.1c-2.6,1.3-4.7,0.2-4.7-2.4c0-2.6,2.1-5.8,4.7-7.1
					C214.1,175.4,216.2,176.4,216.2,179z"/>
				<path fill="#FFFFFF" d="M213.9,180.1c0,1.3-1.1,3-2.4,3.7c-1.3,0.7-2.4,0.1-2.4-1.2s1.1-3,2.4-3.7
					C212.8,178.3,213.9,178.8,213.9,180.1z"/>
				<g>
					<path fill="#346EE3" d="M211.6,168.2c-7.1,3.6-12.9,12.2-12.9,19.3s5.8,10,12.9,6.4c7.1-3.6,12.9-12.2,12.9-19.3
						C224.5,167.5,218.7,164.6,211.6,168.2z M211.6,193.1c-6.7,3.3-12,0.6-12-6c0-6.7,5.4-14.7,12-18.1c6.7-3.3,12.1-0.6,12.1,6
						C223.7,181.7,218.3,189.8,211.6,193.1z"/>
				</g>
			</g>
		</g>
		<g>
			<path fill="#346EE3" d="M216.8,140l5.1,3.5l1-1.4c0.7-1.1,0.4-2.6-0.6-3.3L221,138c-1.1-0.7-2.6-0.4-3.3,0.6L216.8,140z"/>
			<g>
				<path fill="#9DC9FC" d="M234.2,187.9c-0.1,0.2-0.3,0.6-0.6,0.9c-1,0.8-3.3,1.7-2.6,2.2c0.9,0.6,3.7,0,4.6-0.6
					c0.6-0.4,0.3-2.5,0.3-2.5L234.2,187.9z"/>
				<path fill="#9DC9FC" d="M251.3,187.3c0,0.2,0.1,0.7-0.1,1.1c-0.5,1.2-1.9,3.2-1,3.2c1.1,0.1,3.1-2,3.6-2.9c0.3-0.6-1-2.3-1-2.3
					L251.3,187.3z"/>
				<path fill="#254799" d="M240.2,160c1.3,3.2-5.7,15.6-5.5,16s0.8,1.4,1.2,3.1c0.4,1.7,0.9,8.3,0.3,8.9c-0.6,0.5-2,0.4-2,0.4
					s-2.8-12.1-2.9-12.7c-0.1-0.7,3.3-14.9,3.4-16.1S240.2,160,240.2,160z"/>
				<path fill="#254799" d="M242.7,156.8c2.2,2.9,3.9,13.7,4.4,14.5s1.8,1.4,3.3,5.3c1.5,3.9,2.7,9.6,2.7,9.6s-1.3,1.1-1.8,1.2
					c0,0-6.8-13.2-7.3-14.4c-0.6-1.2-7.5-13.7-7.5-13.7L242.7,156.8z"/>
				<g>
					<path fill="#F5AC7F" d="M208.5,159.9c1-0.5,3.2-0.5,3.2-0.5l-0.3,1c-1.2,0.8-2,1.1-2.4,1.2c-0.5,0,0.6-0.7,0.6-0.7
						s-0.9-0.1-1.6,0.1C207,161.3,207.8,160.3,208.5,159.9z"/>
					<path fill="#F5AC7F" d="M216.3,160.3c1.9,0.3,2.1,0.5,2.1,0.5l0.6,0.9c-0.7,0.3-1.5,0-2-0.2c-0.4-0.1-0.8-0.3-1.5-0.3
						C214.5,161.2,215.5,160.2,216.3,160.3z"/>
					<path fill="#9DC9FC" d="M211,159.4c3.1-1.9,7.2-3.3,7.2-3.3s4-7.7,5.1-8.8c1.5-1.5,2.1,3,1.8,3.9s-3.9,6.3-4.7,6.7
						c-0.7,0.5-4.4,2-9,2.4C211.2,160.4,211,159.4,211,159.4z"/>
					<path fill="#70A5F2" d="M226.8,145.8c2.6,0,4.3,3.9,8.7,5.9c1.4,0.6,6.3,3.5,6.9,5.2c0.6,1.7-5.1,4.7-8,4.7c0,0,0-0.5-3.5-3
						c-2.3-1.7-6-3.5-7.2-6.7c-0.7-1.9-1-3.3-0.9-3.7C223.1,147,225.2,145.8,226.8,145.8z"/>
					<path fill="#254799" d="M223.5,151.8c1.2,3.2,4.9,5,7.2,6.7c3.5,2.5,3.5,3,3.5,3c3,0,9.4-3.2,8.5-4.7c-1.2-1.9-5.9-4.5-7.3-5.2
						c-4.4-2-6.2-5.7-8.8-5.7c-0.3,0-0.7,0.2-0.9,0.5c-1.4,2.1,1.2,7.1-0.6,7.2c-1.4,0.1-2.5-5.5-2.5-5.5
						C222.5,148.5,222.8,149.9,223.5,151.8z M227,150.4l1.6-2.8c2.8,2.6,3.7,3.8,2.8,4.5C230.5,152.8,227,150.4,227,150.4z"/>
					<g>
						<path fill="#254799" d="M213.9,139.5c2.5-1.5,4.8-0.1,6.6,2.5c0,0-2.7,2.6-3.9,0.8C215.3,142,212.7,140.3,213.9,139.5z"/>
						<path fill="#F53B4A" d="M219.7,141.7c2.7-0.5,3.3,1.8,2.8,2.3c-0.6,0.6-1.6,0.9-2.5,0.9s-2.2-0.1-3.4-2
							C214.7,142.3,216.8,139,219.7,141.7z"/>
						<path fill="#F5AC7F" d="M220.6,145.5l2.1,2.6c0,0,1.1,3.2,1.7,3.2c0.4,0,0.7-3.8,0.8-4.8c0-0.1-0.1-0.2-0.2-0.3
							c-0.6-0.3-2.6-1.3-4-3.3C220.6,142.4,220.6,145.5,220.6,145.5z"/>
						<path fill="#F5AC7F" d="M220.5,143.2c-0.1-0.6-0.7-2-1.9-2.1c-1.4-0.1-2.6,1-1.8,3.2c0.7,1.9,2.4,4.2,3.4,4.1
							c0.9-0.1,1.2-2.5,1.1-4.1C221.4,144.4,220.9,145.1,220.5,143.2z"/>
						<path fill="#F5AC7F" d="M221.6,143.6c-0.1,0.5-0.2,1-0.5,1s-0.5-0.4-0.5-0.9s0.2-1,0.5-1C221.4,142.6,221.7,143.1,221.6,143.6
							z"/>
					</g>
					<path fill="#9DC9FC" d="M218.4,160.8c3.3-1.5,6.8-2.7,6.8-2.7s0.2-9.1,0.7-10.5c0.7-2,3.8-0.1,3.6,2.5
						c-0.1,0.9-1.3,8.4-1.7,9.2c-0.5,0.7-4.1,2.6-8.7,2.5C218.8,161.7,218.4,160.8,218.4,160.8z"/>
				</g>
			</g>
		</g>
	</g>
	<g>
		<polygon fill="#70A5F2" points="317.1,193.9 284.2,243.2 299.9,251.1 332.8,201.8 422.7,156.8 407,148.8 		"/>
		<polygon fill="#254799" points="332.8,201.8 299.9,251.1 303.6,249.3 334.3,203.2 422.7,158.9 422.7,156.8 		"/>
	</g>
	<g>
		<polygon fill="#70A5F2" points="271.2,170.8 238.3,220.1 254,228 286.9,178.7 376.8,133.7 361.1,125.8 		"/>
		<polygon fill="#254799" points="286.9,178.7 254,228 257.6,226.2 288.3,180.1 376.8,135.9 376.8,133.7 		"/>
	</g>
	<g>
		<g>
			<rect x="246.5" y="237.1" fill="#4487F2" width="9" height="11.8"/>
			<ellipse fill="#9DC9FC" cx="251" cy="237" rx="4.5" ry="2.3"/>
			<ellipse fill="#4487F2" cx="251" cy="248.8" rx="4.5" ry="2.3"/>
		</g>
		<g>
			<path fill="#254799" d="M248.5,234.5v1.7l0,0c0,0.3,0.2,0.6,0.7,0.9c1,0.5,2.6,0.5,3.5,0c0.5-0.2,0.7-0.6,0.7-0.9l0,0v-1.7H248.5
				z"/>
			<path fill="#4487F2" d="M252.8,233.6c1,0.5,1,1.3,0,1.8s-2.6,0.5-3.5,0c-1-0.5-1-1.3,0-1.8C250.2,233.1,251.8,233.1,252.8,233.6z
				"/>
		</g>
	</g>
	<g>
		<g>
			<path fill="#254799" d="M280.2,227.9l-7.4-3.7l0,0c-0.3-0.3-0.9-0.3-1.5,0l-11,5.5c-0.6,0.3-1.2,0.9-1.7,1.5l-3.4,5.1
				c-0.4,0.7-0.7,1.4-0.7,2V253c0,0.5,0.2,0.9,0.5,1.1l0,0l7.6,3.8l0.2-7.1l8.4-4.2c1.1-0.5,1.9-1.8,1.9-2.9V233L280.2,227.9z"/>
			<path fill="#4487F2" d="M264,257.8l14.8-7.4c1.1-0.5,1.9-1.8,1.9-2.9V229c0-1.1-0.9-1.5-1.9-1l-11,5.5c-0.6,0.3-1.2,0.9-1.7,1.5
				l-3.4,5.1c-0.4,0.7-0.7,1.4-0.7,2v14.7C262.1,257.9,263,258.3,264,257.8z"/>
			<path fill="#254799" d="M277.7,247.5l-2.8-2.7c-0.1-0.1-0.1-0.2-0.1-0.3v-6.6c0-0.1,0-0.3,0.1-0.4l2.8-5.5l-3.3,5.1
				c-0.1,0.2-0.3,0.3-0.4,0.4l-5,2.5c-0.2,0.1-0.3,0.1-0.4,0l-3.3-1.8l2.8,2.7c0.1,0.1,0.1,0.2,0.1,0.3v6.6c0,0.1,0,0.3-0.1,0.4
				l-2.8,5.5l3.3-5.1c0.1-0.2,0.3-0.3,0.4-0.4l5-2.5c0.2-0.1,0.3-0.1,0.4,0L277.7,247.5z M269.5,240.7l3.7-1.9
				c0.3-0.2,0.6,0,0.6,0.3v5.1c0,0.3-0.3,0.8-0.6,0.9l-3.7,1.9c-0.3,0.2-0.6,0-0.6-0.3v-5.1C268.9,241.3,269.2,240.9,269.5,240.7z"
				/>
		</g>
		<path fill="#4487F2" d="M277.7,224.9l0.7,2.1l-5.7-2.7l3-0.5l1.7,0.9C277.5,224.7,277.6,224.8,277.7,224.9z"/>
		<polygon fill="#1F3B80" points="276.8,224.3 277.5,226.6 271.8,223.9 274.9,223.4 		"/>
		<g>
			<path fill="#4487F2" d="M262.1,232.7l-1.8-1.1l-3.6,6l1.8,1.1c0.6,0.4,1.3,0.4,2.1,0c1.5-0.7,2.7-2.6,2.5-4.3
				C263.1,233.6,262.7,233,262.1,232.7z"/>
			<path fill="#9DC9FC" d="M258.2,231.6c-1.5,0.7-2.7,2.6-2.5,4.3c0.1,1.7,1.5,2.5,3,1.8s2.7-2.6,2.5-4.3
				C261.1,231.7,259.7,230.9,258.2,231.6z"/>
		</g>
		<path fill="#9DC9FC" d="M267.2,231.5l1.5-2.2c0.3-0.4,0.7-0.8,1.1-1l7-3.5c0.3-0.2,0.7-0.2,0.7-0.2l-4.5-2.2l0,0
			c-0.2-0.2-0.6-0.2-1,0l-7,3.5c-0.4,0.2-0.8,0.6-1.1,1l-2.2,3.2l4.1,2.1L267.2,231.5z"/>
		<path fill="#4487F2" d="M276.7,224.3c-0.2,0-0.4,0-0.6,0.1l-7.1,3.5c-0.4,0.2-0.8,0.6-1.1,1l-2.2,3.2l1.4-0.7l1.5-2.2
			c0.3-0.4,0.7-0.8,1.1-1l7-3.5c0.3-0.2,0.7-0.2,0.7-0.2L276.7,224.3z"/>
	</g>
	<g>
		<path fill="#1F3B80" d="M450.7,205.5v-3h34v3.2c0.1,2.3-1.5,4.6-5,6.3c-6.7,3.3-17.4,3.3-24.1,0
			C452.1,210.2,450.5,207.8,450.7,205.5z"/>
		<ellipse fill="#346EE3" cx="467.7" cy="202.5" rx="17" ry="8.5"/>
		<path fill="#F1F2F2" d="M452.7,202.7h2l0,0c0.4,0,0.7-0.1,0.7-0.3s-0.3-0.3-0.6-0.3h-2l0,0l0,0c0.2-1.8,1.7-3.4,4-4.7l0,0l1.4,0.7
			c0.1,0.1,0.3,0.1,0.5,0.1s0.3,0,0.5-0.1c0.3-0.1,0.3-0.3,0-0.5l-1.4-0.7l0,0c2.6-1.2,6-1.9,9.7-1.9l0,0v1c0,0.2,0.3,0.3,0.6,0.3
			l0,0c0.4,0,0.7-0.1,0.7-0.3v-1l0,0c3.6,0.1,6.9,0.9,9.3,2l0,0l-1.4,0.7c-0.3,0.1-0.3,0.3,0,0.5c0.1,0.1,0.3,0.1,0.5,0.1
			s0.3,0,0.5-0.1l1.4-0.7l0,0c2.3,1.3,3.7,3,3.8,4.8l0,0h-2l0,0c-0.4,0-0.7,0.1-0.7,0.3s0.3,0.3,0.6,0.3h2l0,0l0,0
			c-0.2,1.8-1.7,3.4-4,4.7l0,0l-1.4-0.7c-0.3-0.1-0.7-0.1-0.9,0c-0.3,0.1-0.3,0.3,0,0.5l1.4,0.7l0,0c-2.6,1.2-5.9,1.9-9.7,1.9l0,0
			v-1c0-0.2-0.3-0.3-0.6-0.3c-0.3,0-0.7,0.1-0.7,0.3v1l0,0c-3.6-0.1-6.8-0.9-9.3-2l0,0l1.4-0.7c0.3-0.1,0.3-0.3,0-0.5
			c-0.3-0.1-0.7-0.1-0.9,0l-1.4,0.7l0,0C454.2,206.2,452.8,204.5,452.7,202.7L452.7,202.7z"/>
		<path fill="#F53B4A" d="M461,199c0.2-0.1,0.6-0.1,0.8,0l5.6,2.9c0.8-0.2,1.8-0.1,2.4,0.2c0.8,0.4,0.8,1.1-0.1,1.5
			c-0.8,0.4-2.1,0.4-2.9,0c-0.6-0.3-0.7-0.8-0.3-1.2l-5.6-2.9C460.7,199.3,460.7,199.2,461,199z"/>
	</g>
	<g>
		<polygon fill="#FFFFFF" points="341.1,261.7 329.1,255.7 304.3,268.1 316.3,274.2 316.4,274.2 		"/>
		<polygon fill="#254799" points="305.5,268.1 329.1,256.3 339.9,261.7 316.3,273.6 		"/>
		<polygon fill="#9DC9FC" points="316.5,285.6 304.4,279.6 304.3,268.1 316.3,274.2 316.4,274.2 		"/>
		<polygon fill="#4487F2" points="341.2,273.2 316.5,285.6 316.3,274.2 341.1,261.7 341.1,261.7 		"/>
		<g>
			<polygon fill="#F6AD55" points="316.3,273.6 319.8,271.8 319.8,259 311.8,259 311.8,271.3 			"/>
			<path fill="#F1F2F2" d="M318.6,257.5c-1.6-0.8-4.1-0.8-5.6,0c-1.6,0.8-1.6,2,0,2.8s4.1,0.8,5.6,0
				C320.2,259.6,320.2,258.3,318.6,257.5z"/>
			<g>
				<path fill="#9DC9FC" d="M316.7,258.5v-21.7H315v21.7c0,0.1,0.1,0.2,0.3,0.3c0.3,0.2,0.9,0.2,1.2,0
					C316.6,258.8,316.7,258.6,316.7,258.5z"/>
				<path fill="#4487F2" d="M317.6,239.5l-0.8-3.4l0.2-0.8l-0.5-0.2l0,0h-0.1l-1.7,0.9c-0.1,0-0.1,0.1-0.1,0.2l-1,5.3
					c0,0.1,0,0.2,0,0.3l0.8,1.2c0,0,0,0.1,0.1,0.1l0,0l0.5,0.2l0.1-0.4l1.2-0.6c0.2-0.1,0.3-0.3,0.4-0.5l0.8-2.1
					C317.6,239.7,317.6,239.6,317.6,239.5z"/>
				<path fill="#9DC9FC" d="M316.9,235.3l-1.7,0.9c-0.1,0-0.1,0.1-0.1,0.2l-1,5.3c0,0.1,0,0.2,0,0.3l0.8,1.2c0.1,0.1,0.2,0.1,0.4,0
					l1.4-0.7c0.2-0.1,0.3-0.3,0.4-0.5l0.8-2.1c0-0.1,0.1-0.2,0-0.3L316.9,235.3C317,235.3,317,235.3,316.9,235.3z"/>
			</g>
		</g>
		<g>
			<polygon fill="#F6AD55" points="331.9,265.7 331.9,252.9 324,252.9 324,269.7 			"/>
			<path fill="#F1F2F2" d="M330.8,251.4c-1.6-0.8-4.1-0.8-5.6,0c-1.6,0.8-1.6,2,0,2.8s4.1,0.8,5.6,0
				C332.3,253.5,332.3,252.2,330.8,251.4z"/>
			<g>
				<path fill="#9DC9FC" d="M328.8,252.4v-21.7h-1.7v21.7c0,0.1,0.1,0.2,0.3,0.3c0.3,0.2,0.9,0.2,1.2,0
					C328.8,252.7,328.8,252.5,328.8,252.4z"/>
				<path fill="#9DC9FC" d="M329.1,229.3l-1.7,0.9c-0.1,0-0.1,0.1-0.1,0.2l-1,5.3c0,0.1,0,0.2,0,0.3l0.8,1.2c0.1,0.1,0.2,0.1,0.4,0
					l1.4-0.7c0.2-0.1,0.3-0.3,0.4-0.5l0.8-2.1c0-0.1,0.1-0.2,0-0.3L329.1,229.3C329.2,229.2,329.1,229.2,329.1,229.3z"/>
				<path fill="#2D61B3" d="M326.2,233.4l0.8-3.4l-0.2-0.8l0.5-0.2l0,0h0.1l1.7,0.9c0.1,0,0.1,0.1,0.1,0.2l1,5.3c0,0.1,0,0.2,0,0.3
					l-0.8,1.2c0,0,0,0.1-0.1,0.1l0,0l-0.5,0.2l-0.1-0.4l-1.2-0.6c-0.2-0.1-0.3-0.3-0.4-0.5l-0.8-2.1
					C326.2,233.6,326.2,233.5,326.2,233.4z"/>
				<path fill="#9DC9FC" d="M326.9,229.2l1.7,0.9c0.1,0,0.1,0.1,0.1,0.2l1,5.3c0,0.1,0,0.2,0,0.3l-0.8,1.2c-0.1,0.1-0.2,0.1-0.4,0
					h-1.4c-0.2-0.1-0.4-0.9-0.5-1.1l-0.8-2.1c0-0.1-0.1-0.2,0-0.3L326.9,229.2C326.7,229.2,326.8,229.2,326.9,229.2z"/>
				<path fill="#4487F2" d="M327.1,237.1l-0.8-1.2c0-0.1-0.1-0.2,0-0.3l1-5.3c0-0.1,0.1-0.2,0.1-0.2l1.7-0.9h0.1l0,0l-0.5-0.2l0,0
					h-0.1l-1.7,0.9c-0.1,0-0.1,0.1-0.1,0.2l-1,5.3c0,0.1,0,0.2,0,0.3l0.8,1.2c0,0,0,0.1,0.1,0.1l0,0
					C326.7,237,327.1,237.2,327.1,237.1z"/>
				<path fill="#4487F2" d="M328.6,230.1l-0.6-0.3v7.4c0,0,0.6,0.1,0.8,0c0,0,0.1,0,0.1-0.1l0.8-1.2c0-0.1,0.1-0.2,0-0.3l-1-5.3
					C328.7,230.2,328.7,230.1,328.6,230.1z"/>
			</g>
		</g>
	</g>
	<g>
		<path fill="#F5AC7F" d="M442.4,181c0.7-0.5,1.2-2.2,1.2-2.2l-1-0.3c-0.5,0.1-0.8,0.5-1.1,0.8c-0.3,0.4-0.7,0.7-0.7,0.8
			c0.1,0.2,0.8-0.3,0.8-0.3s-0.4,0.5-0.4,1C441.3,181.6,441.9,181.4,442.4,181z"/>
		<path fill="#9DC9FC" d="M447.7,174.3c0.3,0.7-3.7,4.9-4.2,4.9c-0.1,0-1.2-0.5-0.9-0.8c0.5-0.8,2.1-3.4,2.1-3.4
			S447.4,173.6,447.7,174.3z"/>
		<path fill="#9DC9FC" d="M443.1,212.7c0.4,1.1,0.2,1.8-0.3,1.9c-2.7,0.2-5.2,0.2-5.2-0.2c0-1.1,3.5-1.5,4.1-2.5
			C443,209.6,442.7,211.8,443.1,212.7z"/>
		<path fill="#9DC9FC" d="M432.9,217.5c0.4,1.1,0.2,1.8-0.3,1.9c-2.7,0.2-5.2,0.2-5.2-0.2c0-1.1,3.7-1.3,4.2-2.3
			C433,214.5,432.6,216.6,432.9,217.5z"/>
		<path fill="#1F3B80" d="M441,179c-1-1-4,0.5-4,0.5s0,4.5,0.1,7.4c0,0.3,0.8,0.6,0.8,0.9c0.9,6.7,2.8,7.5,2.9,11.8
			c0.1,3.8,0.9,9.6,0.9,12.2c0,0.7,1.1,0.3,1.2,0.1c0,0,0.9-6.2,1.3-8.3s-0.2-4.9-0.2-4.9c0-1.1-0.4-10.8-0.4-10.8
			C444.5,186.2,444.7,182.8,441,179z"/>
		<path fill="#254799" d="M436.3,180.2c-1.3,6.8-0.8,16.2-2.1,21.8c-0.8,3.6-2.1,12.3-2.6,14.8c-0.1,0.7,1,0.6,1.2,0.4
			c0,0,2.9-8.3,3.8-10.6c0.8-2,0.5-4.8,0.5-4.8l4-12.4c0,0,1.9-2.4,1.8-4.8c-0.1-2.4-0.7-3.1-0.9-4.5
			C441.7,178.1,436.5,178.9,436.3,180.2z"/>
		<path fill="#70A5F2" d="M443.7,166.1c-0.6-1-2-0.8-4-0.2c-1.3,0.4-4,3.8-4.5,4.3c-1.8,2,1.1,2.9,1.1,2.9c0.6,3.2,0.6,5.7,0.4,7.1
			c-0.1,0.7-0.2,1,0.9,1c1.3,0,4.3-0.7,4.2-1.5C441.7,178.1,444.8,168,443.7,166.1z"/>
		<path fill="#F5AC7F" d="M435.6,158.1c-0.3,2.5-0.1,4.7,0.6,5.6s2.7-0.3,2.7-0.3s0.5,2.8-0.1,3.3c-0.7,0.5,1.8,0.1,2.7-0.1
			c1-0.3,0.3-0.9,0.3-0.9s-0.5-2.3-0.8-3.3c-0.2-0.8-3-4.1-4.4-5.4C436.1,156.5,435.6,158.1,435.6,158.1z"/>
		<path opacity="0.2" fill="#F5AC7F" enable-background="new    " d="M438.9,163.3c0,0,0.5,2.8-0.1,3.3c-0.7,0.5,1.8,0.1,2.7-0.1
			c1-0.3,0.3-0.9,0.3-0.9s-0.5-2.3-0.8-3.3c-0.1-0.5-1.8-1.3-2-0.7C438.8,162.1,438.9,163.3,438.9,163.3z"/>
		<path fill="#254799" d="M443.8,169.2c0,0-0.5,1.9-1,2.2c-0.8,0.6-1.6,1.3-2.2-1.1c-0.5-1.8-1.9-3.3-2.6-3.1
			c-1.3,0.4-2.3,2.5-2.8,3c-1.8,2,1,3.9,1,3.9c0.6,3.2,0.2,4.7,0,6.1c-0.1,0.7,0.3,1,1.4,1c1.3,0,4.5-0.3,4.3-1.1
			C441.7,179.1,443.4,173.3,443.8,169.2z M437.7,176c-0.5-0.7-0.5-1.2-0.9-4.6c0,0,0.9-3.8,1.6-3.3c2,1.5,1.6,3.8,1.4,5.7
			C439.5,175.9,438.1,176.8,437.7,176z"/>
		<path fill="#F53B4A" d="M442.8,159.6c-1.3,3.5-1.3,3.9-3,3.6c-0.8-0.2-2.4-1.1-2.3-1.9c0.1-1.1-0.6-1.8-1-1.3
			c-0.2,0.4,0-2.3-0.9-2C435.4,153.3,444.9,153.7,442.8,159.6z"/>
		<path fill="#254799" d="M442.5,155.4c-0.8-0.1-2.4,0.7-2.3,2c0.1,1.1,1.1,1.8,1.8,2.1c1,0.5,2.3-0.6,2.3-1.4
			C444.2,156.3,443.2,155.5,442.5,155.4z"/>
		<path fill="#F53B4A" d="M444.8,156.5c4.2,0.8,2.9,5.5,3.2,7.4c0.5,3,4.4,5.9,3.8,9.1c-0.8,3.7-6.3,5.2-9.1,0.8
			c-2.2-3.5-0.7-8.4-0.4-10.4c0.3-1.8-1.3-3.4-1-5.2C441.6,156.7,443.5,156.2,444.8,156.5z"/>
		<g>
			<path fill="#70A5F2" d="M434.9,195l-1-1.4c-0.1-0.1-0.1-0.3,0.1-0.5l0.9-0.6c0.1-0.1,0.3-0.1,0.5,0.1l1,1.4
				c0.1,0.1,0.3,0.1,0.4-0.1c0.2-0.8,0.1-1.6-0.6-2.2c-0.6-0.5-1.5-0.6-2.2-0.3c-1.3,0.6-1.6,2.1-0.8,3.1c0.4,0.6,1,0.8,1.7,0.8
				C434.9,195.4,435,195.2,434.9,195z"/>
			<path fill="#70A5F2" d="M425.3,178.6l1.4,1.9c0.1,0.2,0.1,0.5-0.1,0.6l-1.2,0.9c-0.2,0.1-0.5,0.1-0.6-0.1l-1.4-1.9
				c-0.1-0.2-0.5-0.2-0.5,0.1c-0.3,1-0.1,2.2,0.9,3.1c0.8,0.7,2,0.9,3,0.4c1.7-0.8,2.2-2.9,1.1-4.3c-0.6-0.8-1.4-1.2-2.3-1.2
				C425.3,178.1,425.1,178.4,425.3,178.6z"/>
			
				<rect x="429.1" y="181.3" transform="matrix(0.8039 -0.5947 0.5947 0.8039 -27.0258 292.6267)" fill="#70A5F2" width="2.4" height="12.1"/>
		</g>
		<path fill="#F5AC7F" d="M427.9,184.9v-0.1c0,0,1.1-0.6,1.2-1c0-0.1-0.2-0.5-0.2-0.5c0.4-0.3,1.1-0.5,1.7-0.7
			c1.5-1.1,1.8,0.5,1,0.9h-0.1c-0.3,0.4-1,1.4-1.7,1.8C429.2,185.5,428.1,185.3,427.9,184.9z"/>
		<path fill="#9DC9FC" d="M430.5,182.5c0.5-0.6,3.5-4,4.5-5.1c0.5-2.7,0.6-7.7,1.2-8.8c0.6-1.3,1.8-1.2,2.4-0.3
			c1,1.3-0.9,9.7-1.7,10.6c-0.6,0.7-4.9,4.8-5.5,4.7C430.7,183.6,430.2,182.9,430.5,182.5z"/>
	</g>
	<g>
		<path fill="#1F3B80" d="M276.4,164.3c0.7-0.6,4.2-0.6,9.5-2.8v8.7c-5.3,2.2-7.5,3.3-8.3,2.9C275.3,172,276.4,164.3,276.4,164.3z"
			/>
		<g>
			<path fill="#F6AD55" d="M278.9,163.9c0,0-0.3-6,0.6-7c5.1-5.8,21.8-17.8,21.8-17.8s10.9-19,33.9-30.4c17.8-8.8,29-6.5,34-4.5l0,0
				c0,0,33.1,10.8,44.7,22.9L321,190.7c0,0-41.2-20.5-41.3-20.6C278.3,167.9,278.9,163.9,278.9,163.9z"/>
			<path fill="#F69255" d="M359.7,102.3c4.2,0.1,7.4,1,9.4,1.8l0,0c0,0,33.1,10.8,44.7,22.9l-0.1,0.1c0,0-6.3-0.1-7.2-2.3
				C404,118.3,359.7,102.3,359.7,102.3z"/>
			<path fill="#F69255" d="M320.8,177.5c5.3-5.6,21.7-17.8,21.7-17.8s9-19.3,33.9-30.4c23.4-10.5,34.9-4.3,36.7-3.1
				c1.8,1.1,2.7,11.5,1.1,15.3c-0.9,1.9-2.8,4.4-7.1,7.6c-4,3-11.8,7.5-27.8,15.6c-33.2,16.6-56.8,28.3-58.2,26.1
				c-1.5-2.2-1-4.7-1-4.7S320,178.3,320.8,177.5z"/>
			<path fill="#254799" d="M345.4,158.4c6.4-9.2,14.1-18,26-24.3c12.5-6.6,32.3-10.5,32.3-7.5c0,2.6-9.6,7.8-29,17.3
				C355,153.5,345.4,158.4,345.4,158.4z"/>
			<path fill="#9DC9FC" d="M320.4,177.7c-0.6,1.2-0.3,5.5-0.3,5.5c2.2-1.1,2.8-1.1,2.8-4c0-2.3-1.3-1.9-2.2-1.5
				C320.6,177.8,320.5,177.6,320.4,177.7L320.4,177.7z"/>
			<polygon fill="#4487F2" points="372.5,133.6 372.5,145 374.3,144.1 374.3,132.7 			"/>
			<g>
				<path fill="#9DC9FC" d="M413.8,127c-1.3,2.4-2.1,4.5-2.1,5.3c0,1,1.2,0.1,3-2.1C414.4,128.8,414.1,127.7,413.8,127z"/>
			</g>
			<g>
				<path fill="#346EE3" d="M375.3,143.7c0.3-0.1,6.4-3.1,9.4-4.5l6-12c-3,0.7-6.3,1.7-9.5,2.8L375.3,143.7z"/>
				<path fill="#346EE3" d="M358.1,152l7-14c-3,2.1-5.8,4.4-8.3,6.8l-5.3,10.5C353.4,154.4,355.6,153.2,358.1,152z"/>
			</g>
			<path fill="#254799" d="M276.4,164.3l43.7,21.6v8.8c0,0-43.4-21.4-43.5-21.5C275,171,275.6,165,276.4,164.3z"/>
		</g>
		<g>
			<path fill="#346EE3" d="M316.4,124.1l35.4,18.2c-8,8-12.2,15.8-12.2,15.8l-36.2-18.5C303.4,139.5,309.7,130.5,316.4,124.1z"/>
			<g>
				<path fill="#4487F2" d="M341.6,154.8V137l5.2,2.7v8.2C344.5,150.5,342.8,153,341.6,154.8z"/>
				<polygon fill="#4487F2" points="326.3,151.2 326.3,129.1 338.8,135.5 338.8,157.6 				"/>
				<path fill="#4487F2" d="M310.6,130.3c1.6-1.9,3.4-3.8,5.2-5.6v21.2l-5.2-2.7V130.3z"/>
			</g>
		</g>
		<path fill="#F1F2F2" d="M320.7,177.7l-4.8-2.4c-0.9-0.5-2,0.2-2,1.2v2.6c0,0.5,0.3,1,0.8,1.3l5.5,2.8L320.7,177.7z"/>
		<path fill="#F1F2F2" d="M284.7,162.5v2.6c0,0.5-0.3,0.7-0.8,0.5l-5.2-2.6c0-1.4-0.1-4.2,0.3-5.6l3.5,1.8
			C283.6,159.7,284.7,161.5,284.7,162.5z"/>
		<path fill="#346EE3" d="M396.8,155.3c-0.1,0.1-0.2,0.1-0.4,0.2V126c0.1,0,0.2,0,0.4-0.1V155.3z"/>
		<g>
			<g>
				<path fill="#1F3B80" d="M409.4,144.6l-2.8-1.3c-1.5-0.7-3.6-0.6-5.9,0.6c-4.7,2.4-8.5,8.1-8.5,12.8c0,2.1,0.8,3.6,2,4.4l2.9,1.5
					l0.5-0.7c1-0.1,2.1-0.4,3.2-1c4.7-2.4,8.5-8.1,8.5-12.8c0-1-0.2-1.9-0.6-2.7L409.4,144.6z"/>
				<path fill="#9DC9FC" d="M409.6,150.5c0,3.5-2.9,7.8-6.4,9.6s-6.4,0.3-6.4-3.2s2.9-7.8,6.4-9.6S409.6,147,409.6,150.5z"/>
				<path fill="#254799" d="M403.2,145c-4.7,2.4-8.5,8.1-8.5,12.8s3.8,6.6,8.5,4.3c4.7-2.4,8.5-8.1,8.5-12.8
					C411.7,144.5,407.9,142.6,403.2,145z M403.2,159.6c-3.3,1.7-6,0.3-6-3s2.7-7.4,6-9c3.3-1.7,6-0.3,6,3
					C409.2,153.9,406.5,157.9,403.2,159.6z"/>
				<g>
					<path fill="#1F3B80" d="M402,154.6c-0.1-0.1-0.1-0.3-0.1-0.4l0,0L399,155c-0.3,0.1-0.5,0.4-0.5,0.6c0,0.1,0,0.2,0,0.4
						c0,1.1,0.4,1.9,1,2.4c0.2,0.1,0.5,0,0.7-0.3l1.7-2.9C402,155,402,154.8,402,154.6z"/>
					<path fill="#1F3B80" d="M399.2,154.4l2.6-0.9c0.1,0,0.3-0.2,0.4-0.3s0.1-0.2,0.2-0.2c0.1-0.1,0.2-0.3,0.2-0.4l0.1-2.7
						c0-0.3-0.2-0.4-0.5-0.2c-1.5,1-2.6,2.6-3.2,4.3C398.8,154.2,399,154.4,399.2,154.4z"/>
					<path fill="#1F3B80" d="M403.3,154.7c-0.1,0.1-0.2,0.1-0.2,0.1c-0.1,0.1-0.2,0.1-0.3,0.1l-2.2,3.2c-0.2,0.3-0.2,0.6,0.1,0.6
						c0.7,0.1,1.5-0.1,2.4-0.5c0.7-0.3,1.3-0.8,1.8-1.3c0.2-0.2,0.3-0.6,0.2-0.7L403.3,154.7z"/>
					<path fill="#1F3B80" d="M407.6,150.4c-0.1-0.2-0.3-0.2-0.6,0l-2.7,2.6l0,0c0,0.2,0,0.4-0.1,0.6c-0.1,0.2-0.1,0.3,0,0.4l1.4,1.7
						c0.1,0.2,0.5,0.1,0.7-0.2c0.9-1.3,1.5-2.8,1.5-4.2C407.7,151,407.7,150.7,407.6,150.4z"/>
					<path fill="#1F3B80" d="M403.7,152.3L403.7,152.3c0.1,0,0.2,0,0.3-0.1l2.7-2.2c0.3-0.2,0.4-0.6,0.2-0.8c-0.7-0.7-1.8-0.8-3-0.4
						c-0.3,0.1-0.5,0.4-0.5,0.7l0.1,2.6C403.5,152.2,403.6,152.2,403.7,152.3z"/>
				</g>
				<path fill="#346EE3" d="M405.4,152.6c0,1.3-1,2.9-2.3,3.5s-2.3,0.1-2.3-1.2s1-2.9,2.3-3.5C404.4,150.7,405.4,151.3,405.4,152.6z
					"/>
				<path fill="#1F3B80" d="M404.3,153.1c0,0.7-0.5,1.5-1.2,1.8s-1.2,0.1-1.2-0.6c0-0.7,0.5-1.5,1.2-1.8
					C403.7,152.2,404.3,152.4,404.3,153.1z"/>
				<g>
					<path fill="#346EE3" d="M403.1,147.2c-3.5,1.8-6.4,6-6.4,9.6s2.9,4.9,6.4,3.2c3.5-1.8,6.4-6,6.4-9.6
						C409.5,146.9,406.7,145.4,403.1,147.2z M403.2,159.5c-3.3,1.6-6,0.3-6-3s2.7-7.3,6-8.9c3.3-1.6,6-0.3,6,3
						C409.1,153.9,406.4,157.9,403.2,159.5z"/>
				</g>
			</g>
		</g>
		<path fill="#346EE3" d="M373.6,167.4c-0.1,0.1-0.2,0.1-0.4,0.2v-34.3c0.1-0.1,0.2-0.1,0.4-0.2V167.4z"/>
		<path fill="#346EE3" d="M342.5,159.7c0,0,0-0.1,0.1-0.2l3.5,12.3l-0.3,0.1l-3.4-12C342.5,159.7,342.5,159.7,342.5,159.7z"/>
		<g>
			<g>
				<path fill="#1F3B80" d="M355,170.9l-2.8-1.3c-1.5-0.7-3.6-0.6-5.9,0.6c-4.7,2.4-8.5,8.1-8.5,12.8c0,2.1,0.8,3.6,2,4.4l2.9,1.5
					l0.5-0.7c1-0.1,2.1-0.4,3.2-1c4.7-2.4,8.5-8.1,8.5-12.8c0-1-0.2-1.9-0.6-2.7L355,170.9z"/>
				<path fill="#9DC9FC" d="M355.2,176.8c0,3.5-2.9,7.8-6.4,9.6s-6.4,0.3-6.4-3.2s2.9-7.8,6.4-9.6
					C352.3,171.9,355.2,173.3,355.2,176.8z"/>
				<path fill="#254799" d="M348.8,171.3c-4.7,2.4-8.5,8.1-8.5,12.8s3.8,6.6,8.5,4.3c4.7-2.4,8.5-8.1,8.5-12.8
					C357.3,170.9,353.5,169,348.8,171.3z M348.7,185.9c-3.3,1.7-6,0.3-6-3s2.7-7.4,6-9c3.3-1.7,6-0.3,6,3
					C354.8,180.2,352.1,184.3,348.7,185.9z"/>
				<g>
					<path fill="#1F3B80" d="M347.5,181c-0.1-0.1-0.1-0.3-0.1-0.4l0,0l-2.8,0.8c-0.3,0.1-0.5,0.4-0.5,0.6c0,0.1,0,0.2,0,0.4
						c0,1.1,0.4,1.9,1,2.4c0.2,0.1,0.5,0,0.7-0.3l1.7-2.9C347.6,181.3,347.6,181.1,347.5,181z"/>
					<path fill="#1F3B80" d="M344.8,180.7l2.6-0.9c0.1,0,0.3-0.2,0.4-0.3s0.1-0.2,0.2-0.2c0.1-0.1,0.2-0.3,0.2-0.4l0.1-2.7
						c0-0.3-0.2-0.4-0.5-0.2c-1.5,1-2.6,2.6-3.2,4.3C344.4,180.6,344.5,180.8,344.8,180.7z"/>
					<path fill="#1F3B80" d="M348.9,181c-0.1,0.1-0.2,0.1-0.2,0.1c-0.1,0.1-0.2,0.1-0.3,0.1l-2.2,3.2c-0.2,0.3-0.2,0.6,0.1,0.6
						c0.7,0.1,1.5-0.1,2.4-0.5c0.7-0.3,1.3-0.8,1.8-1.3c0.2-0.2,0.3-0.6,0.2-0.7L348.9,181z"/>
					<path fill="#1F3B80" d="M353.2,176.7c-0.1-0.2-0.3-0.2-0.6,0l-2.7,2.6l0,0c0,0.2,0,0.4-0.1,0.6c-0.1,0.2-0.1,0.3,0,0.4l1.4,1.7
						c0.1,0.2,0.5,0.1,0.7-0.2c0.9-1.3,1.5-2.8,1.5-4.2C353.3,177.4,353.3,177,353.2,176.7z"/>
					<path fill="#1F3B80" d="M349.3,178.6L349.3,178.6c0.1,0,0.2,0,0.3-0.1l2.7-2.2c0.3-0.2,0.4-0.6,0.2-0.8c-0.7-0.7-1.8-0.8-3-0.4
						c-0.3,0.1-0.5,0.4-0.5,0.7l0.1,2.6C349,178.5,349.1,178.6,349.3,178.6z"/>
				</g>
				<path fill="#346EE3" d="M351,178.9c0,1.3-1,2.9-2.3,3.5s-2.3,0.1-2.3-1.2s1-2.9,2.3-3.5C350,177.1,351,177.6,351,178.9z"/>
				<path fill="#1F3B80" d="M349.8,179.5c0,0.7-0.5,1.5-1.2,1.8s-1.2,0.1-1.2-0.6c0-0.7,0.5-1.5,1.2-1.8
					C349.3,178.5,349.8,178.8,349.8,179.5z"/>
				<g>
					<path fill="#346EE3" d="M348.7,173.6c-3.5,1.8-6.4,6-6.4,9.6s2.9,4.9,6.4,3.2c3.5-1.8,6.4-6,6.4-9.6S352.2,171.8,348.7,173.6z
						 M348.7,185.9c-3.3,1.6-6,0.3-6-3s2.7-7.3,6-8.9c3.3-1.6,6-0.3,6,3C354.7,180.2,352,184.2,348.7,185.9z"/>
				</g>
			</g>
		</g>
		<g>
			<path fill="#254799" d="M372.5,151L372.5,151c0,0.4-0.3,0.9-0.7,1.1l-2.3,1.1c-0.4,0.2-0.7,0-0.7-0.4l0,0c0-0.4,0.3-0.9,0.7-1.1
				l2.3-1.1C372.2,150.5,372.5,150.6,372.5,151z"/>
			<path fill="#346EE3" d="M369.5,151.8l2.3-1.1c0.3-0.1,0.5-0.1,0.6,0.1c-0.1,0.3-0.4,0.5-0.6,0.7l-2.3,1.1
				c-0.3,0.1-0.5,0.1-0.6-0.1C369,152.2,369.2,151.9,369.5,151.8z"/>
		</g>
		<g>
			<path fill="#254799" d="M395.7,139.1L395.7,139.1c0,0.4-0.3,0.9-0.7,1.1l-2.3,1.1c-0.4,0.2-0.7,0-0.7-0.4l0,0
				c0-0.4,0.3-0.9,0.7-1.1l2.3-1.1C395.4,138.6,395.7,138.7,395.7,139.1z"/>
			<path fill="#346EE3" d="M392.7,139.9l2.3-1.1c0.3-0.1,0.5-0.1,0.6,0.1c-0.1,0.3-0.4,0.5-0.6,0.7l-2.3,1.1
				c-0.3,0.1-0.5,0.1-0.6-0.1C392.2,140.3,392.4,140,392.7,139.9z"/>
		</g>
		<path fill="#1F3B80" d="M320,185.9c0.8,0.4,3.8-0.5,8.6-2.5c0.5-0.2,1,0.1,1,0.6v6.5c0,0.8-0.5,1.4-1.2,1.7
			c-4.7,1.9-7.7,2.8-8.4,2.4C317.7,193.6,319.5,185.7,320,185.9z"/>
		<g>
			<path fill="#4487F2" d="M311.4,181.2c0.7,0.4,1.3,0.1,1.3-0.6v-4.1c0-0.7-0.6-1.6-1.3-1.9L287,162.4c-0.7-0.4-1.3-0.1-1.3,0.6
				v4.1c0,0.7,0.6,1.6,1.3,1.9L311.4,181.2z"/>
			<path fill="#254799" d="M311.4,175.2L287,162.9c-0.4-0.2-0.7,0-0.7,0.4v4.1c0,0.4,0.3,0.9,0.7,1.1l24.5,12.2
				c0.4,0.2,0.7,0,0.7-0.4v-4.1C312.1,175.8,311.8,175.4,311.4,175.2z"/>
			<polygon fill="#4487F2" points="286.3,163.6 312.1,176.6 312.1,176.2 286.3,163.3 			"/>
			<polygon fill="#4487F2" points="286.3,164.5 312.1,177.5 312.1,177.2 286.3,164.2 			"/>
			<polygon fill="#4487F2" points="286.3,165.5 312.1,178.4 312.1,178.1 286.3,165.1 			"/>
			<polygon fill="#4487F2" points="286.3,166.4 312.1,179.3 312.1,179 286.3,166.1 			"/>
			<polygon fill="#4487F2" points="286.3,167.3 312.1,180.2 312.1,179.9 286.3,167 			"/>
			<polygon fill="#4487F2" points="304.2,177 304.4,177.1 304.4,171.6 304.2,171.5 			"/>
			<polygon fill="#4487F2" points="294.6,172.2 294.9,172.3 294.9,166.9 294.6,166.7 			"/>
			<path fill="#9DC9FC" d="M305.5,181.3l-18.3-9.2c-0.3-0.1-0.5,0-0.5,0.3v3c0,0.3,0.2,0.6,0.5,0.8l18.3,9.2c0.3,0.1,0.5,0,0.5-0.3
				v-3C306,181.8,305.8,181.4,305.5,181.3z"/>
		</g>
	</g>
	<g>
		<g>
			<path fill="#70A5F2" d="M276.9,284.3l-1.2,0.6c-0.7,0.3-1.8,0.3-2.5,0l-26.4-13.2c-0.7-0.3-0.7-0.9,0-1.2l1.2-0.6
				c0.7-0.3,1.8-0.3,2.5,0l26.4,13.2C277.6,283.4,277.6,284,276.9,284.3z"/>
			<path fill="#9DC9FC" d="M261.9,270l-12.6,6.3c-0.6,0.3-1.7,0.3-2.4,0l-3.5-1.7c-0.5-0.3-0.5-0.7,0-1l10.8-5.4
				c0.5-0.3,1.6-0.4,2.3-0.2l4.8,1.1C262.2,269.2,262.5,269.7,261.9,270z"/>
		</g>
		<path fill="none" stroke="#9DC9FC" stroke-width="0.5355" stroke-miterlimit="10" d="M291.8,283.2l-17.6,8.8
			c-0.9,0.5-2.4,0.5-3.3,0l-36.2-18.1c-0.9-0.5-0.9-1.2,0-1.7l17.6-8.8c0.9-0.5,2.4-0.5,3.3,0l36.2,18.1
			C292.7,282,292.7,282.8,291.8,283.2z"/>
	</g>
	<g>
		<g>
			<polygon fill="#70A5F2" points="458.5,249.9 455.3,251.5 437.6,242.6 440.8,241 			"/>
			<path fill="#70A5F2" d="M431.4,237.9c-2.5,1.3-2.5,3.3,0,4.5c2.5,1.3,6.6,1.3,9.1,0s2.5-3.3,0-4.5
				C437.9,236.6,433.9,236.6,431.4,237.9z M439.4,240.6l-2.6,1.3l-3.5-0.5l-0.9-1.8l2.6-1.3l3.5,0.5L439.4,240.6z"/>
			<path fill="#70A5F2" d="M456,250.2c-2,1-2,2.7,0,3.7s5.3,1,7.4,0c2-1,2-2.7,0-3.7C461.3,249.2,458,249.2,456,250.2z M462.5,252.4
				l-2.1,1l-2.8-0.4l-0.8-1.4l2.1-1l2.8,0.4L462.5,252.4z"/>
		</g>
		<path fill="none" stroke="#9DC9FC" stroke-width="0.4933" stroke-miterlimit="10" d="M474.3,251.1l-16.2,8.1
			c-0.8,0.4-2.2,0.4-3.1,0l-33.3-16.7c-0.8-0.4-0.8-1.1,0-1.5l16.2-8.1c0.8-0.4,2.2-0.4,3.1,0l33.3,16.7
			C475.2,250,475.2,250.7,474.3,251.1z"/>
	</g>
	<g>
		<g>
			<path fill="#70A5F2" d="M346.5,289.5l2.8-1.4c0.3-0.1,0.3-0.4,0-0.5l-1.8-0.9c-0.3-0.1-0.8-0.1-1.1,0l-2.8,1.4
				c-0.3,0.1-0.8,0.1-0.9-0.1c-0.3-0.9,0.4-1.9,2.2-2.5c1.6-0.5,3.7-0.5,5.2,0c2.7,0.9,3,2.7,0.8,3.8c-1.1,0.6-2.7,0.8-4.2,0.7
				C346.4,289.9,346.2,289.7,346.5,289.5z"/>
			<path fill="#70A5F2" d="M374.7,272l-3.9,1.9c-0.4,0.2-0.4,0.5,0,0.7l2.5,1.2c0.4,0.2,1.1,0.2,1.5,0l3.9-2
				c0.4-0.2,1.1-0.1,1.2,0.2c0.4,1.3-0.6,2.6-3.1,3.4c-2.2,0.7-5,0.7-7.1,0c-3.7-1.2-4.1-3.7-1.1-5.2c1.6-0.8,3.7-1.1,5.8-0.9
				C374.8,271.4,375.1,271.8,374.7,272z"/>
			<polygon fill="#70A5F2" points="372,277.3 368,275.3 347.9,285.4 351.9,287.4 			"/>
		</g>
		<path fill="none" stroke="#9DC9FC" stroke-width="0.5355" stroke-miterlimit="10" d="M331.4,286.8l17.6,8.8c0.9,0.5,2.4,0.5,3.3,0
			l36.2-18.1c0.9-0.5,0.9-1.2,0-1.7l-17.6-8.8c-0.9-0.5-2.4-0.5-3.3,0l-36.2,18.1C330.5,285.6,330.5,286.4,331.4,286.8z"/>
	</g>
	<g>
		<g>
			<g>
				<path fill="#1F3B80" d="M416.5,261.4v-5.1h-35v5.3c-0.1,2.3,1.5,4.7,5.1,6.5c6.8,3.4,17.9,3.4,24.8,0
					C415,266.2,416.7,263.8,416.5,261.4z"/>
				<path fill="#9DC9FC" d="M408.5,251.6c5.1,2.6,5.1,6.7,0,9.2c-5.1,2.6-13.4,2.6-18.5,0s-5.1-6.7,0-9.2
					C395.1,249,403.4,249,408.5,251.6z"/>
				<path fill="#254799" d="M386.6,249.9c-6.8,3.4-6.8,9,0,12.4s17.9,3.4,24.8,0c6.8-3.4,6.8-9,0-12.4
					C404.5,246.5,393.4,246.5,386.6,249.9z M407.7,260.5c-4.8,2.4-12.6,2.4-17.5,0c-4.8-2.4-4.8-6.3,0-8.7s12.6-2.4,17.5,0
					C412.5,254.2,412.5,258.1,407.7,260.5z"/>
				<g>
					<path fill="#1F3B80" d="M397.9,257.4c-0.3-0.1-0.6-0.2-0.8-0.3l0,0l-5,1.6c-0.4,0.1-0.5,0.4-0.2,0.6c0.2,0.1,0.3,0.2,0.5,0.3
						c1.6,0.8,3.6,1.2,5.7,1.4c0.5,0,1-0.2,1-0.5l-0.4-2.7C398.5,257.6,398.3,257.4,397.9,257.4z"/>
					<path fill="#1F3B80" d="M391.5,258.2l4.5-1.6c0.2-0.1,0.4-0.2,0.4-0.4c0-0.1,0-0.1,0-0.2s0-0.3-0.2-0.4l-3.7-2
						c-0.4-0.2-1.1-0.2-1.4,0.1c-1.6,1.3-1.9,2.9-0.8,4.3C390.4,258.2,391.1,258.3,391.5,258.2z"/>
					<path fill="#1F3B80" d="M400.9,256.9c-0.1,0.1-0.2,0.1-0.3,0.2c-0.2,0.1-0.3,0.1-0.5,0.2v3.1c0,0.3,0.5,0.5,1.1,0.4
						c1.7-0.2,3.3-0.6,4.6-1.3c0.9-0.5,1.6-1,2.1-1.6c0.2-0.3-0.1-0.5-0.7-0.6L400.9,256.9z"/>
					<path fill="#1F3B80" d="M404,252.2c-0.5-0.1-1.1,0-1.3,0.2l-2.2,2.9c0,0,0,0,0.1,0c0.3,0.1,0.5,0.3,0.6,0.5
						c0.1,0.1,0.3,0.3,0.6,0.3l5.6,0.7c0.5,0.1,1.1-0.1,1.1-0.4c0.1-1.3-0.8-2.6-2.8-3.6C405.2,252.6,404.6,252.4,404,252.2z"/>
					<path fill="#1F3B80" d="M398.2,255L398.2,255c0.2,0,0.4-0.1,0.5-0.2l2.6-2.6c0.3-0.3,0-0.6-0.6-0.6c-2.5-0.2-5.1,0-7.2,0.8
						c-0.4,0.2-0.5,0.5-0.1,0.7l3.9,1.8C397.6,255,397.9,255.1,398.2,255z"/>
				</g>
				<path fill="#346EE3" d="M402.4,254.6c1.9,0.9,1.9,2.5,0,3.4s-4.9,0.9-6.8,0s-1.9-2.5,0-3.4C397.5,253.7,400.5,253.7,402.4,254.6
					z"/>
				<path fill="#1F3B80" d="M400.7,255.4c1,0.5,1,1.3,0,1.7c-1,0.5-2.5,0.5-3.5,0s-1-1.3,0-1.7C398.2,254.9,399.7,254.9,400.7,255.4
					z"/>
				<g>
					<path fill="#346EE3" d="M389.7,251.6c-5.1,2.6-5.1,6.7,0,9.2c5.1,2.6,13.4,2.6,18.5,0s5.1-6.7,0-9.2
						C403.1,249,394.8,249,389.7,251.6z M407.6,260.5c-4.8,2.4-12.5,2.4-17.3,0s-4.8-6.3,0-8.6c4.8-2.4,12.5-2.4,17.3,0
						C412.3,254.2,412.3,258.1,407.6,260.5z"/>
				</g>
			</g>
		</g>
		<g>
			<g>
				<path fill="#1F3B80" d="M416.5,254.6v-5.1h-35v5.3c-0.1,2.3,1.5,4.7,5.1,6.5c6.8,3.4,17.9,3.4,24.8,0
					C415,259.4,416.7,257,416.5,254.6z"/>
				<path fill="#9DC9FC" d="M408.5,244.8c5.1,2.6,5.1,6.7,0,9.2c-5.1,2.6-13.4,2.6-18.5,0s-5.1-6.7,0-9.2
					C395.1,242.2,403.4,242.2,408.5,244.8z"/>
				<path fill="#254799" d="M386.6,243.1c-6.8,3.4-6.8,9,0,12.4s17.9,3.4,24.8,0c6.8-3.4,6.8-9,0-12.4
					C404.5,239.7,393.4,239.7,386.6,243.1z M407.7,253.7c-4.8,2.4-12.6,2.4-17.5,0c-4.8-2.4-4.8-6.3,0-8.7s12.6-2.4,17.5,0
					C412.5,247.4,412.5,251.3,407.7,253.7z"/>
				<g>
					<path fill="#1F3B80" d="M397.9,250.6c-0.3-0.1-0.6-0.2-0.8-0.3l0,0l-5,1.6c-0.4,0.1-0.5,0.4-0.2,0.6c0.2,0.1,0.3,0.2,0.5,0.3
						c1.6,0.8,3.6,1.2,5.7,1.4c0.5,0,1-0.2,1-0.5l-0.4-2.7C398.5,250.8,398.3,250.6,397.9,250.6z"/>
					<path fill="#1F3B80" d="M391.5,251.4l4.5-1.6c0.2-0.1,0.4-0.2,0.4-0.4c0-0.1,0-0.1,0-0.2c0-0.1,0-0.3-0.2-0.4l-3.7-2
						c-0.4-0.2-1.1-0.2-1.4,0.1c-1.6,1.3-1.9,2.9-0.8,4.3C390.4,251.4,391.1,251.5,391.5,251.4z"/>
					<path fill="#1F3B80" d="M400.9,250.1c-0.1,0.1-0.2,0.1-0.3,0.2c-0.2,0.1-0.3,0.1-0.5,0.2v3.1c0,0.3,0.5,0.5,1.1,0.4
						c1.7-0.2,3.3-0.6,4.6-1.3c0.9-0.5,1.6-1,2.1-1.6c0.2-0.3-0.1-0.5-0.7-0.6L400.9,250.1z"/>
					<path fill="#1F3B80" d="M404,245.4c-0.5-0.1-1.1,0-1.3,0.2l-2.2,2.9c0,0,0,0,0.1,0c0.3,0.1,0.5,0.3,0.6,0.5
						c0.1,0.1,0.3,0.3,0.6,0.3l5.6,0.7c0.5,0.1,1.1-0.1,1.1-0.4c0.1-1.3-0.8-2.6-2.8-3.6C405.2,245.8,404.6,245.6,404,245.4z"/>
					<path fill="#1F3B80" d="M398.2,248.2L398.2,248.2c0.2,0,0.4-0.1,0.5-0.2l2.6-2.6c0.3-0.3,0-0.6-0.6-0.6c-2.5-0.2-5.1,0-7.2,0.8
						c-0.4,0.2-0.5,0.5-0.1,0.7l3.9,1.8C397.6,248.2,397.9,248.3,398.2,248.2z"/>
				</g>
				<path fill="#346EE3" d="M402.4,247.8c1.9,0.9,1.9,2.5,0,3.4s-4.9,0.9-6.8,0s-1.9-2.5,0-3.4C397.5,246.9,400.5,246.9,402.4,247.8
					z"/>
				<path fill="#1F3B80" d="M400.7,248.6c1,0.5,1,1.3,0,1.7c-1,0.5-2.5,0.5-3.5,0s-1-1.3,0-1.7C398.2,248.1,399.7,248.1,400.7,248.6
					z"/>
				<g>
					<path fill="#346EE3" d="M389.7,244.8c-5.1,2.6-5.1,6.7,0,9.2c5.1,2.6,13.4,2.6,18.5,0s5.1-6.7,0-9.2
						C403.1,242.2,394.8,242.2,389.7,244.8z M407.6,253.7c-4.8,2.4-12.5,2.4-17.3,0c-4.8-2.4-4.8-6.3,0-8.6c4.8-2.4,12.5-2.4,17.3,0
						C412.3,247.4,412.3,251.3,407.6,253.7z"/>
				</g>
			</g>
		</g>
		<g>
			<g>
				<path fill="#1F3B80" d="M416.5,247.9v-5.1h-35v5.3c-0.1,2.3,1.5,4.7,5.1,6.5c6.8,3.4,17.9,3.4,24.8,0
					C415,252.6,416.7,250.2,416.5,247.9z"/>
				<path fill="#9DC9FC" d="M408.5,238c5.1,2.6,5.1,6.7,0,9.2c-5.1,2.6-13.4,2.6-18.5,0s-5.1-6.7,0-9.2S403.4,235.4,408.5,238z"/>
				<path fill="#254799" d="M386.6,236.3c-6.8,3.4-6.8,9,0,12.4s17.9,3.4,24.8,0c6.8-3.4,6.8-9,0-12.4
					C404.5,232.9,393.4,232.9,386.6,236.3z M407.7,246.9c-4.8,2.4-12.6,2.4-17.5,0c-4.8-2.4-4.8-6.3,0-8.7s12.6-2.4,17.5,0
					C412.5,240.6,412.5,244.5,407.7,246.9z"/>
				<g>
					<path fill="#1F3B80" d="M397.9,243.8c-0.3-0.1-0.6-0.2-0.8-0.3l0,0l-5,1.6c-0.4,0.1-0.5,0.4-0.2,0.6c0.2,0.1,0.3,0.2,0.5,0.3
						c1.6,0.8,3.6,1.2,5.7,1.4c0.5,0,1-0.2,1-0.5l-0.4-2.7C398.5,244,398.3,243.8,397.9,243.8z"/>
					<path fill="#1F3B80" d="M391.5,244.6l4.5-1.6c0.2-0.1,0.4-0.2,0.4-0.4c0-0.1,0-0.1,0-0.2c0-0.1,0-0.3-0.2-0.4l-3.7-2
						c-0.4-0.2-1.1-0.2-1.4,0.1c-1.6,1.3-1.9,2.9-0.8,4.3C390.4,244.6,391.1,244.7,391.5,244.6z"/>
					<path fill="#1F3B80" d="M400.9,243.3c-0.1,0.1-0.2,0.1-0.3,0.2c-0.2,0.1-0.3,0.1-0.5,0.2v3.1c0,0.3,0.5,0.5,1.1,0.4
						c1.7-0.2,3.3-0.6,4.6-1.3c0.9-0.5,1.6-1,2.1-1.6c0.2-0.3-0.1-0.5-0.7-0.6L400.9,243.3z"/>
					<path fill="#1F3B80" d="M404,238.6c-0.5-0.1-1.1,0-1.3,0.2l-2.2,2.9c0,0,0,0,0.1,0c0.3,0.1,0.5,0.3,0.6,0.5
						c0.1,0.1,0.3,0.3,0.6,0.3l5.6,0.7c0.5,0.1,1.1-0.1,1.1-0.4c0.1-1.3-0.8-2.6-2.8-3.6C405.2,239.1,404.6,238.8,404,238.6z"/>
					<path fill="#1F3B80" d="M398.2,241.4L398.2,241.4c0.2,0,0.4-0.1,0.5-0.2l2.6-2.6c0.3-0.3,0-0.6-0.6-0.6c-2.5-0.2-5.1,0-7.2,0.8
						c-0.4,0.2-0.5,0.5-0.1,0.7l3.9,1.8C397.6,241.4,397.9,241.5,398.2,241.4z"/>
				</g>
				<path fill="#346EE3" d="M402.4,241c1.9,0.9,1.9,2.5,0,3.4s-4.9,0.9-6.8,0s-1.9-2.5,0-3.4S400.5,240.1,402.4,241z"/>
				<path fill="#1F3B80" d="M400.7,241.8c1,0.5,1,1.3,0,1.7c-1,0.5-2.5,0.5-3.5,0s-1-1.3,0-1.7C398.2,241.4,399.7,241.4,400.7,241.8
					z"/>
				<g>
					<path fill="#346EE3" d="M389.7,238c-5.1,2.6-5.1,6.7,0,9.2c5.1,2.6,13.4,2.6,18.5,0s5.1-6.7,0-9.2
						C403.1,235.4,394.8,235.4,389.7,238z M407.6,246.9c-4.8,2.4-12.5,2.4-17.3,0s-4.8-6.3,0-8.6c4.8-2.4,12.5-2.4,17.3,0
						C412.3,240.6,412.3,244.5,407.6,246.9z"/>
				</g>
			</g>
		</g>
	</g>
</g>
<g>
	<text transform="matrix(1 0 0 1 17.45 144.3999)" fill="#F69555" font-family="'MarkerFelt-Wide'" font-size="35px">Turbo</text>
	<text transform="matrix(1 0 0 1 17.45 186.3999)" fill="#F69555" font-family="'MarkerFelt-Wide'" font-size="35px">r</text>
	<text transform="matrix(1 0 0 1 30.35 186.3999)" fill="#F69555" font-family="'MarkerFelt-Wide'" font-size="35px">epairs</text>
</g>
<g>
	<g>
		<path fill="#F69555" d="M78.4,41.8c0.2,1.4-0.3,3.1-1.5,4.9c-0.2,0.3-1.5,1.9-3.8,4.6c-0.3,0.8-0.7,1.6-1,2.3
			c-0.5,0.7-1.1,1.1-1.9,1c-1.5-0.2-2.8-1-4-2.3c-0.4-0.5-0.6-0.9-0.7-1.3c0-0.4,0.1-0.9,0.6-1.2c-0.4-1.2-1-4.5-2.2-9.7
			c-1-4.4-1.6-7.3-1.9-8.9c-0.6-0.7-1-1.4-1.1-2.2c-0.1-0.6,0-1,0.3-1.4c0.2-0.3,0.6-0.4,1-0.5c1.2-0.2,2.3,0.2,3.2,1
			c2.1-1.1,3.8-1.7,5.1-1.9c1.6-0.2,2.7,0.2,3.3,1.3c0.4,0.7,0.7,1.4,0.8,2.2c0.4,2.6-0.4,5.3-2.5,8c1.1,0.3,2.2,0.6,3.3,0.9
			c1,0.3,1.7,0.8,2.1,1.4C78.1,40.5,78.3,41.2,78.4,41.8z M69.4,30.7c-0.6,0-1.5,0.6-2.8,1.7c0,0.2,0.2,0.9,0.4,2
			c0.2,1.1,0.4,1.8,0.5,2.2c0.8-0.8,1.4-1.8,2-2.9c0.6-1.1,0.8-2,0.7-2.5C70.1,30.8,69.8,30.7,69.4,30.7z M72.4,41.5
			C71.1,41.5,70,42,69,43c0.3,1.7,0.6,3.3,0.9,5c2.8-2.5,4.1-4.4,3.9-5.7C73.7,41.8,73.2,41.5,72.4,41.5z"/>
		<path fill="#F69555" d="M93.1,49.6c-0.1,0.9-0.6,1.8-1.5,2.7c-0.1,0.2-0.7,0.6-1.7,1c-1.2,0.5-2.2,0.7-3.1,0.6
			c-1.7-0.1-3-1.1-4.1-2.8c-1-1.7-1.7-3.7-2-6.2c-0.4-2.7-0.3-5,0.4-7.2c0.7-2.3,2-3.8,3.8-4.2c0.4-0.1,0.7-0.1,1-0.1
			c2.7-0.2,4.4,1.7,5.2,5.2c0.4,1.6,0,3.4-1,5.2c-1.2,2-2.8,3.4-4.9,4.2c0.3,0.9,0.6,1.5,0.8,1.7c0.4,0.6,0.8,0.8,1.3,0.8
			s1-0.2,1.6-0.6c0.5-0.3,0.8-0.7,0.9-1c0.1,0,0.1-0.3,0.2-0.8c0-0.5,0.2-0.8,0.6-1c0.1-0.1,0.3-0.1,0.5-0.1c0.5,0,1.1,0.3,1.6,0.8
			C92.9,48.5,93.1,49.1,93.1,49.6z M86.2,37.4c-0.9,0-1.5,0.7-1.9,2.1c-0.5,1.8-0.5,3.5-0.1,5.2c1-0.4,1.9-1.2,2.6-2.5
			s1-2.5,0.8-3.5C87.5,37.9,87,37.4,86.2,37.4z"/>
		<path fill="#F69555" d="M104.4,48.6c0.2,1.6-0.3,2.9-1.3,4s-2.3,1.6-3.8,1.6c-0.9,0-2-0.5-3-1.4c-0.8-0.7-1.6-1.6-2.4-2.7
			c-0.6-0.9-0.9-1.5-0.9-1.8c0.2-0.6,0.9-0.9,2.2-0.9c0.5,0,1,0.1,1.3,0.2c0.6,0.3,0.9,0.7,1,1.1c0.1,0.5,0.3,0.8,0.4,1
			c0.5,0.7,1,1.1,1.4,1.1c0.3,0,0.5-0.2,0.8-0.6c0.2-0.4,0.3-0.9,0.3-1.4c0-0.3-0.1-0.7-0.3-1c-0.1-0.3-0.8-0.9-2-1.6
			c-1.4-0.8-2.4-1.6-3.1-2.2c-1.1-1.1-1.8-2.4-2-4c-0.2-1.8,0-3.4,0.8-4.9s1.9-2.3,3.5-2.4c1.6-0.1,2.9,0.6,3.9,1.9
			c0.8,1.1,1.2,2.2,1.3,3.3c0.3,0.3,0.5,0.8,0.6,1.5s-0.1,1.4-0.5,1.9s-0.9,0.8-1.4,0.8c-0.8,0-1.5-0.5-2.2-1.6
			c-0.2-0.3-0.3-0.7-0.4-1.2c0-0.2-0.1-0.5-0.1-0.9s0-0.7-0.1-0.9c-0.1-0.7-0.3-1-0.8-1c-0.6,0-0.9,0.8-0.7,2.2
			c0.2,1.4,0.8,2.5,1.7,3.4c0.4,0.3,1.2,0.8,2.3,1.4c1,0.5,1.8,1,2.2,1.6C103.9,46.1,104.3,47.2,104.4,48.6z"/>
		<path fill="#F69555" d="M115.1,36.7c-0.2,0-0.5-0.1-0.9-0.2c-0.4-0.2-0.7-0.2-0.9-0.2c-0.2,0-0.3,0-0.5,0.1
			c-0.4,0.3-0.8,0.5-1.2,0.8c0.5,4.5,1,8.6,1.3,12.5c0,0.4,0.3,1,0.8,1.7s0.7,1.2,0.6,1.6c-0.1,0.5-0.4,0.9-0.9,1.2
			s-1.1,0.4-1.7,0.4c-1.2,0-2-0.5-2.5-1.6c-0.2-0.3-0.3-1.3-0.4-3c-0.1-1.1-0.3-2.9-0.5-5.4c-0.3-2.9-0.5-4.8-0.6-5.6
			c-0.1,0.1-0.3,0.2-0.6,0.5c-0.3,0.3-0.6,0.4-0.9,0.5c-0.2,0-0.6-0.1-1-0.2c-1.6-0.6-2.5-1.2-2.6-1.8c0-0.2,0-0.3,0-0.5
			c0.1-0.4,0.4-0.7,0.8-0.7c0.6-0.1,1-0.2,1.1-0.3c0.5-0.3,1.4-0.8,2.6-1.8c-0.1-1.2-0.3-2.4-0.4-3.6c0-0.3-0.1-0.7-0.3-1.1
			c-0.2-0.5-0.3-0.8-0.3-1c0-0.3,0-0.5,0.1-0.8c0.5-1.2,1.2-1.9,2.2-1.9c1.1-0.1,2,0.5,2.6,1.7c0.2,0.5,0.4,0.9,0.4,1.1
			c0,0.4-0.1,0.7-0.3,1.1c-0.2,0.4-0.3,0.7-0.3,1.1c0.1,0.7,0.2,1.4,0.2,2.1c0.4-0.2,0.8-0.6,1.2-1.2c0.3-0.4,0.6-0.6,0.9-0.6
			c0.1,0,0.2,0,0.4,0.1c1.5,0.4,2.3,1.5,2.5,3.1c0.1,0.5,0,1-0.2,1.5C115.8,36.5,115.5,36.7,115.1,36.7z"/>
		<path fill="#F69555" d="M141,42.6c-0.3,0.5-0.8,0.7-1.5,0.7c-0.6,0-1.2,0-1.8,0.1c-0.1,2.6-0.5,4.8-1.1,6.8
			c-0.7,2-1.6,3.2-2.5,3.6c-0.2,0.1-0.3,0.1-0.5,0.1c-0.9,0-1.9-0.5-3.1-1.5c-1.3-1.1-2.4-2.6-3.3-4.4c-1.1-2.2-1.7-4.5-2-7.2
			c-0.4-4.5-0.3-8.9,0.3-13.2c0.8-5.1,2.3-8.4,4.5-8.5c1.6-0.2,3.1,1.5,4.4,4.6c1,2.3,1.8,5.3,2.4,8.5c0.4,0.6,0.6,1.2,0.7,1.9
			c0.1,0.7-0.1,1.3-0.4,1.8c-0.3,0.4-0.7,0.7-1.3,0.7s-1.3-0.2-2-0.5c-0.7-0.4-1.2-0.8-1.5-1.2c-0.2-0.3-0.3-0.5-0.3-0.8
			c0,0.1,0.1-0.4,0.1-1.7c-0.6-3.5-1.2-5.4-1.6-5.4c-0.4,0-0.7,1.9-0.9,5.2c-0.3,3.4-0.3,6.2-0.1,8.5c0.2,1.6,0.5,3.4,1.2,5.3
			c0.6,1.9,1.1,2.8,1.4,2.8c0.3,0,0.6-0.5,1-1.5c0.3-1,0.5-2.1,0.5-3.2c-0.6-0.3-1.1-0.7-1.7-1.4c-0.7-0.8-1-1.5-1.1-2.1
			c0-0.4,0.1-0.8,0.4-1.1c0.3-0.3,0.8-0.5,1.5-0.5c2-0.1,3.1-0.1,3.3-0.2c0.3-0.2,0.7-0.4,1-0.6c0.4-0.2,0.7-0.3,1-0.3
			c0.7,0,1.4,0.4,2.1,1.1c0.7,0.7,1.1,1.5,1.2,2.3C141.3,41.8,141.3,42.2,141,42.6z"/>
		<path fill="#F69555" d="M156.3,51.7c-0.3,1.1-1.1,1.7-2.4,1.7c-0.4,0-0.8-0.1-1.1-0.2c-0.4-0.2-0.6-0.7-0.8-1.5
			c-0.3-1.3-0.6-2.3-1-3.1c0,1.3-0.6,2.6-1.8,3.9c-1.2,1.3-2.5,1.9-3.7,1.9c-1.6,0-2.7-1.1-3.5-3.3c-0.3-0.8-0.4-1.6-0.5-2.4
			c-0.1-2.2,0.8-4.1,2.7-5.8c1.6-1.2,3.3-2.4,5-3.7c0.1-0.5,0.1-0.9,0-1.4c-0.1-0.9-0.3-1.4-0.7-1.5c-0.4-0.2-0.7-0.2-1-0.2
			c-0.5,0-0.8,0.2-1.1,0.6c-0.3,0.4-0.5,0.8-0.8,1.1c-0.2,0.2-0.6,0.7-0.9,1.5c-0.3,0.6-0.6,1-1,1c-0.6,0.1-1.1-0.1-1.6-0.7
			c-0.5-0.6-0.8-1.2-0.9-2c0-0.4,0-0.9,0.2-1.2c0.4-1.1,1.1-2.1,2.1-2.9c1.5-1.3,3.4-2,5.7-2.1c1.5,0,2.6,1,3.3,2.9
			c0.4,1.3,0.9,3.7,1.3,6.8c0.5,3.8,0.9,6.3,1.2,7.8c0.1,0.3,0.3,0.7,0.6,1.2c0.4,0.5,0.5,0.9,0.6,1.2
			C156.4,51.3,156.4,51.5,156.3,51.7z M150,42.8c-0.6,0.4-1.3,0.8-1.9,1.3c-0.6,0.4-1.2,1-1.7,1.7c-0.7,1-1.1,1.8-1,2.5
			c0,0.6,0.3,1.2,0.7,1.8c0.2,0.3,0.5,0.5,0.8,0.5c0.6,0,1.2-0.7,1.8-2C149.2,47.1,149.7,45.2,150,42.8z"/>
		<path fill="#F69555" d="M169.3,33.1c-0.1,0.7-0.5,1.1-1.2,1.4c-0.9,0.3-1.4,0.7-1.6,1.1c-1.6,2.8-3.3,5.4-5,7.9
			c0.1,2,0.2,3.8,0.3,5.6c0,0.5,0.2,1,0.5,1.6c0.3,0.5,0.5,0.9,0.5,1.2s-0.1,0.6-0.2,0.9c-0.3,0.9-1.1,1.3-2.2,1.3
			c-0.8,0-1.4-0.3-1.9-0.8c-0.3-0.3-0.5-0.8-0.5-1.3c0-0.2,0-0.5,0-0.9s0-0.8,0-1c-0.2-4.4-0.5-9.1-0.9-14.6c0-0.3-0.1-0.6-0.3-1
			s-0.3-0.7-0.3-1c0-0.2,0-0.4,0.1-0.6c0.2-0.8,1.1-1.2,2.6-1.2c1.2,0,1.9,0.4,2.1,1.1c0.1,0.3,0.1,0.6,0.2,0.8
			c0,0.3-0.1,0.6-0.2,0.8c-0.2,0.2-0.2,0.4-0.2,0.5c0.1,0.5,0.1,1.1,0.2,1.6c0.9-1.3,1.7-2.7,2.6-4.2c0.3-0.5,0.6-1.1,1-1.7
			c0.3-0.6,0.7-0.9,1.2-1c0.8-0.1,1.5,0.1,2.2,0.7s1.1,1.3,1.2,2.3C169.4,32.8,169.4,32.9,169.3,33.1z"/>
		<path fill="#F69555" d="M184.1,51.6c-0.3,1.1-1.1,1.7-2.4,1.7c-0.4,0-0.8-0.1-1.1-0.2c-0.4-0.2-0.6-0.7-0.8-1.5
			c-0.3-1.3-0.6-2.4-0.9-3.1c0,1.3-0.6,2.6-1.9,3.9c-1.2,1.3-2.5,1.9-3.8,1.9c-1.6,0-2.7-1.1-3.4-3.3c-0.3-0.8-0.4-1.6-0.4-2.4
			c-0.1-2.2,0.8-4.2,2.9-6c1.7-1.2,3.3-2.5,5-3.8c0.1-0.5,0.1-1,0.1-1.4c0-0.9-0.3-1.5-0.7-1.6c-0.4-0.2-0.7-0.2-1-0.2
			c-0.5,0-0.8,0.2-1.1,0.6c-0.3,0.4-0.5,0.8-0.8,1.1c-0.3,0.2-0.6,0.8-0.9,1.6c-0.3,0.7-0.6,1-1,1.1c-0.6,0.1-1.1-0.2-1.6-0.7
			c-0.5-0.6-0.8-1.3-0.8-2.1c0-0.5,0-0.9,0.2-1.3c0.4-1.1,1.2-2.2,2.1-3.1c1.5-1.4,3.4-2.1,5.8-2.2c1.5,0,2.6,1,3.2,3.1
			c0.4,1.3,0.8,3.8,1.1,7.1c0.4,3.9,0.7,6.4,1.1,8c0.1,0.3,0.3,0.7,0.6,1.2s0.5,0.9,0.5,1.2C184.2,51.3,184.2,51.5,184.1,51.6z
			 M178,42.6c-0.6,0.4-1.3,0.9-1.9,1.3c-0.6,0.4-1.2,1-1.7,1.7c-0.7,1-1.1,1.9-1.1,2.6c0,0.6,0.2,1.2,0.7,1.8
			c0.2,0.3,0.5,0.5,0.7,0.5c0.6,0,1.2-0.7,1.8-2.1S177.6,45.1,178,42.6z"/>
		<path fill="#F69555" d="M196.5,31.6c0.1,2.9,0.4,7.3,0.7,12.4c0.2,3.6,0.3,5.9,0.3,7.3c0.1,3-0.2,5-0.6,6.1
			c-0.5,1.1-1.4,1.6-2.8,1.7c-1.8,0.2-3.3-0.3-4.7-1.4c-0.7-0.2-1.1-0.4-1.3-0.5c-0.4-0.2-0.6-0.6-0.7-1.1c-0.2-1,0.6-1.6,2.4-1.6
			c0.5,0,0.9,0.1,1.3,0.2c0.3,0.1,0.7,0.3,1,0.8c0.4,0.5,0.7,0.7,1.1,0.7c0.6,0,1-0.9,0.9-2.7c0-0.8-0.1-2.1-0.3-4.1
			c-0.8,1.4-1.3,2.3-1.7,2.8c-0.7,0.8-1.6,1.2-2.5,1.2c-1.4,0-2.5-1-3.4-3c-0.8-1.8-1.3-4.1-1.4-7.1c-0.1-3,0.2-5.9,0.9-8.4
			c0.8-2.8,2-4.4,3.7-4.5c0.9,0,1.6,0.2,2,0.8c0.4,0.6,0.9,1.1,1.3,1.7c-0.3-1.2-0.3-2.1,0.1-2.7c0.2-0.4,0.6-0.6,1.1-0.6
			s0.9,0.2,1.4,0.5C196,30.7,196.3,31.1,196.5,31.6z M192.9,43c0-1.5-0.2-3.1-0.6-4.6c-0.5-1.7-1.1-2.6-1.8-2.6
			c-0.6,0-1.1,0.9-1.4,2.6c-0.3,1.5-0.5,3-0.5,4.6s0.2,3,0.4,4.2c0.4,1.4,0.8,2.1,1.4,2.1c0.5,0,1-0.7,1.6-2.1
			C192.5,45.9,192.8,44.4,192.9,43z"/>
		<path fill="#F69555" d="M211.3,49.4c-0.2,0.9-0.7,1.9-1.7,2.8c-0.2,0.3-0.8,0.6-1.8,1c-1.2,0.5-2.2,0.7-3.1,0.6
			c-1.7-0.1-3-1.1-3.9-3c-0.9-1.8-1.4-3.9-1.5-6.8c-0.1-3.1,0.3-6,1.2-8.8c1-3.1,2.4-5,4.2-5.4c0.4-0.1,0.7-0.1,1-0.1
			c2.7-0.1,4.2,2.6,4.6,7.1c0.2,2-0.4,4.1-1.6,6.2c-1.4,2.3-3.1,3.8-5.3,4.7c0.3,1,0.5,1.6,0.6,1.9c0.3,0.6,0.7,0.9,1.3,0.9
			c0.5,0,1-0.2,1.6-0.6c0.5-0.4,0.8-0.7,1-1c0.1,0,0.2-0.3,0.2-0.8c0.1-0.5,0.3-0.9,0.7-1.1c0.1-0.1,0.3-0.1,0.5-0.1
			c0.5,0,1.1,0.3,1.6,0.9C211.2,48.2,211.4,48.8,211.3,49.4z M205.8,35.1c-0.9,0-1.6,0.9-2.1,2.6C203,40,202.8,42,203,44
			c1-0.4,2-1.3,2.8-2.8s1.3-3,1.2-4.2C207,35.7,206.6,35.1,205.8,35.1z"/>
		<path fill="#F69555" d="M226.4,52.8c-0.2,0.6-0.8,0.9-1.7,0.9c-0.3,0-0.6,0-0.9-0.1c-1.8-0.3-2.9-0.8-3.2-1.7
			c-0.1-0.2-0.1-0.3-0.1-0.5c0-0.5,0.2-1,0.7-1.5c-0.1-3.9-0.4-9.9-1-28c0-0.5-0.1-1.1-0.3-1.9c-0.2-0.7-0.3-1.3-0.3-1.6
			c0-0.8,0.2-1.6,0.7-2.5c0.4-0.6,0.9-0.9,1.5-1c0.7,0,1.5,0.4,2.4,1.1c1,0.9,1.5,2,1.5,3.3c0,0.3-0.2,1.4-0.7,3.3
			c0.2,12,0.5,20.3,0.6,27.5c0,0.3,0.1,0.6,0.3,1.1c0.2,0.4,0.3,0.8,0.3,1C226.4,52.5,226.4,52.6,226.4,52.8z"/>
		<path fill="#F69555" d="M243.1,50.8c0,0.5-0.4,0.9-1,1.3c-0.6,0.4-1.3,0.5-2,0.5c-1.1,0-1.8-0.4-2.2-1.1c0.2-7.1,0-11.9-0.6-12
			c-0.6-0.2-1.9,4.1-4,10.7c0,0.7,0,1.4,0,2.1c0,0.8-0.2,1.4-0.6,1.7c-0.4,0.3-0.8,0.5-1.3,0.5c-0.8,0-1.6-0.4-2.5-1.3
			c-0.3-0.2-0.4-1.9-0.5-5.4c0,1.8,0-0.9-0.1-13.4c0-0.3,0-0.7-0.1-1.2c0-0.5-0.1-0.9-0.1-1.1c0-0.6,0.1-1.2,0.3-1.7
			c0.3-0.6,0.7-0.9,1.3-0.9s1.2,0.3,1.9,0.9s1.1,1.1,1.2,1.6c0.1,0.3,0.1,0.7,0.1,1s-0.1,0.8-0.3,1.4c-0.2,0.6-0.3,1-0.3,1.4
			c0,2.1,0,4.1,0,6c1.4-3.7,2.4-6.5,3.1-7.9c1.3-2.4,2.7-3.6,4.3-3.4c1,0.1,1.6,1.5,2,4c0.3,1.8,0.5,4.5,0.5,7.6c0,2.5,0,4.7,0,6.9
			c0,0.2,0.2,0.5,0.5,0.9C243.1,50.2,243.1,50.5,243.1,50.8z"/>
		<path fill="#F69555" d="M283.5,16c0.2,0.7,0.3,1.4,0.3,2c0,0.5-0.2,1.2-0.4,2c-0.3,1-0.6,1.7-0.6,2.1c-2,9.6-3.9,16.8-5.7,23
			c-0.2,0.5-0.3,1.2-0.3,1.9c0,0.3,0,0.8,0,1.4c0,0.6,0,1,0,1.3c0,1.3-0.4,2.2-1.3,2.7c-0.8,0.5-1.7,0.8-2.6,0.8
			c-1.2,0-2.2-0.4-3.1-1.3c-0.5-0.5-0.8-1.2-0.8-2.1c0-0.3,0-0.7,0.1-1.3s0.1-1.1,0.1-1.4c0-0.4,0-0.8-0.1-1.2
			c-0.9-3.8-1.7-8.1-2.6-13.1c-1.3,5.8-2.5,10.6-3.7,15c-0.1,0.3,0,0.6,0.3,1.1c0.3,0.4,0.4,0.7,0.4,1c0,1.9-0.5,3.4-1.4,4.5
			c-0.5,0.5-1.1,0.8-1.9,0.8c-1.2,0-2.1-0.5-2.7-1.4c-0.2-0.3-0.3-0.7-0.3-1.2c0-0.7,0-1.1-0.1-1.4c-1.5-7.2-3-15.6-4.5-27.8
			c0-0.4-0.2-1-0.4-1.8c-0.2-0.7-0.3-1.3-0.3-1.7c0-1.1,0.4-2.1,1.1-2.9c0.6-0.7,1.2-1,1.9-1s1.3,0.4,1.8,1.1
			c0.4,0.6,0.6,1.5,0.6,2.6c0,1.2,0.1,2.3,0.1,3.4c0.7,7.6,1.4,13.7,2.1,19c1.3-5.7,2.7-12.3,4.2-20.7c0.1-0.3,0-0.8-0.1-1.4
			s-0.1-1-0.1-1.3c0-0.5,0.1-1.1,0.4-1.7c0.4-1.1,1.2-1.6,2.4-1.6c1.4,0,2.4,0.8,2.9,2.4c0.2,0.6,0.3,1.2,0.3,1.8
			c0,0.3-0.1,0.7-0.1,1.3c-0.1,0.6-0.1,1-0.1,1.3s0,0.5,0.1,0.8c1.1,7.7,2.2,13.9,3.3,19.2c1.5-5.6,3-12.1,4.6-20.2
			c0.1-0.2,0.1-1.3,0.2-3.4c0.1-1.4,0.3-2.4,0.8-3c0.8-1.1,1.7-1.7,2.7-1.7C282.4,13.9,283.1,14.6,283.5,16z"/>
		<path fill="#F69555" d="M296.1,49.4c-0.2,0.9-0.8,1.8-1.9,2.8c-0.2,0.3-0.8,0.6-1.8,1c-1.2,0.5-2.3,0.7-3.2,0.6
			c-1.6-0.1-2.9-1.1-3.8-3c-0.8-1.8-1.2-3.9-1.1-6.8c0.1-3.1,0.7-6,1.8-8.8c1.2-3,2.7-4.9,4.6-5.3c0.4-0.1,0.7-0.1,1-0.1
			c2.7,0,4,2.7,4.1,7c0,2-0.6,4-2,6.1c-1.5,2.3-3.4,3.8-5.6,4.6c0.2,1,0.4,1.6,0.5,1.9c0.3,0.6,0.7,0.9,1.2,0.9s1.1-0.2,1.6-0.6
			c0.5-0.4,0.8-0.7,1-1c0.1,0,0.2-0.3,0.3-0.8c0.1-0.5,0.3-0.9,0.7-1.1c0.1-0.1,0.3-0.1,0.5-0.1c0.5,0,1,0.3,1.5,0.9
			C296,48.2,296.2,48.8,296.1,49.4z M291.4,35.3c-0.9,0-1.7,0.9-2.3,2.5c-0.8,2.2-1.2,4.3-1.1,6.2c1.1-0.4,2.1-1.3,3-2.8
			s1.5-2.9,1.5-4.2C292.5,35.9,292.2,35.3,291.4,35.3z"/>
		<path fill="#F69555" d="M307.5,48.4c-0.1,1.7-0.7,3-1.8,4.2c-1.1,1.1-2.4,1.7-3.9,1.7c-0.9,0-1.9-0.5-2.9-1.4
			c-0.8-0.7-1.5-1.7-2.1-2.8c-0.5-1-0.7-1.6-0.7-1.9c0.3-0.6,1-0.9,2.3-0.9c0.5,0,0.9,0.1,1.2,0.3c0.5,0.3,0.8,0.7,0.8,1.2
			c0,0.6,0.1,0.9,0.3,1c0.4,0.8,0.8,1.1,1.2,1.1c0.3,0,0.6-0.2,0.8-0.6c0.3-0.4,0.4-0.9,0.4-1.5c0-0.4,0-0.7-0.1-1.1
			c-0.1-0.4-0.7-0.9-1.7-1.7c-1.3-0.9-2.2-1.8-2.7-2.5c-0.9-1.3-1.3-2.8-1.2-4.6c0.1-2.1,0.7-4.1,1.7-5.9c1.1-1.8,2.4-2.7,3.9-2.7
			c1.6,0,2.7,1,3.5,2.7c0.6,1.4,0.8,2.7,0.6,4c0.2,0.4,0.3,0.9,0.3,1.7c0,0.9-0.3,1.6-0.8,2.1c-0.5,0.6-1,0.8-1.5,0.8
			c-0.8,0-1.4-0.6-1.9-1.9c-0.1-0.3-0.2-0.8-0.2-1.4c0-0.3,0-0.6,0.1-1.1s0.1-0.8,0.1-1c0-0.8-0.2-1.2-0.6-1.2c-0.6,0-1,0.9-1.1,2.5
			c-0.1,1.7,0.3,3,1.1,3.9c0.3,0.4,1,0.9,2.1,1.6c0.9,0.6,1.6,1.2,1.9,1.7C307.3,45.8,307.6,47,307.5,48.4z"/>
		<path fill="#F69555" d="M320.2,35.8c-0.2,0-0.5-0.1-0.8-0.3c-0.4-0.2-0.7-0.3-0.9-0.3c-0.2,0-0.3,0-0.5,0.1
			c-0.4,0.3-0.9,0.6-1.3,0.8c-0.3,5-0.6,9.4-0.8,13.4c0,0.4,0.2,1,0.6,1.7s0.6,1.2,0.5,1.6c-0.1,0.5-0.5,0.9-1,1.2s-1.1,0.4-1.7,0.4
			c-1.2,0-2-0.5-2.4-1.6c-0.1-0.3-0.2-1.3-0.1-3.1c0-1.2,0.1-3,0.3-5.7c0.2-3.1,0.4-5.3,0.4-6.2c-0.1,0.1-0.4,0.2-0.7,0.6
			c-0.3,0.3-0.7,0.5-1,0.5c-0.2,0-0.6-0.1-0.9-0.3c-1.5-0.7-2.3-1.4-2.2-2.1c0-0.2,0.1-0.4,0.1-0.6c0.2-0.5,0.5-0.7,0.9-0.8
			c0.7-0.1,1.1-0.2,1.2-0.3c0.5-0.3,1.5-0.9,2.9-1.9c0.1-1.4,0.2-2.8,0.2-4.3c0-0.3,0-0.8-0.1-1.4s-0.1-1-0.1-1.3s0.1-0.6,0.2-0.9
			c0.7-1.4,1.5-2.2,2.5-2.1c1.1,0,1.9,0.8,2.3,2.3c0.1,0.6,0.2,1,0.2,1.4s-0.2,0.8-0.5,1.3c-0.3,0.4-0.5,0.8-0.5,1.2
			c-0.1,0.8-0.1,1.6-0.1,2.4c0.4-0.2,0.9-0.7,1.4-1.3c0.4-0.4,0.7-0.7,1-0.7c0.1,0,0.2,0,0.4,0.1c1.4,0.6,2,1.9,1.9,3.7
			c0,0.6-0.2,1.1-0.5,1.6C320.9,35.6,320.6,35.8,320.2,35.8z"/>
		<path fill="#F69555" d="M342.3,47.8c0.1,0.3,0.2,0.6,0.1,1c0,0.6-0.2,1.1-0.6,1.7c-0.4,0.5-0.8,0.9-1.2,1
			c-0.5,0.2-1.1,0.3-1.9,0.3s-1.4,0.1-1.8,0.2c-0.4,0.1-0.8,0.5-1.3,1.1c-0.4,0.5-1.2,0.8-2.2,0.9c-0.6,0.1-1.3-0.1-1.9-0.7
			c-0.6-0.5-1.1-1.2-1.3-2c0-0.2-0.1-0.3,0-0.4c0-0.3,0.2-0.6,0.5-1s0.5-0.7,0.5-1c-0.1-7.1,0.2-15.2,0.5-26.3c0-0.1-0.1-0.5-0.3-1
			c-0.2-0.6-0.3-1-0.3-1.4c0-0.5,0.2-1,0.6-1.5c0.5-0.7,1.2-1,2.1-1c0.7,0.1,1.4,0.4,2.1,1s1,1.2,1.2,2c0.1,0.4,0.1,0.8,0.1,1.1
			c0,0.3-0.1,0.6-0.4,1c-0.2,0.3-0.3,0.6-0.3,0.9c-0.3,9.8-0.6,17.3-0.6,23.9c0.7-0.3,1.4-0.6,2-0.9c0.4-0.2,0.9-0.4,1.3-0.6
			c0.4-0.2,0.8-0.3,1.1-0.3C340.9,45.5,341.6,46.3,342.3,47.8z"/>
		<path fill="#F69555" d="M354.5,33.9c1.3,2,1.7,5.2,1.3,9.2c-0.3,3.1-1,5.6-2.2,7.6c-1.3,2.3-3,3.3-5,3.3s-3.6-1-4.5-3
			c-0.9-1.8-1.2-4.1-1-7.1c0.2-2.6,0.8-5.2,1.8-7.5c1-2.5,2.2-4.1,3.5-4.5c0.7-0.2,1.4-0.3,2.1-0.3
			C352.2,31.6,353.5,32.4,354.5,33.9z M350.4,35.8c-0.7-0.1-1.4,0.8-2.1,2.5c-0.6,1.6-1,3.2-1.1,4.8c-0.2,2.4-0.2,3.9-0.1,4.8
			c0.2,1.6,0.8,2.5,1.7,2.7c0.6,0.1,1.2-0.8,1.9-2.7c0.6-1.8,1.1-3.8,1.3-6.1C352.3,38.2,351.8,36,350.4,35.8z"/>
		<path fill="#F69555" d="M371.5,51c-0.1,0.5-0.4,0.9-1,1.3c-0.6,0.3-1.3,0.5-2,0.5c-1.1,0-1.8-0.3-2.1-1c0.7-6.9,1-11,0.4-11.1
			c-0.5-0.1-2.4,3.5-5,9.8c0,0.7-0.1,1.4-0.1,2c-0.1,0.8-0.3,1.4-0.7,1.7c-0.4,0.3-0.9,0.5-1.3,0.5c-0.8,0-1.6-0.4-2.5-1.3
			c-0.2-0.2-0.3-1.9-0.1-5.2c-0.1,1.8,0-1.2,1.2-12.2c0-0.2,0-0.6,0-1s0-0.7,0-0.9c0.1-0.5,0.2-1,0.5-1.4c0.3-0.5,0.8-0.8,1.4-0.7
			c0.6,0,1.2,0.3,1.8,0.8c0.6,0.5,1,1,1,1.4c0.1,0.3,0.1,0.6,0,0.8c0,0.3-0.2,0.7-0.4,1.1c-0.2,0.5-0.4,0.9-0.4,1.2
			c-0.2,1.8-0.4,3.6-0.6,5.3c1.7-3.3,3.1-5.7,3.9-6.8c1.5-2,3.1-2.9,4.7-2.7c1,0.1,1.5,1.3,1.7,3.3c0.1,1.5,0,3.7-0.3,6.5
			c-0.2,2.2-0.5,4.3-0.6,6.3c0,0.2,0.2,0.4,0.4,0.9C371.5,50.3,371.5,50.6,371.5,51z"/>
		<path fill="#F69555" d="M384.8,52.9c-0.3,0.6-1.1,0.9-2.5,0.9c-0.9,0-1.4-0.2-1.7-0.5c-0.1-0.1-0.1-0.3-0.1-0.5s0.1-0.4,0.2-0.7
			s0.2-0.6,0.3-0.8c-1.1,1.5-2.4,2.2-3.7,2.2c-1.8,0-3.1-1-3.8-3.2c-0.5-1.6-0.6-3.8-0.3-6.5c0.3-2.5,1.1-4.9,2.4-7.2
			c1.4-2.4,3-3.7,4.6-3.6c0.9,0,1.7,1,2.5,2.7c0.2-1.7,0.4-3.4,0.7-5.1c0.1-0.4,0-1-0.2-1.7s-0.3-1.3-0.2-1.6c0-0.3,0.1-0.6,0.3-0.8
			c0.6-1.3,1.6-1.8,3-1.7c1.1,0.1,1.8,0.7,1.9,1.7c0,0.3,0.1,0.7,0,1c0,0.3-0.2,0.7-0.4,1.2c-0.2,0.5-0.3,0.9-0.4,1.3
			c-1,7.7-2.1,14.4-2.6,20.7c0,0.2,0,0.5,0.2,0.9c0.1,0.3,0.2,0.6,0.2,0.9C384.9,52.5,384.9,52.7,384.8,52.9z M381.1,43.9
			c0.1-1.1,0.1-2.4-0.1-3.9c-0.3-1.6-0.6-2.5-1.1-2.5s-1,0.8-1.5,2.3c-0.4,1.2-0.7,2.6-0.9,4.1c0,0.3-0.1,0.7-0.2,1.3
			s-0.1,1-0.1,1.3c-0.3,2.6,0.2,3.9,1.2,3.9c0.5,0,1-0.7,1.6-2.2C380.5,46.7,380.9,45.3,381.1,43.9z"/>
		<path fill="#F69555" d="M399.1,35.5c1.2,1.7,1.5,4.4,1,8.1c-0.4,2.8-1.2,5.2-2.5,7.1c-1.4,2.2-3,3.3-5.1,3.3c-2,0-3.5-1-4.5-3
			c-0.8-1.7-1.1-4-0.7-6.7c0.3-2.5,1-4.7,2.1-6.8c1.1-2.2,2.3-3.5,3.7-3.8c0.7-0.2,1.4-0.2,2.1-0.2
			C396.9,33.5,398.2,34.2,399.1,35.5z M395,37.1c-0.7-0.1-1.5,0.6-2.2,2.2c-0.7,1.4-1.1,2.9-1.3,4.4c-0.3,2.2-0.4,3.7-0.3,4.6
			c0.1,1.6,0.7,2.4,1.7,2.6c0.6,0.1,1.3-0.8,2-2.6c0.7-1.7,1.2-3.6,1.5-5.7C396.8,39.1,396.4,37.3,395,37.1z"/>
		<path fill="#F69555" d="M415.5,51.1c-0.1,0.5-0.5,0.9-1.1,1.2s-1.3,0.5-2,0.5c-1.1,0-1.8-0.3-2.1-1c0.9-6.7,1.5-10.2,0.9-10.3
			c-0.5-0.1-2.5,2.9-5.4,9.1c-0.1,0.7-0.1,1.3-0.2,2c-0.1,0.8-0.3,1.4-0.8,1.7c-0.4,0.3-0.9,0.5-1.3,0.5c-0.8,0-1.6-0.4-2.5-1.3
			c-0.2-0.2-0.3-1.9,0.1-5c-0.2,1.9,0.1-1.5,1.7-11c0-0.2,0.1-0.5,0.1-0.9s0-0.6,0.1-0.8c0.1-0.4,0.2-0.8,0.5-1.2s0.8-0.6,1.4-0.6
			s1.2,0.3,1.8,0.7c0.6,0.4,0.9,0.8,1,1.2c0.1,0.2,0.1,0.5,0,0.7c0,0.2-0.2,0.5-0.4,1c-0.3,0.4-0.4,0.7-0.4,1
			c-0.3,1.6-0.5,3.1-0.8,4.7c1.9-3,3.3-5,4.2-5.9c1.6-1.6,3.2-2.3,4.8-2.1c1,0.1,1.5,1,1.6,2.7c0.1,1.3-0.1,3.2-0.5,5.6
			c-0.3,2-0.6,3.9-0.9,5.9c0,0.2,0.1,0.4,0.4,0.8C415.5,50.5,415.6,50.7,415.5,51.1z"/>
	</g>
</g>
<g>
	<path fill="#F6AD55" d="M35.6,64.3C181,70,326.7,70,472.1,64.3"/>
	<path fill="none" stroke="#F7941D" stroke-width="3" stroke-miterlimit="10" d="M35.6,64.3C181,70,326.7,70,472.1,64.3"/>
</g>
<rect x="26.6" y="204.3" fill="none" width="122" height="69.8"/>
<text transform="matrix(1 0 0 1 15.3555 218.3633)" font-family="'MarkerFelt-Thin'" font-size="15.3187px">We pride ourselves on our good </text>
<text transform="matrix(1 0 0 1 15.3555 233.6328)" font-family="'MarkerFelt-Thin'" font-size="15.3187px">reputation for client service, </text>
<text transform="matrix(1 0 0 1 15.3555 249.0645)" font-family="'MarkerFelt-Thin'" font-size="15.3187px">customer satisfaction and </text>
<text transform="matrix(1 0 0 1 15.3555 264.3359)" font-family="'MarkerFelt-Thin'" font-size="15.3187px">offering a personalised service.</text>
<g>
	<g>
		<path fill="#00B67A" d="M99.5,274h13.2V290H99.5V274z M113.9,274h13.2V290h-13.2V274z M128.2,274h13.2V290h-13.2V274z M142.5,274
			h13.2V290h-13.2V274z M156.8,274H170V290h-13.2V274z"/>
	</g>
	<path fill="#FFFFFF" d="M106.2,284.8l2.1-0.6l0.8,3.2L106.2,284.8z M110.8,280.6h-3.5l-1.1-4l-1.1,4h-3.5l2.9,2.5l-1.1,4l2.9-2.5
		l1.7-1.6L110.8,280.6z M120.5,284.8l2.1-0.6l0.8,3.2L120.5,284.8z M125.1,280.6h-3.5l-1.1-4l-1.1,4h-3.5l2.9,2.5l-1.1,4l2.9-2.5
		l1.7-1.6L125.1,280.6z M134.8,284.8l2.1-0.6l0.8,3.2L134.8,284.8z M139.5,280.6H136l-1.1-4l-1.1,4h-3.5l2.9,2.5l-1.1,4l2.9-2.5
		l1.7-1.6L139.5,280.6z M149.2,284.8l2.1-0.6l0.8,3.2L149.2,284.8z M153.8,280.6h-3.5l-1.1-4l-1.1,4h-3.5l2.9,2.5l-1.1,4l2.9-2.5
		l1.7-1.6L153.8,280.6z M163.5,284.8l2.1-0.6l0.8,3.2L163.5,284.8z M168.1,280.6h-3.5l-1.1-4l-1.1,4h-3.5l2.9,2.5l-1.1,4l2.9-2.5
		l1.7-1.6L168.1,280.6z"/>
</g>
<path d="M35.9,276.5H44v1.4h-3.2v8.4h-1.7v-8.4h-3.2V276.5z M43.5,279.2H45v1.4l0,0c0-0.2,0.2-0.3,0.3-0.6c0.2-0.2,0.3-0.3,0.5-0.5
	c0.2-0.2,0.5-0.3,0.6-0.3c0.2-0.2,0.5-0.2,0.6-0.2c0.2,0,0.3,0,0.3,0h0.2v1.6c-0.2,0-0.2,0-0.3,0c-0.2,0-0.2,0-0.3,0
	c-0.3,0-0.5,0-0.8,0.2s-0.5,0.3-0.6,0.5c-0.2,0.2-0.3,0.5-0.5,0.8c-0.2,0.3-0.2,0.6-0.2,1.1v3.5h-1.6L43.5,279.2z M55.2,286.4h-1.6
	v-1l0,0c-0.2,0.3-0.5,0.6-1,1c-0.3,0.2-0.8,0.3-1.1,0.3c-1,0-1.6-0.2-2.1-0.6c-0.5-0.5-0.6-1.1-0.6-2.1v-4.6h1.6v4.5
	c0,0.6,0.2,1.1,0.3,1.3c0.3,0.3,0.6,0.5,1,0.5c0.3,0,0.6,0,0.8-0.2c0.2-0.2,0.5-0.3,0.5-0.5c0.2-0.2,0.3-0.3,0.3-0.6
	s0.2-0.5,0.2-0.8v-4.1H55L55.2,286.4L55.2,286.4z M57.9,284.1c0,0.5,0.2,0.8,0.5,1s0.6,0.3,1.1,0.3c0.2,0,0.3,0,0.5,0
	c0.2,0,0.3,0,0.5-0.2c0.2,0,0.3-0.2,0.5-0.3c0.2-0.2,0.2-0.3,0.2-0.5s-0.2-0.3-0.2-0.5c-0.2-0.2-0.3-0.2-0.5-0.3
	c-0.2-0.2-0.5-0.2-0.8-0.2s-0.6-0.2-0.8-0.2c-0.2,0-0.6-0.2-0.8-0.3c-0.3-0.2-0.5-0.2-0.8-0.3c-0.2-0.2-0.5-0.3-0.5-0.6
	c-0.2-0.3-0.2-0.5-0.2-1c0-0.5,0.2-0.8,0.3-1c0.2-0.3,0.5-0.5,0.8-0.6c0.3-0.2,0.6-0.3,1-0.3s0.6-0.2,1-0.2c0.3,0,0.8,0,1.1,0.2
	s0.6,0.2,1,0.3c0.3,0.2,0.5,0.5,0.6,0.6c0.2,0.3,0.3,0.6,0.3,1H61c-0.2-0.3-0.3-0.6-0.5-0.8c-0.3-0.2-0.6-0.2-1-0.2
	c-0.2,0-0.3,0-0.5,0s-0.3,0-0.5,0.2c-0.2,0-0.3,0.2-0.3,0.2s-0.2,0.2-0.2,0.3c0,0.2,0,0.3,0.2,0.5c0.2,0.2,0.3,0.2,0.5,0.3
	c0.2,0.2,0.5,0.2,0.8,0.2c0.3,0,0.6,0.2,0.8,0.2c0.3,0,0.6,0.2,0.8,0.3c0.3,0.2,0.5,0.2,0.8,0.3c0.2,0.2,0.5,0.3,0.5,0.6
	s0.2,0.5,0.2,1c0,0.5-0.2,0.8-0.3,1.1c-0.2,0.3-0.5,0.5-0.8,0.8c-0.3,0.2-0.6,0.3-1.1,0.5c-0.3,0.2-0.8,0.2-1.1,0.2
	c-0.5,0-1,0-1.3-0.2s-0.8-0.3-1-0.5c-0.3-0.2-0.5-0.5-0.6-0.8c-0.2-0.3-0.3-0.6-0.3-1.1H57.9L57.9,284.1L57.9,284.1z M63.1,279.2
	h1.3V277H66v2.2h1.4v1.1H66v3.8c0,0.2,0,0.3,0,0.5s0,0.2,0.2,0.3c0,0.2,0.2,0.2,0.2,0.2c0.2,0,0.3,0,0.5,0s0.2,0,0.3,0s0.2,0,0.3,0
	v1.3c-0.2,0-0.3,0-0.5,0s-0.3,0-0.5,0c-0.5,0-0.8,0-1-0.2c-0.3-0.2-0.5-0.2-0.6-0.3c-0.2-0.2-0.3-0.3-0.3-0.6c0-0.2-0.2-0.5-0.2-0.8
	v-4.3h-1.3V279.2L63.1,279.2z M68.5,279.2h1.4v1l0,0c0.2-0.5,0.5-0.8,1-1c0.5-0.2,0.8-0.3,1.3-0.3c0.6,0,1.1,0.2,1.4,0.3
	c0.5,0.2,0.8,0.5,1.1,0.8s0.5,0.8,0.6,1.3c0.2,0.5,0.2,1,0.2,1.4c0,0.5,0,1-0.2,1.4s-0.3,0.8-0.6,1.3c-0.3,0.3-0.6,0.6-1,0.8
	c-0.3,0.2-0.8,0.3-1.4,0.3c-0.2,0-0.5,0-0.6,0c-0.2,0-0.5-0.2-0.6-0.2c-0.2-0.2-0.5-0.2-0.6-0.3c-0.2-0.2-0.3-0.3-0.5-0.5l0,0v3.7
	h-1.6L68.5,279.2L68.5,279.2z M74.1,282.9c0-0.3,0-0.6-0.2-1c-0.2-0.3-0.2-0.6-0.3-0.8c-0.2-0.3-0.3-0.5-0.6-0.6
	c-0.3-0.2-0.5-0.2-0.8-0.2c-0.6,0-1.1,0.2-1.6,0.6c-0.3,0.5-0.5,1.1-0.5,1.9c0,0.3,0,0.6,0.2,1s0.2,0.6,0.5,0.8
	c0.2,0.2,0.3,0.5,0.6,0.5c0.3,0.2,0.5,0.2,0.8,0.2c0.3,0,0.6-0.2,1-0.2c0.3-0.2,0.5-0.3,0.6-0.6c0.2-0.3,0.3-0.5,0.3-0.8
	C73.9,283.5,74.1,283.2,74.1,282.9z M76.8,276.5h1.6v1.4h-1.6V276.5z M76.8,279.2h1.6v7.2h-1.6V279.2z M79.8,276.5h1.6v10h-1.6
	V276.5z M86.3,286.7c-0.6,0-1.1-0.2-1.6-0.3c-0.5-0.2-0.8-0.5-1.1-0.8c-0.3-0.3-0.5-0.8-0.6-1.3c-0.2-0.5-0.3-1-0.3-1.6
	c0-0.6,0.2-1.1,0.3-1.6c0.2-0.5,0.5-0.8,0.6-1.3c0.3-0.3,0.6-0.6,1.1-0.8c0.5-0.2,1-0.3,1.6-0.3s1.1,0.2,1.6,0.3
	c0.5,0.2,0.8,0.5,1.1,0.8c0.3,0.3,0.5,0.8,0.6,1.3s0.3,1,0.3,1.6c0,0.6-0.2,1.1-0.3,1.6s-0.5,0.8-0.6,1.3c-0.3,0.3-0.6,0.6-1.1,0.8
	C87.4,286.5,86.8,286.7,86.3,286.7z M86.3,285.4c0.3,0,0.6-0.2,1-0.2c0.3-0.2,0.5-0.3,0.6-0.6c0.2-0.3,0.3-0.5,0.3-0.8
	c0.2-0.3,0.2-0.6,0.2-1c0-0.3,0-0.6-0.2-1c-0.2-0.3-0.2-0.6-0.3-0.8c-0.2-0.3-0.3-0.5-0.6-0.6c-0.3-0.2-0.6-0.2-1-0.2
	c-0.3,0-0.6,0.2-1,0.2c-0.3,0.2-0.5,0.3-0.6,0.6c-0.2,0.3-0.3,0.5-0.3,0.8c-0.2,0.3-0.2,0.6-0.2,1c0,0.3,0,0.6,0.2,1
	c0.2,0.3,0.2,0.6,0.3,0.8c0.2,0.3,0.3,0.5,0.6,0.6C85.7,285.3,86,285.4,86.3,285.4z M90.5,279.2h1.3V277h1.6v2.2h1.4v1.1h-1.4v3.8
	c0,0.2,0,0.3,0,0.5s0,0.2,0.2,0.3c0,0.2,0.2,0.2,0.2,0.2c0.2,0,0.3,0,0.5,0c0.2,0,0.2,0,0.3,0c0.2,0,0.2,0,0.3,0v1.3
	c-0.2,0-0.3,0-0.5,0c-0.2,0-0.3,0-0.5,0c-0.5,0-0.8,0-1-0.2c-0.3-0.2-0.5-0.2-0.6-0.3c-0.2-0.2-0.3-0.3-0.3-0.6
	c0-0.2-0.2-0.5-0.2-0.8v-4.3h-1.3L90.5,279.2L90.5,279.2z"/>
<path fill="#00B67A" d="M34,276.5h-7.3l-2.2-7l-2.2,7h-7.3l5.9,4.3l-2.2,7l5.9-4.3l5.9,4.3l-2.2-7L34,276.5z"/>
</svg>
